pt-serif_regular.sfdir

StartChar: exclam
Encoding: 33 33 4
Width: 327
Flags: W
LayerCount: 2
Fore
SplineSet
174 218 m 1,0,-1
 142 394 l 1,1,-1
 142 690 l 1,2,3
 164 701 164 701 187 701 c 256,4,5
 210 701 210 701 232 690 c 1,6,-1
 232 394 l 1,7,-1
 200 218 l 1,8,-1
 174 218 l 1,0,-1
119 57 m 0,9,10
 119 87 119 87 138 105 c 128,-1,11
 157 123 157 123 187 123 c 0,12,13
 218 123 218 123 237 105 c 128,-1,14
 256 87 256 87 256 57 c 0,15,16
 256 28 256 28 237 10 c 128,-1,17
 218 -8 218 -8 187 -8 c 0,18,19
 157 -8 157 -8 138 10 c 128,-1,20
 119 28 119 28 119 57 c 0,9,10
EndSplineSet
EndChar

StartChar: numbersign
Encoding: 35 35 6
Width: 533
Flags: W
LayerCount: 2
Fore
SplineSet
308 233 m 1,0,-1
 166 233 l 1,1,-1
 124 58 l 1,2,-1
 71 58 l 1,3,-1
 113 233 l 1,4,-1
 33 233 l 1,5,-1
 47 279 l 1,6,-1
 123 279 l 1,7,-1
 159 429 l 1,8,-1
 83 429 l 1,9,-1
 97 475 l 1,10,-1
 170 475 l 1,11,-1
 210 642 l 1,12,-1
 262 642 l 1,13,-1
 223 475 l 1,14,-1
 365 475 l 1,15,-1
 405 642 l 1,16,-1
 457 642 l 1,17,-1
 417 475 l 1,18,-1
 497 475 l 1,19,-1
 480 429 l 1,20,-1
 406 429 l 1,21,-1
 370 279 l 1,22,-1
 447 279 l 1,23,-1
 430 233 l 1,24,-1
 360 233 l 1,25,-1
 318 58 l 1,26,-1
 266 58 l 1,27,-1
 308 233 l 1,0,-1
176 279 m 1,28,-1
 318 279 l 1,29,-1
 354 429 l 1,30,-1
 212 429 l 1,31,-1
 176 279 l 1,28,-1
EndSplineSet
EndChar

StartChar: dollar
Encoding: 36 36 7
Width: 533
Flags: W
LayerCount: 2
Fore
SplineSet
239 -12 m 1,0,1
 209 -12 209 -12 181 -7.5 c 128,-1,2
 153 -3 153 -3 129.5 4.5 c 128,-1,3
 106 12 106 12 87.5 21 c 128,-1,4
 69 30 69 30 59 39 c 1,5,6
 60 49 60 49 61 65.5 c 128,-1,7
 62 82 62 82 64 99 c 128,-1,8
 66 116 66 116 68.5 132 c 128,-1,9
 71 148 71 148 75 157 c 1,10,-1
 100 157 l 1,11,-1
 160 60 l 1,12,13
 173 52 173 52 194 46.5 c 128,-1,14
 215 41 215 41 239 40 c 1,15,-1
 239 325 l 1,16,17
 235 325 235 325 233 327 c 2,18,-1
 201 342 l 2,19,20
 172 355 172 355 145 371 c 128,-1,21
 118 387 118 387 97.5 409.5 c 128,-1,22
 77 432 77 432 64.5 462 c 128,-1,23
 52 492 52 492 52 533 c 0,24,25
 52 569 52 569 66 600 c 128,-1,26
 80 631 80 631 104.5 655 c 128,-1,27
 129 679 129 679 163.5 693.5 c 128,-1,28
 198 708 198 708 239 711 c 1,29,-1
 239 760 l 1,30,-1
 291 760 l 1,31,-1
 291 711 l 1,32,33
 339 708 339 708 374.5 698 c 128,-1,34
 410 688 410 688 436 676 c 1,35,36
 435 644 435 644 427.5 623 c 128,-1,37
 420 602 420 602 412 586 c 1,38,-1
 386 586 l 1,39,-1
 336 654 l 1,40,41
 325 656 325 656 315 657 c 128,-1,42
 305 658 305 658 291 659 c 1,43,-1
 291 392 l 1,44,-1
 320 379 l 1,45,46
 351 364 351 364 380.5 347.5 c 128,-1,47
 410 331 410 331 433 308.5 c 128,-1,48
 456 286 456 286 470 254 c 128,-1,49
 484 222 484 222 484 175 c 0,50,51
 484 102 484 102 433 52 c 128,-1,52
 382 2 382 2 291 -9 c 1,53,-1
 291 -70 l 1,54,-1
 239 -70 l 1,55,-1
 239 -12 l 1,0,1
394 168 m 0,56,57
 394 220 394 220 364 250.5 c 128,-1,58
 334 281 334 281 291 301 c 1,59,-1
 291 45 l 1,60,61
 336 57 336 57 365 88.5 c 128,-1,62
 394 120 394 120 394 168 c 0,56,57
142 551 m 0,63,64
 142 524 142 524 149.5 503.5 c 128,-1,65
 157 483 157 483 170 467 c 128,-1,66
 183 451 183 451 200.5 438.5 c 128,-1,67
 218 426 218 426 239 415 c 1,68,-1
 239 659 l 1,69,70
 194 654 194 654 168 623.5 c 128,-1,71
 142 593 142 593 142 551 c 0,63,64
EndSplineSet
EndChar

StartChar: ampersand
Encoding: 38 38 9
Width: 869
Flags: W
LayerCount: 2
Fore
SplineSet
540 123 m 1,0,1
 510 150 510 150 474.5 186.5 c 128,-1,2
 439 223 439 223 406 261 c 128,-1,3
 373 299 373 299 345 334 c 128,-1,4
 317 369 317 369 301 392 c 1,5,6
 258 350 258 350 239 310.5 c 128,-1,7
 220 271 220 271 220 218 c 0,8,9
 220 180 220 180 232.5 147.5 c 128,-1,10
 245 115 245 115 267 91 c 128,-1,11
 289 67 289 67 320 53.5 c 128,-1,12
 351 40 351 40 387 40 c 0,13,14
 432 40 432 40 471 60.5 c 128,-1,15
 510 81 510 81 540 123 c 1,0,1
282 583 m 0,16,17
 282 565 282 565 289 544.5 c 128,-1,18
 296 524 296 524 307.5 504 c 128,-1,19
 319 484 319 484 332.5 465 c 128,-1,20
 346 446 346 446 359 431 c 1,21,22
 395 461 395 461 417.5 500.5 c 128,-1,23
 440 540 440 540 435 594 c 0,24,25
 433 626 433 626 415 648 c 128,-1,26
 397 670 397 670 358 670 c 0,27,28
 336 670 336 670 321.5 662.5 c 128,-1,29
 307 655 307 655 298 642.5 c 128,-1,30
 289 630 289 630 285.5 614.5 c 128,-1,31
 282 599 282 599 282 583 c 0,16,17
697 0 m 1,32,33
 676 14 676 14 644 34.5 c 128,-1,34
 612 55 612 55 574 92 c 1,35,36
 560 73 560 73 539 54.5 c 128,-1,37
 518 36 518 36 489.5 21 c 128,-1,38
 461 6 461 6 426 -3 c 128,-1,39
 391 -12 391 -12 350 -12 c 0,40,41
 297 -12 297 -12 254 4 c 128,-1,42
 211 20 211 20 181 47 c 128,-1,43
 151 74 151 74 134.5 109 c 128,-1,44
 118 144 118 144 118 182 c 0,45,46
 118 231 118 231 136 270.5 c 128,-1,47
 154 310 154 310 179 339.5 c 128,-1,48
 204 369 204 369 231 389.5 c 128,-1,49
 258 410 258 410 276 423 c 1,50,51
 247 455 247 455 227 498 c 128,-1,52
 207 541 207 541 207 578 c 0,53,54
 207 603 207 603 217 627.5 c 128,-1,55
 227 652 227 652 246.5 670.5 c 128,-1,56
 266 689 266 689 294.5 700.5 c 128,-1,57
 323 712 323 712 359 712 c 0,58,59
 425 712 425 712 465.5 683.5 c 128,-1,60
 506 655 506 655 506 601 c 0,61,62
 506 568 506 568 494.5 539.5 c 128,-1,63
 483 511 483 511 465 487 c 128,-1,64
 447 463 447 463 424.5 443 c 128,-1,65
 402 423 402 423 380 406 c 1,66,67
 421 355 421 355 475 301 c 128,-1,68
 529 247 529 247 589 193 c 1,69,70
 597 204 597 204 609 230 c 128,-1,71
 621 256 621 256 631.5 291 c 128,-1,72
 642 326 642 326 648.5 367.5 c 128,-1,73
 655 409 655 409 652 450 c 1,74,75
 622 456 622 456 593 474 c 1,76,-1
 593 500 l 1,77,-1
 796 500 l 1,78,-1
 796 474 l 1,79,80
 769 457 769 457 730 450 c 1,81,82
 721 391 721 391 707 343 c 128,-1,83
 693 295 693 295 678 258.5 c 128,-1,84
 663 222 663 222 649.5 196.5 c 128,-1,85
 636 171 636 171 628 159 c 1,86,87
 666 128 666 128 702.5 101.5 c 128,-1,88
 739 75 739 75 784 49 c 1,89,-1
 839 25 l 1,90,-1
 839 0 l 1,91,-1
 697 0 l 1,32,33
EndSplineSet
EndChar

StartChar: quotesingle
Encoding: 39 39 10
Width: 243
Flags: W
LayerCount: 2
Fore
SplineSet
66 723 m 1,0,1
 73 740 73 740 86.5 751 c 128,-1,2
 100 762 100 762 122 762 c 0,3,4
 163 762 163 762 177 723 c 1,5,-1
 135 505 l 1,6,-1
 109 505 l 1,7,-1
 66 723 l 1,0,1
EndSplineSet
Substitution2: "'c2sc' Capitals to Small Capitals lookup 12 subtable" uniF634
Substitution2: "'aalt' Access All Alternates lookup 0 subtable" uniF634
EndChar

StartChar: parenleft
Encoding: 40 40 11
Width: 343
Flags: W
LayerCount: 2
Fore
SplineSet
300 -210 m 1,0,1
 249 -173 249 -173 205 -129 c 128,-1,2
 161 -85 161 -85 128.5 -30 c 128,-1,3
 96 25 96 25 77.5 92 c 128,-1,4
 59 159 59 159 59 243 c 0,5,6
 59 325 59 325 78 391 c 128,-1,7
 97 457 97 457 130 512 c 128,-1,8
 163 567 163 567 207.5 613.5 c 128,-1,9
 252 660 252 660 303 702 c 1,10,-1
 324 684 l 1,11,12
 284 641 284 641 251 596 c 128,-1,13
 218 551 218 551 194.5 498 c 128,-1,14
 171 445 171 445 158 382.5 c 128,-1,15
 145 320 145 320 145 243 c 0,16,17
 145 168 145 168 159 104.5 c 128,-1,18
 173 41 173 41 197.5 -12.5 c 128,-1,19
 222 -66 222 -66 254.5 -110 c 128,-1,20
 287 -154 287 -154 324 -190 c 1,21,-1
 300 -210 l 1,0,1
EndSplineSet
Position2: "'case' Case-Sensitive Forms lookup 1 per glyph data 3" dx=0 dy=100 dh=0 dv=0
EndChar

StartChar: parenright
Encoding: 41 41 12
Width: 343
Flags: W
LayerCount: 2
Fore
SplineSet
19 -190 m 1,0,1
 56 -154 56 -154 88.5 -108.5 c 128,-1,2
 121 -63 121 -63 145 -7.5 c 128,-1,3
 169 48 169 48 183 113 c 128,-1,4
 197 178 197 178 197 253 c 0,5,6
 197 330 197 330 184 391 c 128,-1,7
 171 452 171 452 148 503 c 128,-1,8
 125 554 125 554 92 598 c 128,-1,9
 59 642 59 642 19 684 c 1,10,-1
 40 702 l 1,11,12
 91 663 91 663 135.5 619 c 128,-1,13
 180 575 180 575 213 521 c 128,-1,14
 246 467 246 467 265 401 c 128,-1,15
 284 335 284 335 284 253 c 0,16,17
 284 170 284 170 266 101.5 c 128,-1,18
 248 33 248 33 216 -23.5 c 128,-1,19
 184 -80 184 -80 139.5 -126.5 c 128,-1,20
 95 -173 95 -173 43 -210 c 1,21,-1
 19 -190 l 1,0,1
EndSplineSet
Position2: "'case' Case-Sensitive Forms lookup 1 per glyph data 3" dx=0 dy=100 dh=0 dv=0
EndChar

StartChar: asterisk
Encoding: 42 42 13
Width: 465
Flags: W
LayerCount: 2
Fore
SplineSet
62 616 m 1,0,1
 59 623 59 623 61 633.5 c 128,-1,2
 63 644 63 644 69 654.5 c 128,-1,3
 75 665 75 665 83.5 673 c 128,-1,4
 92 681 92 681 101 683 c 1,5,-1
 201 596 l 1,6,7
 201 588 201 588 198 581 c 128,-1,8
 195 574 195 574 187 570 c 1,9,-1
 62 616 l 1,0,1
100 444 m 1,10,11
 92 445 92 445 84 452.5 c 128,-1,12
 76 460 76 460 70 470.5 c 128,-1,13
 64 481 64 481 61 492 c 128,-1,14
 58 503 58 503 61 511 c 1,15,-1
 186 554 l 1,16,17
 201 546 201 546 201 530 c 1,18,-1
 100 444 l 1,10,11
271 389 m 1,19,20
 266 383 266 383 255.5 380 c 128,-1,21
 245 377 245 377 233 377 c 256,22,23
 221 377 221 377 210.5 380 c 128,-1,24
 200 383 200 383 195 388 c 1,25,-1
 218 518 l 1,26,27
 234 526 234 526 250 518 c 1,28,-1
 271 389 l 1,19,20
402 511 m 1,29,30
 406 504 406 504 403.5 493 c 128,-1,31
 401 482 401 482 395 471.5 c 128,-1,32
 389 461 389 461 381 453 c 128,-1,33
 373 445 373 445 364 444 c 1,34,-1
 266 528 l 1,35,36
 266 537 266 537 269.5 542.5 c 128,-1,37
 273 548 273 548 279 553 c 1,38,-1
 402 511 l 1,29,30
366 683 m 1,39,40
 374 682 374 682 382 674.5 c 128,-1,41
 390 667 390 667 395.5 656.5 c 128,-1,42
 401 646 401 646 403.5 635 c 128,-1,43
 406 624 406 624 403 615 c 1,44,-1
 279 568 l 1,45,46
 265 578 265 578 265 594 c 1,47,-1
 366 683 l 1,39,40
194 737 m 1,48,49
 198 743 198 743 208.5 746.5 c 128,-1,50
 219 750 219 750 231 750 c 256,51,52
 243 750 243 750 254 746.5 c 128,-1,53
 265 743 265 743 270 737 c 1,54,-1
 248 607 l 1,55,56
 233 597 233 597 217 607 c 1,57,-1
 194 737 l 1,48,49
EndSplineSet
EndChar

StartChar: plus
Encoding: 43 43 14
Width: 533
Flags: W
LayerCount: 2
Fore
SplineSet
42 370 m 1,0,-1
 240 370 l 1,1,-1
 240 580 l 1,2,-1
 293 580 l 1,3,-1
 293 370 l 1,4,-1
 491 370 l 1,5,-1
 491 317 l 1,6,-1
 293 317 l 1,7,-1
 293 102 l 1,8,-1
 240 102 l 1,9,-1
 240 317 l 1,10,-1
 42 317 l 1,11,-1
 42 370 l 1,0,-1
EndSplineSet
EndChar

StartChar: comma
Encoding: 44 44 15
Width: 283
Flags: W
LayerCount: 2
Fore
SplineSet
51 -149 m 1,0,1
 70 -142 70 -142 87 -127.5 c 128,-1,2
 104 -113 104 -113 116.5 -95 c 128,-1,3
 129 -77 129 -77 135.5 -55.5 c 128,-1,4
 142 -34 142 -34 140 -13 c 1,5,6
 128 -2 128 -2 108 9 c 128,-1,7
 88 20 88 20 73 25 c 1,8,9
 68 44 68 44 72.5 62 c 128,-1,10
 77 80 77 80 86 94 c 128,-1,11
 95 108 95 108 106.5 116.5 c 128,-1,12
 118 125 118 125 129 126 c 1,13,14
 164 121 164 121 190.5 95 c 128,-1,15
 217 69 217 69 217 17 c 0,16,17
 217 -11 217 -11 207 -41.5 c 128,-1,18
 197 -72 197 -72 178 -99 c 128,-1,19
 159 -126 159 -126 132 -147.5 c 128,-1,20
 105 -169 105 -169 71 -179 c 1,21,-1
 51 -149 l 1,0,1
EndSplineSet
EndChar

StartChar: hyphen
Encoding: 45 45 16
Width: 425
Flags: W
LayerCount: 2
Fore
SplineSet
71 313 m 1,0,-1
 353 313 l 1,1,-1
 353 250 l 1,2,-1
 71 250 l 1,3,-1
 71 313 l 1,0,-1
EndSplineSet
Position2: "'case' Case-Sensitive Forms lookup 1 per glyph data 2" dx=0 dy=80 dh=0 dv=0
EndChar

StartChar: period
Encoding: 46 46 17
Width: 279
Flags: W
LayerCount: 2
Fore
SplineSet
71 57 m 0,0,1
 71 87 71 87 90 105 c 128,-1,2
 109 123 109 123 139 123 c 0,3,4
 170 123 170 123 189 105 c 128,-1,5
 208 87 208 87 208 57 c 0,6,7
 208 28 208 28 189 10 c 128,-1,8
 170 -8 170 -8 139 -8 c 0,9,10
 109 -8 109 -8 90 10 c 128,-1,11
 71 28 71 28 71 57 c 0,0,1
EndSplineSet
EndChar

StartChar: slash
Encoding: 47 47 18
Width: 344
Flags: W
LayerCount: 2
Fore
SplineSet
327 712 m 1,0,-1
 369 694 l 1,1,-1
 4 -130 l 1,2,-1
 -37 -111 l 1,3,-1
 327 712 l 1,0,-1
EndSplineSet
EndChar

StartChar: zero
Encoding: 48 48 19
Width: 533
Flags: W
LayerCount: 2
Fore
SplineSet
35 350 m 0,0,1
 35 530 35 530 95 621 c 128,-1,2
 155 712 155 712 267 712 c 0,3,4
 388 712 388 712 444 622.5 c 128,-1,5
 500 533 500 533 500 350 c 0,6,7
 500 170 500 170 439.5 79 c 128,-1,8
 379 -12 379 -12 261 -12 c 0,9,10
 200 -12 200 -12 157 12.5 c 128,-1,11
 114 37 114 37 87 83.5 c 128,-1,12
 60 130 60 130 47.5 197 c 128,-1,13
 35 264 35 264 35 350 c 0,0,1
131 350 m 0,14,15
 131 278 131 278 138 219 c 128,-1,16
 145 160 145 160 160.5 117.5 c 128,-1,17
 176 75 176 75 200.5 52 c 128,-1,18
 225 29 225 29 260 29 c 0,19,20
 339 29 339 29 371.5 107 c 128,-1,21
 404 185 404 185 404 350 c 0,22,23
 404 422 404 422 398 481 c 128,-1,24
 392 540 392 540 376 582 c 128,-1,25
 360 624 360 624 333.5 647 c 128,-1,26
 307 670 307 670 267 670 c 0,27,28
 192 670 192 670 161.5 592.5 c 128,-1,29
 131 515 131 515 131 350 c 0,14,15
EndSplineSet
EndChar

StartChar: one
Encoding: 49 49 20
Width: 533
Flags: W
LayerCount: 2
Fore
SplineSet
425 0 m 1,0,-1
 133 0 l 1,1,-1
 133 29 l 1,2,3
 158 40 158 40 183.5 48.5 c 128,-1,4
 209 57 209 57 235 63 c 1,5,-1
 235 554 l 1,6,-1
 239 613 l 1,7,8
 211 602 211 602 181 597.5 c 128,-1,9
 151 593 151 593 119 594 c 1,10,-1
 114 618 l 1,11,12
 160 633 160 633 209 655.5 c 128,-1,13
 258 678 258 678 300 712 c 1,14,-1
 325 712 l 1,15,-1
 325 63 l 1,16,17
 350 57 350 57 375 48.5 c 128,-1,18
 400 40 400 40 425 29 c 1,19,-1
 425 0 l 1,0,-1
EndSplineSet
Substitution2: "'sups' Superscript lookup 13 subtable" onesuperior
Substitution2: "'sinf' Scientific Inferiors lookup 6 subtable" uni2081
Substitution2: "'subs' Subscript lookup 5 subtable" uni2081
Substitution2: "'numr' Numerators lookup 4 subtable" one.numerator
AlternateSubs2: "'aalt' Access All Alternates lookup 1 subtable" one.numerator uni2081 onesuperior
EndChar

StartChar: two
Encoding: 50 50 21
Width: 533
Flags: W
LayerCount: 2
Fore
SplineSet
133 505 m 1,0,-1
 108 505 l 1,1,2
 97 534 97 534 85.5 573 c 128,-1,3
 74 612 74 612 66 647 c 1,4,5
 101 677 101 677 150 694.5 c 128,-1,6
 199 712 199 712 256 712 c 0,7,8
 306 712 306 712 342 698 c 128,-1,9
 378 684 378 684 401.5 660 c 128,-1,10
 425 636 425 636 436 604.5 c 128,-1,11
 447 573 447 573 447 539 c 0,12,13
 447 483 447 483 421 424 c 128,-1,14
 395 365 395 365 356.5 309.5 c 128,-1,15
 318 254 318 254 273 205 c 128,-1,16
 228 156 228 156 190 119 c 1,17,-1
 148 80 l 1,18,-1
 148 76 l 1,19,-1
 204 82 l 1,20,-1
 376 82 l 1,21,-1
 425 194 l 1,22,-1
 450 194 l 1,23,24
 452 172 452 172 454 146 c 128,-1,25
 456 120 456 120 457.5 93.5 c 128,-1,26
 459 67 459 67 460 42.5 c 128,-1,27
 461 18 461 18 461 0 c 1,28,-1
 48 0 l 1,29,-1
 48 32 l 1,30,31
 70 55 70 55 101.5 88 c 128,-1,32
 133 121 133 121 167 161 c 128,-1,33
 201 201 201 201 234.5 246 c 128,-1,34
 268 291 268 291 294 337.5 c 128,-1,35
 320 384 320 384 336.5 430 c 128,-1,36
 353 476 353 476 353 518 c 0,37,38
 353 547 353 547 345.5 573 c 128,-1,39
 338 599 338 599 323 618.5 c 128,-1,40
 308 638 308 638 286.5 649 c 128,-1,41
 265 660 265 660 237 660 c 0,42,43
 216 660 216 660 200 657 c 128,-1,44
 184 654 184 654 165 648 c 1,45,-1
 133 505 l 1,0,-1
EndSplineSet
Substitution2: "'sups' Superscript lookup 13 subtable" twosuperior
Substitution2: "'sinf' Scientific Inferiors lookup 6 subtable" uni2082
Substitution2: "'subs' Subscript lookup 5 subtable" uni2082
AlternateSubs2: "'aalt' Access All Alternates lookup 1 subtable" uni2082 twosuperior
EndChar

StartChar: three
Encoding: 51 51 22
Width: 533
Flags: W
LayerCount: 2
Fore
SplineSet
256 35 m 0,0,1
 284 35 284 35 308 47.5 c 128,-1,2
 332 60 332 60 350 81.5 c 128,-1,3
 368 103 368 103 378.5 131 c 128,-1,4
 389 159 389 159 389 190 c 0,5,6
 389 227 389 227 377.5 255 c 128,-1,7
 366 283 366 283 346 301.5 c 128,-1,8
 326 320 326 320 299.5 329.5 c 128,-1,9
 273 339 273 339 242 339 c 2,10,-1
 177 339 l 1,11,-1
 177 366 l 1,12,-1
 345 591 l 1,13,-1
 379 626 l 1,14,-1
 379 630 l 1,15,-1
 325 624 l 1,16,-1
 156 624 l 1,17,-1
 117 522 l 1,18,-1
 92 522 l 1,19,20
 88 543 88 543 84.5 567 c 128,-1,21
 81 591 81 591 78 614.5 c 128,-1,22
 75 638 75 638 73 660 c 128,-1,23
 71 682 71 682 71 700 c 1,24,-1
 462 700 l 1,25,-1
 462 669 l 1,26,-1
 295 446 l 1,27,-1
 252 402 l 1,28,-1
 252 400 l 1,29,-1
 286 407 l 1,30,31
 333 405 333 405 370 389 c 128,-1,32
 407 373 407 373 432.5 346.5 c 128,-1,33
 458 320 458 320 471.5 284.5 c 128,-1,34
 485 249 485 249 485 207 c 0,35,36
 485 157 485 157 465 116.5 c 128,-1,37
 445 76 445 76 411.5 47.5 c 128,-1,38
 378 19 378 19 334.5 3.5 c 128,-1,39
 291 -12 291 -12 243 -12 c 0,40,41
 220 -12 220 -12 194 -8.5 c 128,-1,42
 168 -5 168 -5 143 2 c 128,-1,43
 118 9 118 9 96.5 18 c 128,-1,44
 75 27 75 27 60 39 c 1,45,-1
 88 129 l 1,46,-1
 108 129 l 1,47,48
 114 122 114 122 124.5 111 c 128,-1,49
 135 100 135 100 146.5 88 c 128,-1,50
 158 76 158 76 169 64 c 128,-1,51
 180 52 180 52 188 43 c 1,52,53
 198 41 198 41 214 38 c 128,-1,54
 230 35 230 35 256 35 c 0,0,1
EndSplineSet
Substitution2: "'sups' Superscript lookup 13 subtable" threesuperior
Substitution2: "'sinf' Scientific Inferiors lookup 6 subtable" uni2083
Substitution2: "'subs' Subscript lookup 5 subtable" uni2083
AlternateSubs2: "'aalt' Access All Alternates lookup 1 subtable" uni2083 threesuperior
EndChar

StartChar: four
Encoding: 52 52 23
Width: 533
Flags: W
LayerCount: 2
Fore
SplineSet
477 0 m 1,0,-1
 217 0 l 1,1,-1
 217 29 l 1,2,3
 266 46 266 46 309 53 c 1,4,-1
 309 193 l 1,5,-1
 4 193 l 1,6,-1
 4 216 l 1,7,-1
 374 712 l 1,8,-1
 401 712 l 1,9,-1
 401 245 l 1,10,-1
 528 245 l 1,11,-1
 528 193 l 1,12,-1
 401 193 l 1,13,-1
 401 53 l 1,14,15
 440 45 440 45 477 29 c 1,16,-1
 477 0 l 1,0,-1
309 502 m 1,17,-1
 320 574 l 1,18,-1
 317 574 l 1,19,-1
 278 502 l 1,20,-1
 110 271 l 1,21,-1
 70 238 l 1,22,-1
 141 245 l 1,23,-1
 309 245 l 1,24,-1
 309 502 l 1,17,-1
EndSplineSet
Substitution2: "'sinf' Scientific Inferiors lookup 6 subtable" uni2084
Substitution2: "'subs' Subscript lookup 5 subtable" uni2084
Substitution2: "'aalt' Access All Alternates lookup 0 subtable" uni2084
EndChar

StartChar: five
Encoding: 53 53 24
Width: 533
Flags: W
LayerCount: 2
Fore
SplineSet
431 755 m 1,0,-1
 456 755 l 1,1,2
 455 740 455 740 453.5 721.5 c 128,-1,3
 452 703 452 703 449 684.5 c 128,-1,4
 446 666 446 666 443 649 c 128,-1,5
 440 632 440 632 436 621 c 1,6,-1
 190 621 l 1,7,-1
 166 428 l 1,8,-1
 231 428 l 2,9,10
 281 428 281 428 322.5 414.5 c 128,-1,11
 364 401 364 401 393.5 374.5 c 128,-1,12
 423 348 423 348 439.5 310 c 128,-1,13
 456 272 456 272 456 223 c 0,14,15
 456 165 456 165 436 121 c 128,-1,16
 416 77 416 77 383 47.5 c 128,-1,17
 350 18 350 18 308 3 c 128,-1,18
 266 -12 266 -12 221 -12 c 0,19,20
 201 -12 201 -12 178 -8.5 c 128,-1,21
 155 -5 155 -5 132.5 2 c 128,-1,22
 110 9 110 9 90 18.5 c 128,-1,23
 70 28 70 28 56 39 c 1,24,-1
 85 129 l 1,25,-1
 105 129 l 1,26,27
 111 122 111 122 120 111 c 128,-1,28
 129 100 129 100 138.5 88 c 128,-1,29
 148 76 148 76 157.5 64 c 128,-1,30
 167 52 167 52 175 43 c 1,31,32
 185 41 185 41 193.5 38 c 128,-1,33
 202 35 202 35 220 35 c 0,34,35
 253 35 253 35 280.5 48 c 128,-1,36
 308 61 308 61 328 83.5 c 128,-1,37
 348 106 348 106 359 136 c 128,-1,38
 370 166 370 166 370 201 c 0,39,40
 370 241 370 241 355 270.5 c 128,-1,41
 340 300 340 300 314 318.5 c 128,-1,42
 288 337 288 337 253.5 346 c 128,-1,43
 219 355 219 355 181 354 c 2,44,-1
 110 353 l 1,45,-1
 150 700 l 1,46,-1
 388 700 l 1,47,-1
 431 755 l 1,0,-1
EndSplineSet
EndChar

StartChar: six
Encoding: 54 54 25
Width: 533
Flags: W
LayerCount: 2
Fore
SplineSet
502 211 m 0,0,1
 502 165 502 165 486 124.5 c 128,-1,2
 470 84 470 84 441 53.5 c 128,-1,3
 412 23 412 23 371 5.5 c 128,-1,4
 330 -12 330 -12 280 -12 c 0,5,6
 224 -12 224 -12 181 7.5 c 128,-1,7
 138 27 138 27 108.5 62 c 128,-1,8
 79 97 79 97 64 145 c 128,-1,9
 49 193 49 193 49 250 c 0,10,11
 49 344 49 344 80 422.5 c 128,-1,12
 111 501 111 501 162.5 561.5 c 128,-1,13
 214 622 214 622 280.5 662 c 128,-1,14
 347 702 347 702 419 718 c 1,15,-1
 430 688 l 1,16,17
 377 669 377 669 329.5 636.5 c 128,-1,18
 282 604 282 604 244.5 560 c 128,-1,19
 207 516 207 516 182 461.5 c 128,-1,20
 157 407 157 407 151 344 c 1,21,22
 167 371 167 371 208 393.5 c 128,-1,23
 249 416 249 416 303 416 c 0,24,25
 346 416 346 416 383 402 c 128,-1,26
 420 388 420 388 446 362 c 128,-1,27
 472 336 472 336 487 298 c 128,-1,28
 502 260 502 260 502 211 c 0,0,1
406 203 m 0,29,30
 406 274 406 274 371.5 319 c 128,-1,31
 337 364 337 364 275 364 c 0,32,33
 228 364 228 364 194.5 340.5 c 128,-1,34
 161 317 161 317 147 288 c 1,35,36
 145 274 145 274 145 255 c 128,-1,37
 145 236 145 236 145 225 c 0,38,39
 145 193 145 193 153.5 159.5 c 128,-1,40
 162 126 162 126 179.5 98 c 128,-1,41
 197 70 197 70 223.5 52 c 128,-1,42
 250 34 250 34 285 34 c 0,43,44
 317 34 317 34 340 48.5 c 128,-1,45
 363 63 363 63 377.5 87 c 128,-1,46
 392 111 392 111 399 141.5 c 128,-1,47
 406 172 406 172 406 203 c 0,29,30
EndSplineSet
EndChar

StartChar: seven
Encoding: 55 55 26
Width: 533
Flags: W
LayerCount: 2
Fore
SplineSet
111 521 m 1,0,-1
 86 521 l 1,1,2
 82 542 82 542 78 566 c 128,-1,3
 74 590 74 590 71 614 c 128,-1,4
 68 638 68 638 66.5 660 c 128,-1,5
 65 682 65 682 65 700 c 1,6,-1
 479 700 l 1,7,-1
 479 671 l 1,8,9
 429 582 429 582 396 507 c 128,-1,10
 363 432 363 432 339.5 355.5 c 128,-1,11
 316 279 316 279 299 193.5 c 128,-1,12
 282 108 282 108 265 0 c 1,13,-1
 165 0 l 1,14,15
 202 146 202 146 257 290 c 128,-1,16
 312 434 312 434 384 580 c 1,17,-1
 414 628 l 1,18,-1
 362 623 l 1,19,-1
 150 623 l 1,20,-1
 111 521 l 1,0,-1
EndSplineSet
EndChar

StartChar: eight
Encoding: 56 56 27
Width: 533
Flags: W
LayerCount: 2
Fore
SplineSet
49 157 m 0,0,1
 49 191 49 191 61 221.5 c 128,-1,2
 73 252 73 252 94.5 276.5 c 128,-1,3
 116 301 116 301 145.5 320 c 128,-1,4
 175 339 175 339 210 351 c 1,5,6
 182 366 182 366 157.5 384 c 128,-1,7
 133 402 133 402 115 425 c 128,-1,8
 97 448 97 448 86.5 475.5 c 128,-1,9
 76 503 76 503 76 537 c 0,10,11
 76 576 76 576 90 608 c 128,-1,12
 104 640 104 640 129.5 663 c 128,-1,13
 155 686 155 686 191.5 699 c 128,-1,14
 228 712 228 712 273 712 c 0,15,16
 361 712 361 712 410 667.5 c 128,-1,17
 459 623 459 623 459 553 c 0,18,19
 459 495 459 495 421 451.5 c 128,-1,20
 383 408 383 408 322 380 c 1,21,22
 357 362 357 362 387 340 c 128,-1,23
 417 318 417 318 438.5 292 c 128,-1,24
 460 266 460 266 472.5 235.5 c 128,-1,25
 485 205 485 205 485 170 c 0,26,27
 485 133 485 133 470.5 100 c 128,-1,28
 456 67 456 67 427.5 42 c 128,-1,29
 399 17 399 17 357.5 2.5 c 128,-1,30
 316 -12 316 -12 262 -12 c 0,31,32
 207 -12 207 -12 167 2 c 128,-1,33
 127 16 127 16 100.5 39.5 c 128,-1,34
 74 63 74 63 61.5 93.5 c 128,-1,35
 49 124 49 124 49 157 c 0,0,1
397 153 m 0,36,37
 397 187 397 187 383.5 214.5 c 128,-1,38
 370 242 370 242 347.5 263.5 c 128,-1,39
 325 285 325 285 295.5 303 c 128,-1,40
 266 321 266 321 235 336 c 1,41,42
 206 319 206 319 187 298 c 128,-1,43
 168 277 168 277 156.5 254.5 c 128,-1,44
 145 232 145 232 140 210 c 128,-1,45
 135 188 135 188 135 169 c 0,46,47
 135 145 135 145 142.5 120.5 c 128,-1,48
 150 96 150 96 166 77 c 128,-1,49
 182 58 182 58 207.5 46 c 128,-1,50
 233 34 233 34 270 34 c 0,51,52
 301 34 301 34 325 44.5 c 128,-1,53
 349 55 349 55 365 72 c 128,-1,54
 381 89 381 89 389 110.5 c 128,-1,55
 397 132 397 132 397 153 c 0,36,37
162 550 m 0,56,57
 162 519 162 519 173.5 496 c 128,-1,58
 185 473 185 473 204 454.5 c 128,-1,59
 223 436 223 436 247.5 421 c 128,-1,60
 272 406 272 406 298 393 c 1,61,62
 340 427 340 427 357 461 c 128,-1,63
 374 495 374 495 374 536 c 0,64,65
 374 598 374 598 346.5 631.5 c 128,-1,66
 319 665 319 665 271 665 c 0,67,68
 244 665 244 665 224 655 c 128,-1,69
 204 645 204 645 190 629 c 128,-1,70
 176 613 176 613 169 592.5 c 128,-1,71
 162 572 162 572 162 550 c 0,56,57
EndSplineSet
EndChar

StartChar: nine
Encoding: 57 57 28
Width: 533
Flags: W
LayerCount: 2
Fore
SplineSet
47 487 m 256,0,1
 47 536 47 536 61.5 577 c 128,-1,2
 76 618 76 618 104.5 648 c 128,-1,3
 133 678 133 678 174.5 695 c 128,-1,4
 216 712 216 712 270 712 c 0,5,6
 328 712 328 712 370.5 692.5 c 128,-1,7
 413 673 413 673 441 638 c 128,-1,8
 469 603 469 603 482 552.5 c 128,-1,9
 495 502 495 502 495 441 c 0,10,11
 495 348 495 348 468 269 c 128,-1,12
 441 190 441 190 394.5 130.5 c 128,-1,13
 348 71 348 71 284.5 34 c 128,-1,14
 221 -3 221 -3 148 -12 c 1,15,-1
 130 17 l 1,16,17
 189 33 189 33 234.5 64 c 128,-1,18
 280 95 280 95 312.5 137.5 c 128,-1,19
 345 180 345 180 365 231.5 c 128,-1,20
 385 283 385 283 393 340 c 1,21,22
 370 316 370 316 338.5 299.5 c 128,-1,23
 307 283 307 283 253 283 c 0,24,25
 208 283 208 283 170 296.5 c 128,-1,26
 132 310 132 310 105 336 c 128,-1,27
 78 362 78 362 62.5 400 c 128,-1,28
 47 438 47 438 47 487 c 256,0,1
143 488 m 0,29,30
 143 459 143 459 152 431.5 c 128,-1,31
 161 404 161 404 178 382.5 c 128,-1,32
 195 361 195 361 219 348 c 128,-1,33
 243 335 243 335 273 335 c 0,34,35
 321 335 321 335 352.5 351.5 c 128,-1,36
 384 368 384 368 399 393 c 1,37,38
 401 406 401 406 401 425.5 c 128,-1,39
 401 445 401 445 401 456 c 0,40,41
 401 492 401 492 393.5 529.5 c 128,-1,42
 386 567 386 567 370 597 c 128,-1,43
 354 627 354 627 328 646 c 128,-1,44
 302 665 302 665 266 665 c 0,45,46
 206 665 206 665 174.5 617.5 c 128,-1,47
 143 570 143 570 143 488 c 0,29,30
EndSplineSet
EndChar

StartChar: less
Encoding: 60 60 31
Width: 533
Flags: W
LayerCount: 2
Fore
SplineSet
44 324 m 1,0,-1
 44 355 l 1,1,-1
 429 590 l 1,2,-1
 454 546 l 1,3,-1
 204 395 l 1,4,-1
 118 355 l 1,5,-1
 203 324 l 1,6,-1
 468 168 l 1,7,-1
 428 103 l 1,8,-1
 44 324 l 1,0,-1
EndSplineSet
EndChar

StartChar: greater
Encoding: 62 62 33
Width: 533
Flags: W
LayerCount: 2
Fore
SplineSet
490 369 m 1,0,-1
 490 338 l 1,1,-1
 105 103 l 1,2,-1
 81 147 l 1,3,-1
 331 298 l 1,4,-1
 417 338 l 1,5,-1
 332 369 l 1,6,-1
 67 525 l 1,7,-1
 106 590 l 1,8,-1
 490 369 l 1,0,-1
EndSplineSet
EndChar

StartChar: question
Encoding: 63 63 34
Width: 473
Flags: W
LayerCount: 2
Fore
SplineSet
127 519 m 1,0,-1
 102 519 l 1,1,2
 94 546 94 546 84 588.5 c 128,-1,3
 74 631 74 631 70 670 c 1,4,5
 108 693 108 693 151.5 702.5 c 128,-1,6
 195 712 195 712 258 712 c 0,7,8
 303 712 303 712 336.5 699.5 c 128,-1,9
 370 687 370 687 392.5 665.5 c 128,-1,10
 415 644 415 644 426.5 614 c 128,-1,11
 438 584 438 584 438 549 c 0,12,13
 438 504 438 504 421.5 470.5 c 128,-1,14
 405 437 405 437 380.5 410 c 128,-1,15
 356 383 356 383 327 359.5 c 128,-1,16
 298 336 298 336 273 310 c 128,-1,17
 248 284 248 284 231.5 253 c 128,-1,18
 215 222 215 222 215 180 c 1,19,-1
 195 180 l 1,20,21
 188 209 188 209 188 237 c 0,22,23
 188 273 188 273 199.5 300.5 c 128,-1,24
 211 328 211 328 228 351 c 128,-1,25
 245 374 245 374 265 394.5 c 128,-1,26
 285 415 285 415 302 436.5 c 128,-1,27
 319 458 319 458 330.5 482.5 c 128,-1,28
 342 507 342 507 342 539 c 0,29,30
 342 561 342 561 335.5 582.5 c 128,-1,31
 329 604 329 604 315.5 621.5 c 128,-1,32
 302 639 302 639 281 649.5 c 128,-1,33
 260 660 260 660 230 660 c 0,34,35
 198 660 198 660 178 655 c 128,-1,36
 158 650 158 650 150 642 c 1,37,-1
 127 519 l 1,0,-1
143 57 m 0,38,39
 143 87 143 87 162 105 c 128,-1,40
 181 123 181 123 211 123 c 0,41,42
 242 123 242 123 261 105 c 128,-1,43
 280 87 280 87 280 57 c 0,44,45
 280 28 280 28 261 10 c 128,-1,46
 242 -8 242 -8 211 -8 c 0,47,48
 181 -8 181 -8 162 10 c 128,-1,49
 143 28 143 28 143 57 c 0,38,39
EndSplineSet
EndChar

StartChar: at
Encoding: 64 64 35
Width: 1064
Flags: W
LayerCount: 2
Fore
SplineSet
669 474 m 1,0,1
 706 491 706 491 744 490 c 1,2,-1
 693 204 l 2,3,4
 687 171 687 171 684.5 144 c 128,-1,5
 682 117 682 117 684.5 97.5 c 128,-1,6
 687 78 687 78 695.5 67.5 c 128,-1,7
 704 57 704 57 721 57 c 0,8,9
 754 57 754 57 789 75.5 c 128,-1,10
 824 94 824 94 853.5 129 c 128,-1,11
 883 164 883 164 902 214 c 128,-1,12
 921 264 921 264 921 326 c 0,13,14
 921 402 921 402 892 464 c 128,-1,15
 863 526 863 526 812.5 569.5 c 128,-1,16
 762 613 762 613 694.5 636.5 c 128,-1,17
 627 660 627 660 550 660 c 0,18,19
 458 660 458 660 384.5 627.5 c 128,-1,20
 311 595 311 595 259 538.5 c 128,-1,21
 207 482 207 482 179 405.5 c 128,-1,22
 151 329 151 329 151 242 c 0,23,24
 151 153 151 153 180 84.5 c 128,-1,25
 209 16 209 16 261.5 -31.5 c 128,-1,26
 314 -79 314 -79 386.5 -103.5 c 128,-1,27
 459 -128 459 -128 546 -128 c 0,28,29
 575 -128 575 -128 612 -121 c 128,-1,30
 649 -114 649 -114 679 -100 c 1,31,-1
 695 -144 l 1,32,33
 660 -164 660 -164 618 -172 c 128,-1,34
 576 -180 576 -180 525 -180 c 0,35,36
 439 -180 439 -180 361 -154 c 128,-1,37
 283 -128 283 -128 223.5 -76 c 128,-1,38
 164 -24 164 -24 129 54 c 128,-1,39
 94 132 94 132 94 236 c 0,40,41
 94 345 94 345 130 433 c 128,-1,42
 166 521 166 521 228.5 583 c 128,-1,43
 291 645 291 645 375 678.5 c 128,-1,44
 459 712 459 712 555 712 c 0,45,46
 645 712 645 712 722.5 685.5 c 128,-1,47
 800 659 800 659 857 609.5 c 128,-1,48
 914 560 914 560 946 488.5 c 128,-1,49
 978 417 978 417 978 326 c 0,50,51
 978 261 978 261 955.5 203 c 128,-1,52
 933 145 933 145 894.5 101 c 128,-1,53
 856 57 856 57 806 31 c 128,-1,54
 756 5 756 5 701 5 c 0,55,56
 671 5 671 5 650 14.5 c 128,-1,57
 629 24 629 24 618 45.5 c 128,-1,58
 607 67 607 67 606.5 101 c 128,-1,59
 606 135 606 135 617 183 c 1,60,-1
 613 183 l 1,61,62
 602 151 602 151 582.5 119.5 c 128,-1,63
 563 88 563 88 538 62.5 c 128,-1,64
 513 37 513 37 484.5 21 c 128,-1,65
 456 5 456 5 427 5 c 0,66,67
 367 5 367 5 334.5 46.5 c 128,-1,68
 302 88 302 88 302 157 c 0,69,70
 302 221 302 221 323.5 282 c 128,-1,71
 345 343 345 343 381.5 391 c 128,-1,72
 418 439 418 439 466 468 c 128,-1,73
 514 497 514 497 567 497 c 0,74,75
 603 497 603 497 624 491 c 128,-1,76
 645 485 645 485 669 474 c 1,0,1
652 426 m 1,77,78
 636 436 636 436 619.5 441 c 128,-1,79
 603 446 603 446 577 446 c 0,80,81
 539 446 539 446 505 419.5 c 128,-1,82
 471 393 471 393 446 352 c 128,-1,83
 421 311 421 311 406.5 262.5 c 128,-1,84
 392 214 392 214 392 169 c 0,85,86
 392 121 392 121 407 94 c 128,-1,87
 422 67 422 67 464 67 c 0,88,89
 483 67 483 67 505 85.5 c 128,-1,90
 527 104 527 104 548.5 134 c 128,-1,91
 570 164 570 164 590.5 201.5 c 128,-1,92
 611 239 611 239 627 277 c 1,93,-1
 652 426 l 1,77,78
EndSplineSet
Position2: "'case' Case-Sensitive Forms lookup 1 per glyph data 0" dx=0 dy=51 dh=0 dv=0
EndChar

StartChar: A
Encoding: 65 65 36
Width: 683
Flags: W
LayerCount: 2
Fore
SplineSet
222 0 m 1,0,-1
 0 0 l 1,1,-1
 0 29 l 1,2,3
 36 45 36 45 72 53 c 1,4,-1
 325 712 l 1,5,-1
 354 712 l 1,6,-1
 607 53 l 1,7,8
 627 49 627 49 646.5 44 c 128,-1,9
 666 39 666 39 683 29 c 1,10,-1
 683 0 l 1,11,-1
 427 0 l 1,12,-1
 427 29 l 1,13,14
 447 37 447 37 468 43 c 128,-1,15
 489 49 489 49 509 53 c 1,16,-1
 441 236 l 1,17,-1
 202 236 l 1,18,-1
 136 53 l 1,19,20
 178 47 178 47 222 29 c 1,21,-1
 222 0 l 1,0,-1
222 288 m 1,22,-1
 424 288 l 1,23,-1
 345 500 l 1,24,-1
 326 586 l 1,25,-1
 324 586 l 1,26,-1
 299 498 l 1,27,-1
 222 288 l 1,22,-1
EndSplineSet
Position2: "'cpsp' Capital Spacing lookup 0 subtable" dx=40 dy=0 dh=80 dv=0
EndChar

StartChar: B
Encoding: 66 66 37
Width: 615
Flags: W
LayerCount: 2
Fore
SplineSet
29 0 m 1,0,-1
 29 29 l 1,1,2
 69 48 69 48 111 53 c 1,3,-1
 111 646 l 1,4,5
 91 650 91 650 70 656.5 c 128,-1,6
 49 663 49 663 29 671 c 1,7,-1
 29 700 l 1,8,-1
 135 700 l 2,9,10
 154 700 154 700 171.5 701 c 128,-1,11
 189 702 189 702 208 703 c 128,-1,12
 227 704 227 704 249 705 c 128,-1,13
 271 706 271 706 299 706 c 0,14,15
 339 706 339 706 380.5 699.5 c 128,-1,16
 422 693 422 693 455.5 675 c 128,-1,17
 489 657 489 657 510 624.5 c 128,-1,18
 531 592 531 592 531 540 c 0,19,20
 531 514 531 514 523 488 c 128,-1,21
 515 462 515 462 498.5 439.5 c 128,-1,22
 482 417 482 417 457 400 c 128,-1,23
 432 383 432 383 398 375 c 1,24,-1
 398 371 l 1,25,26
 428 366 428 366 457.5 354 c 128,-1,27
 487 342 487 342 510 321.5 c 128,-1,28
 533 301 533 301 547.5 271 c 128,-1,29
 562 241 562 241 562 199 c 0,30,31
 562 145 562 145 538 106 c 128,-1,32
 514 67 514 67 475.5 42 c 128,-1,33
 437 17 437 17 388 5.5 c 128,-1,34
 339 -6 339 -6 289 -6 c 0,35,36
 254 -6 254 -6 210 -3 c 128,-1,37
 166 0 166 0 125 0 c 2,38,-1
 29 0 l 1,0,-1
296 46 m 0,39,40
 332 46 332 46 363.5 57 c 128,-1,41
 395 68 395 68 417.5 87.5 c 128,-1,42
 440 107 440 107 453 134.5 c 128,-1,43
 466 162 466 162 466 194 c 0,44,45
 466 234 466 234 450.5 260.5 c 128,-1,46
 435 287 435 287 408.5 302.5 c 128,-1,47
 382 318 382 318 347.5 324 c 128,-1,48
 313 330 313 330 276 330 c 2,49,-1
 201 330 l 1,50,-1
 201 54 l 1,51,52
 215 50 215 50 234.5 48 c 128,-1,53
 254 46 254 46 296 46 c 0,39,40
251 382 m 2,54,55
 268 382 268 382 291.5 383.5 c 128,-1,56
 315 385 315 385 330 387 c 1,57,58
 376 403 376 403 405.5 438.5 c 128,-1,59
 435 474 435 474 435 522 c 0,60,61
 435 588 435 588 395.5 621 c 128,-1,62
 356 654 356 654 290 654 c 0,63,64
 259 654 259 654 237 653 c 128,-1,65
 215 652 215 652 201 650 c 1,66,-1
 201 382 l 1,67,-1
 251 382 l 2,54,55
EndSplineSet
Position2: "'cpsp' Capital Spacing lookup 0 subtable" dx=40 dy=0 dh=80 dv=0
EndChar

StartChar: C
Encoding: 67 67 38
Width: 644
Flags: W
LayerCount: 2
Fore
SplineSet
547 182 m 1,0,-1
 573 182 l 1,1,2
 578 154 578 154 582 111.5 c 128,-1,3
 586 69 586 69 584 29 c 1,4,5
 569 17 569 17 548 9.5 c 128,-1,6
 527 2 527 2 503.5 -3 c 128,-1,7
 480 -8 480 -8 455.5 -10 c 128,-1,8
 431 -12 431 -12 409 -12 c 0,9,10
 325 -12 325 -12 259 9.5 c 128,-1,11
 193 31 193 31 147.5 75 c 128,-1,12
 102 119 102 119 77.5 187.5 c 128,-1,13
 53 256 53 256 53 350 c 0,14,15
 53 448 53 448 80 516.5 c 128,-1,16
 107 585 107 585 153 628.5 c 128,-1,17
 199 672 199 672 260 692 c 128,-1,18
 321 712 321 712 388 712 c 0,19,20
 454 712 454 712 499 703.5 c 128,-1,21
 544 695 544 695 578 678 c 1,22,23
 578 662 578 662 577 640.5 c 128,-1,24
 576 619 576 619 574 595 c 128,-1,25
 572 571 572 571 569 548 c 128,-1,26
 566 525 566 525 563 506 c 1,27,-1
 537 506 l 1,28,-1
 485 650 l 1,29,30
 474 656 474 656 448.5 658 c 128,-1,31
 423 660 423 660 398 660 c 0,32,33
 348 660 348 660 303.5 641.5 c 128,-1,34
 259 623 259 623 225.5 584.5 c 128,-1,35
 192 546 192 546 172 487.5 c 128,-1,36
 152 429 152 429 152 350 c 0,37,38
 152 279 152 279 170 221.5 c 128,-1,39
 188 164 188 164 222 123.5 c 128,-1,40
 256 83 256 83 305 61.5 c 128,-1,41
 354 40 354 40 416 40 c 0,42,43
 449 40 449 40 471 45 c 128,-1,44
 493 50 493 50 500 58 c 1,45,-1
 547 182 l 1,0,-1
EndSplineSet
Position2: "'cpsp' Capital Spacing lookup 0 subtable" dx=40 dy=0 dh=80 dv=0
EndChar

StartChar: D
Encoding: 68 68 39
Width: 708
Flags: W
LayerCount: 2
Fore
SplineSet
29 0 m 1,0,-1
 29 29 l 1,1,2
 64 45 64 45 111 53 c 1,3,-1
 111 646 l 1,4,5
 88 651 88 651 67 657.5 c 128,-1,6
 46 664 46 664 29 671 c 1,7,-1
 29 700 l 1,8,-1
 131 700 l 2,9,10
 148 700 148 700 171 701 c 128,-1,11
 194 702 194 702 218.5 703.5 c 128,-1,12
 243 705 243 705 265.5 706.5 c 128,-1,13
 288 708 288 708 303 708 c 0,14,15
 473 708 473 708 564.5 617 c 128,-1,16
 656 526 656 526 656 359 c 0,17,18
 656 280 656 280 633.5 212.5 c 128,-1,19
 611 145 611 145 565 96 c 128,-1,20
 519 47 519 47 448.5 19 c 128,-1,21
 378 -9 378 -9 282 -9 c 0,22,23
 267 -9 267 -9 248 -7.5 c 128,-1,24
 229 -6 229 -6 208 -4.5 c 128,-1,25
 187 -3 187 -3 165.5 -1.5 c 128,-1,26
 144 0 144 0 125 0 c 2,27,-1
 29 0 l 1,0,-1
289 656 m 0,28,29
 263 656 263 656 239 655.5 c 128,-1,30
 215 655 215 655 201 652 c 1,31,-1
 201 46 l 1,32,33
 206 45 206 45 219 44.5 c 128,-1,34
 232 44 232 44 247 43.5 c 128,-1,35
 262 43 262 43 275.5 43 c 128,-1,36
 289 43 289 43 295 43 c 0,37,38
 364 43 364 43 412 69 c 128,-1,39
 460 95 460 95 490.5 138.5 c 128,-1,40
 521 182 521 182 535 239 c 128,-1,41
 549 296 549 296 549 359 c 0,42,43
 549 408 549 408 535.5 460.5 c 128,-1,44
 522 513 522 513 491.5 556.5 c 128,-1,45
 461 600 461 600 411 628 c 128,-1,46
 361 656 361 656 289 656 c 0,28,29
EndSplineSet
Position2: "'cpsp' Capital Spacing lookup 0 subtable" dx=40 dy=0 dh=80 dv=0
EndChar

StartChar: E
Encoding: 69 69 40
Width: 582
Flags: W
LayerCount: 2
Fore
SplineSet
503 700 m 1,0,1
 502 660 502 660 499.5 619.5 c 128,-1,2
 497 579 497 579 492 538 c 1,3,-1
 466 538 l 1,4,-1
 425 648 l 1,5,-1
 207 648 l 1,6,-1
 207 383 l 1,7,-1
 370 383 l 1,8,-1
 409 457 l 1,9,-1
 434 457 l 1,10,11
 440 358 440 358 434 255 c 1,12,-1
 409 255 l 1,13,-1
 370 331 l 1,14,-1
 207 331 l 1,15,-1
 207 52 l 1,16,-1
 437 52 l 1,17,-1
 486 172 l 1,18,-1
 511 172 l 1,19,20
 518 130 518 130 521 87 c 128,-1,21
 524 44 524 44 522 0 c 1,22,-1
 29 0 l 1,23,-1
 29 29 l 1,24,25
 64 45 64 45 111 53 c 1,26,-1
 111 646 l 1,27,28
 91 650 91 650 70 656.5 c 128,-1,29
 49 663 49 663 29 671 c 1,30,-1
 29 700 l 1,31,-1
 503 700 l 1,0,1
EndSplineSet
Position2: "'cpsp' Capital Spacing lookup 0 subtable" dx=40 dy=0 dh=80 dv=0
EndChar

StartChar: F
Encoding: 70 70 41
Width: 544
Flags: W
LayerCount: 2
Fore
SplineSet
197 53 m 1,0,1
 241 47 241 47 283 29 c 1,2,-1
 283 0 l 1,3,-1
 29 0 l 1,4,-1
 29 29 l 1,5,6
 46 37 46 37 64 43 c 128,-1,7
 82 49 82 49 101 53 c 1,8,-1
 101 646 l 1,9,10
 79 651 79 651 61 657.5 c 128,-1,11
 43 664 43 664 29 671 c 1,12,-1
 29 700 l 1,13,-1
 498 700 l 1,14,15
 497 661 497 661 494.5 620 c 128,-1,16
 492 579 492 579 487 538 c 1,17,-1
 461 538 l 1,18,-1
 420 648 l 1,19,-1
 197 648 l 1,20,-1
 197 364 l 1,21,-1
 375 364 l 1,22,-1
 411 427 l 1,23,-1
 435 427 l 1,24,25
 440 382 440 382 439.5 336.5 c 128,-1,26
 439 291 439 291 435 245 c 1,27,-1
 411 245 l 1,28,-1
 375 312 l 1,29,-1
 197 312 l 1,30,-1
 197 53 l 1,0,1
EndSplineSet
Position2: "'cpsp' Capital Spacing lookup 0 subtable" dx=40 dy=0 dh=80 dv=0
EndChar

StartChar: G
Encoding: 71 71 42
Width: 688
Flags: W
LayerCount: 2
Fore
SplineSet
609 48 m 1,0,1
 590 37 590 37 564.5 26.5 c 128,-1,2
 539 16 539 16 510.5 7.5 c 128,-1,3
 482 -1 482 -1 453.5 -6.5 c 128,-1,4
 425 -12 425 -12 400 -12 c 0,5,6
 320 -12 320 -12 256 9.5 c 128,-1,7
 192 31 192 31 147 75.5 c 128,-1,8
 102 120 102 120 77.5 188 c 128,-1,9
 53 256 53 256 53 350 c 0,10,11
 53 448 53 448 81.5 517 c 128,-1,12
 110 586 110 586 157.5 629.5 c 128,-1,13
 205 673 205 673 265.5 692.5 c 128,-1,14
 326 712 326 712 389 712 c 0,15,16
 455 712 455 712 500.5 703.5 c 128,-1,17
 546 695 546 695 580 678 c 1,18,19
 580 663 580 663 579 641 c 128,-1,20
 578 619 578 619 576 595 c 128,-1,21
 574 571 574 571 571 547.5 c 128,-1,22
 568 524 568 524 565 506 c 1,23,-1
 539 506 l 1,24,-1
 487 650 l 1,25,26
 476 656 476 656 450 658 c 128,-1,27
 424 660 424 660 399 660 c 0,28,29
 349 660 349 660 304 641.5 c 128,-1,30
 259 623 259 623 225.5 584.5 c 128,-1,31
 192 546 192 546 172 487.5 c 128,-1,32
 152 429 152 429 152 350 c 0,33,34
 152 279 152 279 171.5 222 c 128,-1,35
 191 165 191 165 225.5 124.5 c 128,-1,36
 260 84 260 84 306.5 62 c 128,-1,37
 353 40 353 40 407 40 c 0,38,39
 427 40 427 40 446 44 c 128,-1,40
 465 48 465 48 481 53.5 c 128,-1,41
 497 59 497 59 507.5 65 c 128,-1,42
 518 71 518 71 522 75 c 1,43,-1
 522 277 l 1,44,45
 496 279 496 279 472.5 286 c 128,-1,46
 449 293 449 293 426 301 c 1,47,-1
 426 330 l 1,48,-1
 671 330 l 1,49,-1
 671 301 l 1,50,51
 661 294 661 294 647 288 c 128,-1,52
 633 282 633 282 609 277 c 1,53,-1
 609 48 l 1,0,1
EndSplineSet
Position2: "'cpsp' Capital Spacing lookup 0 subtable" dx=40 dy=0 dh=80 dv=0
EndChar

StartChar: H
Encoding: 72 72 43
Width: 728
Flags: W
LayerCount: 2
Fore
SplineSet
282 0 m 1,0,-1
 29 0 l 1,1,-1
 29 29 l 1,2,3
 69 45 69 45 111 53 c 1,4,-1
 111 646 l 1,5,6
 64 653 64 653 29 671 c 1,7,-1
 29 700 l 1,8,-1
 282 700 l 1,9,-1
 282 671 l 1,10,11
 265 662 265 662 246 656 c 128,-1,12
 227 650 227 650 207 646 c 1,13,-1
 207 385 l 1,14,-1
 521 385 l 1,15,-1
 521 646 l 1,16,17
 500 651 500 651 481.5 657 c 128,-1,18
 463 663 463 663 446 671 c 1,19,-1
 446 700 l 1,20,-1
 699 700 l 1,21,-1
 699 671 l 1,22,23
 681 661 681 661 659.5 655.5 c 128,-1,24
 638 650 638 650 617 646 c 1,25,-1
 617 53 l 1,26,27
 640 49 640 49 661 43 c 128,-1,28
 682 37 682 37 699 29 c 1,29,-1
 699 0 l 1,30,-1
 446 0 l 1,31,-1
 446 29 l 1,32,33
 482 45 482 45 521 53 c 1,34,-1
 521 333 l 1,35,-1
 207 333 l 1,36,-1
 207 53 l 1,37,38
 227 49 227 49 246 43 c 128,-1,39
 265 37 265 37 282 29 c 1,40,-1
 282 0 l 1,0,-1
EndSplineSet
Position2: "'cpsp' Capital Spacing lookup 0 subtable" dx=40 dy=0 dh=80 dv=0
EndChar

StartChar: I
Encoding: 73 73 44
Width: 352
Flags: W
LayerCount: 2
Fore
SplineSet
304 0 m 1,0,-1
 48 0 l 1,1,-1
 48 29 l 1,2,3
 87 47 87 47 128 53 c 1,4,-1
 128 646 l 1,5,6
 108 650 108 650 88 656.5 c 128,-1,7
 68 663 68 663 48 671 c 1,8,-1
 48 700 l 1,9,-1
 304 700 l 1,10,-1
 304 671 l 1,11,12
 286 663 286 663 265 656.5 c 128,-1,13
 244 650 244 650 224 646 c 1,14,-1
 224 53 l 1,15,16
 245 49 245 49 266 43 c 128,-1,17
 287 37 287 37 304 29 c 1,18,-1
 304 0 l 1,0,-1
EndSplineSet
Position2: "'cpsp' Capital Spacing lookup 0 subtable" dx=40 dy=0 dh=80 dv=0
EndChar

StartChar: J
Encoding: 74 74 45
Width: 341
Flags: W
LayerCount: 2
Fore
SplineSet
39 700 m 1,0,-1
 293 700 l 1,1,-1
 293 671 l 1,2,3
 275 663 275 663 256 656.5 c 128,-1,4
 237 650 237 650 217 646 c 1,5,-1
 217 86 l 2,6,7
 217 16 217 16 201 -29 c 128,-1,8
 185 -74 185 -74 161.5 -101.5 c 128,-1,9
 138 -129 138 -129 111.5 -142 c 128,-1,10
 85 -155 85 -155 63 -160 c 1,11,-1
 52 -145 l 1,12,13
 67 -132 67 -132 79.5 -115.5 c 128,-1,14
 92 -99 92 -99 101.5 -74 c 128,-1,15
 111 -49 111 -49 116 -13 c 128,-1,16
 121 23 121 23 121 75 c 2,17,-1
 121 646 l 1,18,19
 99 651 99 651 78 657 c 128,-1,20
 57 663 57 663 39 671 c 1,21,-1
 39 700 l 1,0,-1
EndSplineSet
Position2: "'cpsp' Capital Spacing lookup 0 subtable" dx=40 dy=0 dh=80 dv=0
EndChar

StartChar: K
Encoding: 75 75 46
Width: 646
Flags: W
LayerCount: 2
Fore
SplineSet
382 700 m 1,0,-1
 603 700 l 1,1,-1
 603 671 l 1,2,3
 583 662 583 662 564 656 c 128,-1,4
 545 650 545 650 527 646 c 1,5,-1
 326 380 l 1,6,7
 351 347 351 347 383.5 306 c 128,-1,8
 416 265 416 265 451.5 221.5 c 128,-1,9
 487 178 487 178 524.5 133.5 c 128,-1,10
 562 89 562 89 598 49 c 1,11,-1
 646 25 l 1,12,-1
 646 0 l 1,13,-1
 521 0 l 1,14,-1
 487 24 l 1,15,16
 428 93 428 93 369.5 173 c 128,-1,17
 311 253 311 253 256 335 c 1,18,-1
 207 335 l 1,19,-1
 207 53 l 1,20,21
 253 45 253 45 282 29 c 1,22,-1
 282 0 l 1,23,-1
 29 0 l 1,24,-1
 29 29 l 1,25,26
 69 45 69 45 111 53 c 1,27,-1
 111 646 l 1,28,29
 66 652 66 652 29 671 c 1,30,-1
 29 700 l 1,31,-1
 282 700 l 1,32,-1
 282 671 l 1,33,34
 266 664 266 664 247 657.5 c 128,-1,35
 228 651 228 651 207 646 c 1,36,-1
 207 369 l 1,37,-1
 267 383 l 1,38,-1
 454 646 l 1,39,40
 434 651 434 651 416 657 c 128,-1,41
 398 663 398 663 382 671 c 1,42,-1
 382 700 l 1,0,-1
EndSplineSet
Position2: "'cpsp' Capital Spacing lookup 0 subtable" dx=40 dy=0 dh=80 dv=0
EndChar

StartChar: L
Encoding: 76 76 47
Width: 549
Flags: W
LayerCount: 2
Fore
SplineSet
29 700 m 1,0,-1
 303 700 l 1,1,-1
 303 671 l 1,2,3
 279 662 279 662 255 655.5 c 128,-1,4
 231 649 231 649 207 646 c 1,5,-1
 207 52 l 1,6,-1
 437 52 l 1,7,-1
 496 213 l 1,8,-1
 522 213 l 1,9,10
 525 192 525 192 527.5 164.5 c 128,-1,11
 530 137 530 137 531.5 107.5 c 128,-1,12
 533 78 533 78 533 50 c 128,-1,13
 533 22 533 22 532 0 c 1,14,-1
 29 0 l 1,15,-1
 29 29 l 1,16,17
 53 40 53 40 73 45 c 128,-1,18
 93 50 93 50 111 53 c 1,19,-1
 111 646 l 1,20,21
 88 650 88 650 67 656.5 c 128,-1,22
 46 663 46 663 29 671 c 1,23,-1
 29 700 l 1,0,-1
EndSplineSet
Position2: "'cpsp' Capital Spacing lookup 0 subtable" dx=40 dy=0 dh=80 dv=0
EndChar

StartChar: M
Encoding: 77 77 48
Width: 867
Flags: W
LayerCount: 2
Fore
SplineSet
837 0 m 1,0,-1
 589 0 l 1,1,-1
 589 29 l 1,2,3
 609 37 609 37 629 42.5 c 128,-1,4
 649 48 649 48 670 53 c 1,5,-1
 670 503 l 1,6,-1
 674 620 l 1,7,-1
 666 620 l 1,8,-1
 633 513 l 1,9,-1
 428 0 l 1,10,-1
 402 0 l 1,11,-1
 207 513 l 1,12,-1
 171 630 l 1,13,-1
 162 630 l 1,14,-1
 163 503 l 1,15,-1
 163 53 l 1,16,17
 182 49 182 49 201 43 c 128,-1,18
 220 37 220 37 239 29 c 1,19,-1
 239 0 l 1,20,-1
 30 0 l 1,21,-1
 30 29 l 1,22,23
 49 37 49 37 69.5 43.5 c 128,-1,24
 90 50 90 50 111 54 c 1,25,-1
 111 646 l 1,26,27
 90 650 90 650 69.5 656.5 c 128,-1,28
 49 663 49 663 29 671 c 1,29,-1
 29 700 l 1,30,-1
 234 700 l 1,31,-1
 408 243 l 1,32,-1
 442 140 l 1,33,-1
 443 140 l 1,34,-1
 477 245 l 1,35,-1
 657 700 l 1,36,-1
 838 700 l 1,37,-1
 838 671 l 1,38,39
 820 663 820 663 801 656.5 c 128,-1,40
 782 650 782 650 762 646 c 1,41,-1
 762 52 l 1,42,43
 783 48 783 48 801.5 42.5 c 128,-1,44
 820 37 820 37 837 29 c 1,45,-1
 837 0 l 1,0,-1
EndSplineSet
Position2: "'cpsp' Capital Spacing lookup 0 subtable" dx=40 dy=0 dh=80 dv=0
EndChar

StartChar: N
Encoding: 78 78 49
Width: 732
Flags: W
LayerCount: 2
Fore
SplineSet
487 700 m 1,0,-1
 703 700 l 1,1,-1
 703 671 l 1,2,3
 661 643 661 643 621 631 c 1,4,-1
 621 -12 l 1,5,-1
 564 -12 l 1,6,-1
 201 539 l 1,7,-1
 162 617 l 1,8,-1
 159 617 l 1,9,-1
 168 539 l 1,10,-1
 168 64 l 1,11,12
 209 53 209 53 245 29 c 1,13,-1
 245 0 l 1,14,-1
 29 0 l 1,15,-1
 29 29 l 1,16,17
 47 40 47 40 67.5 48.5 c 128,-1,18
 88 57 88 57 111 64 c 1,19,-1
 111 637 l 1,20,21
 91 645 91 645 71.5 654 c 128,-1,22
 52 663 52 663 35 672 c 1,23,-1
 35 700 l 1,24,-1
 204 700 l 1,25,-1
 519 225 l 1,26,-1
 565 139 l 1,27,-1
 569 139 l 1,28,-1
 564 225 l 1,29,-1
 564 631 l 1,30,31
 543 640 543 640 523.5 650 c 128,-1,32
 504 660 504 660 487 671 c 1,33,-1
 487 700 l 1,0,-1
EndSplineSet
Position2: "'cpsp' Capital Spacing lookup 0 subtable" dx=40 dy=0 dh=80 dv=0
EndChar

StartChar: O
Encoding: 79 79 50
Width: 740
Flags: W
LayerCount: 2
Fore
SplineSet
53 350 m 256,0,1
 53 428 53 428 74.5 494.5 c 128,-1,2
 96 561 96 561 136.5 609.5 c 128,-1,3
 177 658 177 658 236 685 c 128,-1,4
 295 712 295 712 370 712 c 256,5,6
 445 712 445 712 504 685 c 128,-1,7
 563 658 563 658 603.5 609.5 c 128,-1,8
 644 561 644 561 665.5 494.5 c 128,-1,9
 687 428 687 428 687 350 c 256,10,11
 687 272 687 272 665.5 205.5 c 128,-1,12
 644 139 644 139 603.5 90.5 c 128,-1,13
 563 42 563 42 504 15 c 128,-1,14
 445 -12 445 -12 370 -12 c 256,15,16
 295 -12 295 -12 236 15 c 128,-1,17
 177 42 177 42 136.5 90.5 c 128,-1,18
 96 139 96 139 74.5 205.5 c 128,-1,19
 53 272 53 272 53 350 c 256,0,1
160 350 m 256,20,21
 160 286 160 286 173.5 229.5 c 128,-1,22
 187 173 187 173 214 131 c 128,-1,23
 241 89 241 89 282 64.5 c 128,-1,24
 323 40 323 40 379 40 c 0,25,26
 430 40 430 40 468 64.5 c 128,-1,27
 506 89 506 89 530.5 131 c 128,-1,28
 555 173 555 173 567.5 229.5 c 128,-1,29
 580 286 580 286 580 350 c 256,30,31
 580 414 580 414 567 470.5 c 128,-1,32
 554 527 554 527 527 569 c 128,-1,33
 500 611 500 611 459 635.5 c 128,-1,34
 418 660 418 660 362 660 c 0,35,36
 307 660 307 660 268.5 635.5 c 128,-1,37
 230 611 230 611 206 569 c 128,-1,38
 182 527 182 527 171 470.5 c 128,-1,39
 160 414 160 414 160 350 c 256,20,21
EndSplineSet
Position2: "'cpsp' Capital Spacing lookup 0 subtable" dx=40 dy=0 dh=80 dv=0
EndChar

StartChar: P
Encoding: 80 80 51
Width: 596
Flags: W
LayerCount: 2
Fore
SplineSet
207 53 m 1,0,1
 234 50 234 50 258 43.5 c 128,-1,2
 282 37 282 37 303 29 c 1,3,-1
 303 0 l 1,4,-1
 29 0 l 1,5,-1
 29 29 l 1,6,7
 49 39 49 39 70 44 c 128,-1,8
 91 49 91 49 111 53 c 1,9,-1
 111 646 l 1,10,11
 88 650 88 650 68 656.5 c 128,-1,12
 48 663 48 663 29 671 c 1,13,-1
 29 700 l 1,14,-1
 119 700 l 2,15,16
 159 700 159 700 206 704 c 128,-1,17
 253 708 253 708 296 708 c 0,18,19
 345 708 345 708 392 697.5 c 128,-1,20
 439 687 439 687 475.5 662 c 128,-1,21
 512 637 512 637 534.5 595.5 c 128,-1,22
 557 554 557 554 557 492 c 0,23,24
 557 433 557 433 534 391 c 128,-1,25
 511 349 511 349 472.5 322 c 128,-1,26
 434 295 434 295 385 282.5 c 128,-1,27
 336 270 336 270 284 270 c 0,28,29
 279 270 279 270 268.5 270 c 128,-1,30
 258 270 258 270 246 270.5 c 128,-1,31
 234 271 234 271 223 272 c 128,-1,32
 212 273 212 273 207 274 c 1,33,-1
 207 53 l 1,0,1
275 656 m 0,34,35
 251 656 251 656 236 655 c 128,-1,36
 221 654 221 654 207 651 c 1,37,-1
 207 327 l 1,38,39
 212 325 212 325 221.5 324.5 c 128,-1,40
 231 324 231 324 241.5 323 c 128,-1,41
 252 322 252 322 262 322 c 128,-1,42
 272 322 272 322 278 322 c 0,43,44
 313 322 313 322 344 331.5 c 128,-1,45
 375 341 375 341 398.5 362 c 128,-1,46
 422 383 422 383 436 415 c 128,-1,47
 450 447 450 447 450 492 c 0,48,49
 450 574 450 574 403.5 615 c 128,-1,50
 357 656 357 656 275 656 c 0,34,35
EndSplineSet
Position2: "'cpsp' Capital Spacing lookup 0 subtable" dx=40 dy=0 dh=80 dv=0
EndChar

StartChar: Q
Encoding: 81 81 52
Width: 740
Flags: W
LayerCount: 2
Fore
SplineSet
760 -115 m 1,0,1
 720 -151 720 -151 678 -176.5 c 128,-1,2
 636 -202 636 -202 588 -201 c 0,3,4
 547 -201 547 -201 502 -186 c 128,-1,5
 457 -171 457 -171 406 -150 c 128,-1,6
 355 -129 355 -129 297.5 -106 c 128,-1,7
 240 -83 240 -83 173 -66 c 1,8,-1
 203 -46 l 1,9,10
 225 -43 225 -43 246 -43 c 0,11,12
 296 -43 296 -43 344.5 -55 c 128,-1,13
 393 -67 393 -67 442 -81 c 128,-1,14
 491 -95 491 -95 541 -107 c 128,-1,15
 591 -119 591 -119 643 -119 c 0,16,17
 670 -119 670 -119 698 -115 c 128,-1,18
 726 -111 726 -111 755 -101 c 1,19,-1
 760 -115 l 1,0,1
53 350 m 256,20,21
 53 428 53 428 74.5 494.5 c 128,-1,22
 96 561 96 561 136.5 609.5 c 128,-1,23
 177 658 177 658 236 685 c 128,-1,24
 295 712 295 712 370 712 c 256,25,26
 445 712 445 712 504 685 c 128,-1,27
 563 658 563 658 603.5 609.5 c 128,-1,28
 644 561 644 561 665.5 494.5 c 128,-1,29
 687 428 687 428 687 350 c 256,30,31
 687 272 687 272 665.5 205.5 c 128,-1,32
 644 139 644 139 603.5 90.5 c 128,-1,33
 563 42 563 42 504 15 c 128,-1,34
 445 -12 445 -12 370 -12 c 256,35,36
 295 -12 295 -12 236 15 c 128,-1,37
 177 42 177 42 136.5 90.5 c 128,-1,38
 96 139 96 139 74.5 205.5 c 128,-1,39
 53 272 53 272 53 350 c 256,20,21
160 350 m 256,40,41
 160 286 160 286 173.5 229.5 c 128,-1,42
 187 173 187 173 214 131 c 128,-1,43
 241 89 241 89 282 64.5 c 128,-1,44
 323 40 323 40 379 40 c 0,45,46
 430 40 430 40 468 64.5 c 128,-1,47
 506 89 506 89 530.5 131 c 128,-1,48
 555 173 555 173 567.5 229.5 c 128,-1,49
 580 286 580 286 580 350 c 256,50,51
 580 414 580 414 567 470.5 c 128,-1,52
 554 527 554 527 527 569 c 128,-1,53
 500 611 500 611 459 635.5 c 128,-1,54
 418 660 418 660 362 660 c 0,55,56
 307 660 307 660 268.5 635.5 c 128,-1,57
 230 611 230 611 206 569 c 128,-1,58
 182 527 182 527 171 470.5 c 128,-1,59
 160 414 160 414 160 350 c 256,40,41
EndSplineSet
Position2: "'cpsp' Capital Spacing lookup 0 subtable" dx=40 dy=0 dh=80 dv=0
EndChar

StartChar: R
Encoding: 82 82 53
Width: 637
Flags: W
LayerCount: 2
Fore
SplineSet
207 53 m 1,0,1
 230 48 230 48 251 42.5 c 128,-1,2
 272 37 272 37 292 29 c 1,3,-1
 292 0 l 1,4,-1
 29 0 l 1,5,-1
 29 29 l 1,6,7
 51 39 51 39 71 44 c 128,-1,8
 91 49 91 49 111 53 c 1,9,-1
 111 646 l 1,10,11
 85 651 85 651 65 657.5 c 128,-1,12
 45 664 45 664 29 671 c 1,13,-1
 29 700 l 1,14,-1
 117 700 l 2,15,16
 157 700 157 700 204.5 704 c 128,-1,17
 252 708 252 708 297 708 c 0,18,19
 346 708 346 708 388.5 697 c 128,-1,20
 431 686 431 686 462 662 c 128,-1,21
 493 638 493 638 510.5 601 c 128,-1,22
 528 564 528 564 528 512 c 0,23,24
 528 439 528 439 489.5 391 c 128,-1,25
 451 343 451 343 385 322 c 1,26,27
 428 254 428 254 475 187 c 128,-1,28
 522 120 522 120 573 54 c 1,29,-1
 627 25 l 1,30,-1
 627 0 l 1,31,-1
 506 0 l 1,32,-1
 468 28 l 1,33,34
 440 63 440 63 417 96.5 c 128,-1,35
 394 130 394 130 374 164.5 c 128,-1,36
 354 199 354 199 336.5 234.5 c 128,-1,37
 319 270 319 270 301 310 c 1,38,-1
 207 310 l 1,39,-1
 207 53 l 1,0,1
275 656 m 0,40,41
 251 656 251 656 235.5 655 c 128,-1,42
 220 654 220 654 207 651 c 1,43,-1
 207 352 l 1,44,-1
 279 352 l 2,45,46
 348 352 348 352 388.5 396 c 128,-1,47
 429 440 429 440 429 512 c 0,48,49
 429 586 429 586 386 621 c 128,-1,50
 343 656 343 656 275 656 c 0,40,41
EndSplineSet
Position2: "'cpsp' Capital Spacing lookup 0 subtable" dx=40 dy=0 dh=80 dv=0
EndChar

StartChar: S
Encoding: 83 83 54
Width: 536
Flags: W
LayerCount: 2
Fore
SplineSet
150 69 m 1,0,1
 162 57 162 57 181 48.5 c 128,-1,2
 200 40 200 40 238 40 c 0,3,4
 270 40 270 40 298 48.5 c 128,-1,5
 326 57 326 57 346.5 73.5 c 128,-1,6
 367 90 367 90 379 113.5 c 128,-1,7
 391 137 391 137 391 167 c 0,8,9
 391 207 391 207 366.5 234 c 128,-1,10
 342 261 342 261 305.5 282 c 128,-1,11
 269 303 269 303 226 323 c 128,-1,12
 183 343 183 343 146.5 370.5 c 128,-1,13
 110 398 110 398 85.5 436.5 c 128,-1,14
 61 475 61 475 61 533 c 0,15,16
 61 575 61 575 76 608 c 128,-1,17
 91 641 91 641 118.5 664 c 128,-1,18
 146 687 146 687 184 699.5 c 128,-1,19
 222 712 222 712 269 712 c 0,20,21
 330 712 330 712 380.5 702.5 c 128,-1,22
 431 693 431 693 460 679 c 1,23,24
 460 662 460 662 457.5 639.5 c 128,-1,25
 455 617 455 617 451.5 593 c 128,-1,26
 448 569 448 569 444 546.5 c 128,-1,27
 440 524 440 524 436 507 c 1,28,-1
 410 507 l 1,29,-1
 370 644 l 1,30,31
 352 652 352 652 324.5 656 c 128,-1,32
 297 660 297 660 266 660 c 0,33,34
 215 660 215 660 184 631.5 c 128,-1,35
 153 603 153 603 153 552 c 0,36,37
 153 511 153 511 177.5 483 c 128,-1,38
 202 455 202 455 239 433 c 128,-1,39
 276 411 276 411 318.5 390.5 c 128,-1,40
 361 370 361 370 398 343 c 128,-1,41
 435 316 435 316 459.5 279 c 128,-1,42
 484 242 484 242 484 187 c 0,43,44
 484 142 484 142 467.5 105 c 128,-1,45
 451 68 451 68 420 42 c 128,-1,46
 389 16 389 16 344 2 c 128,-1,47
 299 -12 299 -12 242 -12 c 0,48,49
 179 -12 179 -12 129 3 c 128,-1,50
 79 18 79 18 58 35 c 1,51,52
 59 52 59 52 61.5 76 c 128,-1,53
 64 100 64 100 67.5 125.5 c 128,-1,54
 71 151 71 151 75 175 c 128,-1,55
 79 199 79 199 83 216 c 1,56,-1
 109 216 l 1,57,-1
 150 69 l 1,0,1
EndSplineSet
Position2: "'cpsp' Capital Spacing lookup 0 subtable" dx=40 dy=0 dh=80 dv=0
EndChar

StartChar: T
Encoding: 84 84 55
Width: 619
Flags: W
LayerCount: 2
Fore
SplineSet
450 0 m 1,0,-1
 169 0 l 1,1,-1
 169 29 l 1,2,3
 191 37 191 37 213.5 43 c 128,-1,4
 236 49 236 49 262 53 c 1,5,-1
 262 648 l 1,6,-1
 109 648 l 1,7,-1
 56 505 l 1,8,-1
 31 505 l 1,9,10
 28 525 28 525 26 550.5 c 128,-1,11
 24 576 24 576 22.5 602.5 c 128,-1,12
 21 629 21 629 20 654.5 c 128,-1,13
 19 680 19 680 19 700 c 1,14,-1
 600 700 l 1,15,16
 600 680 600 680 599 655 c 128,-1,17
 598 630 598 630 596.5 603.5 c 128,-1,18
 595 577 595 577 593.5 551.5 c 128,-1,19
 592 526 592 526 589 505 c 1,20,-1
 563 505 l 1,21,-1
 511 648 l 1,22,-1
 358 648 l 1,23,-1
 358 53 l 1,24,25
 384 48 384 48 406.5 43 c 128,-1,26
 429 38 429 38 450 29 c 1,27,-1
 450 0 l 1,0,-1
EndSplineSet
Position2: "'cpsp' Capital Spacing lookup 0 subtable" dx=40 dy=0 dh=80 dv=0
EndChar

StartChar: U
Encoding: 85 85 56
Width: 672
Flags: W
LayerCount: 2
Fore
SplineSet
10 700 m 1,0,-1
 264 700 l 1,1,-1
 264 671 l 1,2,3
 245 663 245 663 226 657 c 128,-1,4
 207 651 207 651 188 646 c 1,5,-1
 188 237 l 2,6,7
 188 184 188 184 199.5 148.5 c 128,-1,8
 211 113 211 113 233 91.5 c 128,-1,9
 255 70 255 70 287.5 60.5 c 128,-1,10
 320 51 320 51 361 51 c 0,11,12
 440 51 440 51 484 94.5 c 128,-1,13
 528 138 528 138 528 238 c 2,14,-1
 528 637 l 1,15,16
 505 645 505 645 485 653.5 c 128,-1,17
 465 662 465 662 449 671 c 1,18,-1
 449 700 l 1,19,-1
 662 700 l 1,20,-1
 662 671 l 1,21,22
 643 660 643 660 623.5 651 c 128,-1,23
 604 642 604 642 584 637 c 1,24,-1
 584 236 l 2,25,26
 584 172 584 172 567 126 c 128,-1,27
 550 80 550 80 519.5 50 c 128,-1,28
 489 20 489 20 445.5 5.5 c 128,-1,29
 402 -9 402 -9 349 -9 c 0,30,31
 224 -9 224 -9 158 47.5 c 128,-1,32
 92 104 92 104 92 221 c 2,33,-1
 92 646 l 1,34,35
 51 652 51 652 10 671 c 1,36,-1
 10 700 l 1,0,-1
EndSplineSet
Position2: "'cpsp' Capital Spacing lookup 0 subtable" dx=40 dy=0 dh=80 dv=0
EndChar

StartChar: V
Encoding: 86 86 57
Width: 684
Flags: W
LayerCount: 2
Fore
SplineSet
545 646 m 1,0,1
 521 651 521 651 500 657.5 c 128,-1,2
 479 664 479 664 459 671 c 1,3,-1
 459 700 l 1,4,-1
 684 700 l 1,5,-1
 684 671 l 1,6,7
 655 655 655 655 612 646 c 1,8,-1
 386 0 l 1,9,-1
 331 -12 l 1,10,-1
 76 646 l 1,11,12
 56 651 56 651 37 657.5 c 128,-1,13
 18 664 18 664 0 671 c 1,14,-1
 0 700 l 1,15,-1
 265 700 l 1,16,-1
 265 671 l 1,17,18
 248 664 248 664 227 657.5 c 128,-1,19
 206 651 206 651 183 646 c 1,20,-1
 354 189 l 1,21,-1
 375 109 l 1,22,-1
 377 109 l 1,23,-1
 397 191 l 1,24,-1
 545 646 l 1,0,1
EndSplineSet
Position2: "'cpsp' Capital Spacing lookup 0 subtable" dx=40 dy=0 dh=80 dv=0
EndChar

StartChar: W
Encoding: 87 87 58
Width: 934
Flags: W
LayerCount: 2
Fore
SplineSet
796 646 m 1,0,1
 775 649 775 649 754 655.5 c 128,-1,2
 733 662 733 662 710 671 c 1,3,-1
 710 700 l 1,4,-1
 934 700 l 1,5,-1
 934 671 l 1,6,7
 900 656 900 656 862 646 c 1,8,-1
 695 0 l 1,9,-1
 633 -12 l 1,10,-1
 472 532 l 1,11,-1
 314 0 l 1,12,-1
 253 -12 l 1,13,-1
 76 646 l 1,14,15
 56 651 56 651 37 657 c 128,-1,16
 18 663 18 663 0 671 c 1,17,-1
 0 700 l 1,18,-1
 260 700 l 1,19,-1
 260 671 l 1,20,21
 241 664 241 664 221 657.5 c 128,-1,22
 201 651 201 651 178 646 c 1,23,-1
 277 243 l 1,24,-1
 299 113 l 1,25,-1
 301 113 l 1,26,-1
 336 245 l 1,27,-1
 471 700 l 1,28,-1
 505 700 l 1,29,-1
 650 245 l 1,30,-1
 679 115 l 1,31,-1
 681 115 l 1,32,-1
 704 247 l 1,33,-1
 796 646 l 1,0,1
EndSplineSet
Position2: "'cpsp' Capital Spacing lookup 0 subtable" dx=40 dy=0 dh=80 dv=0
EndChar

StartChar: X
Encoding: 88 88 59
Width: 670
Flags: W
LayerCount: 2
Fore
SplineSet
395 700 m 1,0,-1
 625 700 l 1,1,-1
 625 671 l 1,2,3
 608 664 608 664 589 657.5 c 128,-1,4
 570 651 570 651 550 646 c 1,5,-1
 374 375 l 1,6,-1
 579 53 l 1,7,8
 627 45 627 45 661 29 c 1,9,-1
 661 0 l 1,10,-1
 395 0 l 1,11,-1
 395 29 l 1,12,13
 431 47 431 47 471 53 c 1,14,-1
 313 304 l 1,15,-1
 161 52 l 1,16,17
 182 49 182 49 202 44.5 c 128,-1,18
 222 40 222 40 241 29 c 1,19,-1
 241 0 l 1,20,-1
 10 0 l 1,21,-1
 10 29 l 1,22,23
 29 39 29 39 47.5 44 c 128,-1,24
 66 49 66 49 84 53 c 1,25,-1
 280 352 l 1,26,-1
 92 646 l 1,27,28
 72 652 72 652 52.5 658 c 128,-1,29
 33 664 33 664 13 671 c 1,30,-1
 13 700 l 1,31,-1
 278 700 l 1,32,-1
 278 671 l 1,33,34
 263 665 263 665 244.5 659 c 128,-1,35
 226 653 226 653 202 646 c 1,36,-1
 342 420 l 1,37,-1
 478 646 l 1,38,39
 437 655 437 655 395 671 c 1,40,-1
 395 700 l 1,0,-1
EndSplineSet
Position2: "'cpsp' Capital Spacing lookup 0 subtable" dx=40 dy=0 dh=80 dv=0
EndChar

StartChar: Y
Encoding: 89 89 60
Width: 644
Flags: W
LayerCount: 2
Fore
SplineSet
424 700 m 1,0,-1
 644 700 l 1,1,-1
 644 671 l 1,2,3
 606 652 606 652 568 646 c 1,4,-1
 379 298 l 1,5,-1
 379 53 l 1,6,7
 418 48 418 48 455 29 c 1,8,-1
 455 0 l 1,9,-1
 201 0 l 1,10,-1
 201 29 l 1,11,12
 237 47 237 47 283 53 c 1,13,-1
 283 297 l 1,14,-1
 81 646 l 1,15,16
 58 650 58 650 38.5 656.5 c 128,-1,17
 19 663 19 663 0 671 c 1,18,-1
 0 700 l 1,19,-1
 265 700 l 1,20,-1
 265 671 l 1,21,22
 250 665 250 665 231 658.5 c 128,-1,23
 212 652 212 652 188 646 c 1,24,-1
 352 352 l 1,25,-1
 506 646 l 1,26,27
 483 651 483 651 462.5 657.5 c 128,-1,28
 442 664 442 664 424 671 c 1,29,-1
 424 700 l 1,0,-1
EndSplineSet
Position2: "'cpsp' Capital Spacing lookup 0 subtable" dx=40 dy=0 dh=80 dv=0
EndChar

StartChar: Z
Encoding: 90 90 61
Width: 610
Flags: W
LayerCount: 2
Fore
SplineSet
533 192 m 1,0,-1
 559 192 l 1,1,2
 562 172 562 172 564.5 147 c 128,-1,3
 567 122 567 122 568.5 96 c 128,-1,4
 570 70 570 70 570.5 45 c 128,-1,5
 571 20 571 20 570 0 c 1,6,-1
 39 0 l 1,7,-1
 39 51 l 1,8,-1
 455 648 l 1,9,-1
 147 648 l 1,10,-1
 86 508 l 1,11,-1
 61 508 l 1,12,13
 58 529 58 529 55.5 554 c 128,-1,14
 53 579 53 579 51.5 605 c 128,-1,15
 50 631 50 631 49.5 655.5 c 128,-1,16
 49 680 49 680 49 700 c 1,17,-1
 560 700 l 1,18,-1
 560 648 l 1,19,-1
 146 52 l 1,20,-1
 472 52 l 1,21,-1
 533 192 l 1,0,-1
EndSplineSet
Position2: "'cpsp' Capital Spacing lookup 0 subtable" dx=40 dy=0 dh=80 dv=0
EndChar

StartChar: bracketleft
Encoding: 91 91 62
Width: 307
Flags: W
LayerCount: 2
Fore
SplineSet
83 700 m 1,0,-1
 272 700 l 1,1,-1
 272 658 l 1,2,-1
 168 658 l 1,3,-1
 168 -189 l 1,4,-1
 272 -189 l 1,5,-1
 272 -230 l 1,6,-1
 83 -230 l 1,7,-1
 83 700 l 1,0,-1
EndSplineSet
Position2: "'case' Case-Sensitive Forms lookup 1 per glyph data 3" dx=0 dy=100 dh=0 dv=0
EndChar

StartChar: bracketright
Encoding: 93 93 64
Width: 307
Flags: W
LayerCount: 2
Fore
SplineSet
224 -230 m 1,0,-1
 35 -230 l 1,1,-1
 35 -189 l 1,2,-1
 139 -189 l 1,3,-1
 139 658 l 1,4,-1
 35 658 l 1,5,-1
 35 700 l 1,6,-1
 224 700 l 1,7,-1
 224 -230 l 1,0,-1
EndSplineSet
Position2: "'case' Case-Sensitive Forms lookup 1 per glyph data 3" dx=0 dy=100 dh=0 dv=0
EndChar

StartChar: asciicircum
Encoding: 94 94 65
Width: 500
Flags: W
LayerCount: 2
Fore
SplineSet
233 711 m 1,0,-1
 265 711 l 1,1,-1
 435 434 l 1,2,-1
 347 434 l 1,3,-1
 259 585 l 1,4,-1
 235 652 l 1,5,-1
 203 584 l 1,6,-1
 103 434 l 1,7,-1
 47 434 l 1,8,-1
 233 711 l 1,0,-1
EndSplineSet
EndChar

StartChar: underscore
Encoding: 95 95 66
Width: 410
Flags: W
LayerCount: 2
Fore
SplineSet
0 -143 m 1,0,-1
 410 -143 l 1,1,-1
 410 -196 l 1,2,-1
 0 -196 l 1,3,-1
 0 -143 l 1,0,-1
EndSplineSet
EndChar

StartChar: grave
Encoding: 96 96 67
Width: 328
Flags: W
LayerCount: 2
Fore
SplineSet
268 593 m 1,0,-1
 246 576 l 1,1,-1
 60 725 l 1,2,-1
 60 745 l 1,3,4
 66 750 66 750 79.5 754.5 c 128,-1,5
 93 759 93 759 109 762 c 128,-1,6
 125 765 125 765 139.5 766.5 c 128,-1,7
 154 768 154 768 162 767 c 1,8,-1
 268 593 l 1,0,-1
EndSplineSet
EndChar

StartChar: a
Encoding: 97 97 68
Width: 505
Flags: W
LayerCount: 2
Fore
SplineSet
410 131 m 0,0,1
 410 109 410 109 411 93 c 128,-1,2
 412 77 412 77 413 59 c 1,3,-1
 482 49 l 1,4,-1
 482 28 l 1,5,6
 457 15 457 15 426.5 5 c 128,-1,7
 396 -5 396 -5 368 -10 c 1,8,-1
 343 -10 l 1,9,10
 333 13 333 13 331 40.5 c 128,-1,11
 329 68 329 68 328 101 c 1,12,-1
 323 101 l 1,13,14
 319 81 319 81 307.5 60.5 c 128,-1,15
 296 40 296 40 277.5 24 c 128,-1,16
 259 8 259 8 234 -2 c 128,-1,17
 209 -12 209 -12 177 -12 c 0,18,19
 116 -12 116 -12 77.5 25 c 128,-1,20
 39 62 39 62 39 122 c 0,21,22
 39 168 39 168 57.5 197.5 c 128,-1,23
 76 227 76 227 112 244 c 128,-1,24
 148 261 148 261 201 268.5 c 128,-1,25
 254 276 254 276 324 280 c 1,26,27
 328 323 328 323 326.5 357.5 c 128,-1,28
 325 392 325 392 315.5 416.5 c 128,-1,29
 306 441 306 441 287.5 454.5 c 128,-1,30
 269 468 269 468 239 468 c 0,31,32
 225 468 225 468 207.5 466.5 c 128,-1,33
 190 465 190 465 173 458 c 1,34,-1
 126 338 l 1,35,-1
 100 338 l 1,36,37
 90 368 90 368 82.5 400 c 128,-1,38
 75 432 75 432 73 463 c 1,39,40
 111 486 111 486 157.5 499 c 128,-1,41
 204 512 204 512 261 512 c 0,42,43
 312 512 312 512 342.5 497.5 c 128,-1,44
 373 483 373 483 389 460 c 128,-1,45
 405 437 405 437 410 409 c 128,-1,46
 415 381 415 381 415 353 c 0,47,48
 415 293 415 293 412.5 237.5 c 128,-1,49
 410 182 410 182 410 131 c 0,0,1
217 50 m 0,50,51
 242 50 242 50 261 60 c 128,-1,52
 280 70 280 70 293 84 c 128,-1,53
 306 98 306 98 314 112.5 c 128,-1,54
 322 127 322 127 325 137 c 1,55,-1
 325 242 l 1,56,57
 267 242 267 242 230 236 c 128,-1,58
 193 230 193 230 172 217 c 128,-1,59
 151 204 151 204 143 184.5 c 128,-1,60
 135 165 135 165 135 140 c 0,61,62
 135 97 135 97 157 73.5 c 128,-1,63
 179 50 179 50 217 50 c 0,50,51
EndSplineSet
Substitution2: "Single Substitution lookup 17 subtable" ordfeminine
EndChar

StartChar: b
Encoding: 98 98 69
Width: 545
Flags: W
LayerCount: 2
Fore
SplineSet
77 682 m 1,0,-1
 1 690 l 1,1,-1
 1 716 l 1,2,3
 32 729 32 729 70.5 737 c 128,-1,4
 109 745 109 745 142 752 c 1,5,-1
 167 752 l 1,6,-1
 167 401 l 1,7,-1
 169 401 l 1,8,9
 186 452 186 452 226.5 482 c 128,-1,10
 267 512 267 512 316 512 c 0,11,12
 407 512 407 512 455.5 450 c 128,-1,13
 504 388 504 388 504 259 c 0,14,15
 504 127 504 127 437.5 59 c 128,-1,16
 371 -9 371 -9 246 -9 c 0,17,18
 221 -9 221 -9 196 -5.5 c 128,-1,19
 171 -2 171 -2 148 3 c 128,-1,20
 125 8 125 8 106.5 15 c 128,-1,21
 88 22 88 22 77 29 c 1,22,-1
 77 682 l 1,0,-1
289 450 m 0,23,24
 241 450 241 450 211 417.5 c 128,-1,25
 181 385 181 385 167 335 c 1,26,-1
 167 56 l 1,27,28
 185 46 185 46 211 40.5 c 128,-1,29
 237 35 237 35 266 35 c 0,30,31
 332 35 332 35 370 92.5 c 128,-1,32
 408 150 408 150 408 259 c 0,33,34
 408 298 408 298 401.5 333 c 128,-1,35
 395 368 395 368 380.5 394 c 128,-1,36
 366 420 366 420 343.5 435 c 128,-1,37
 321 450 321 450 289 450 c 0,23,24
EndSplineSet
EndChar

StartChar: c
Encoding: 99 99 70
Width: 466
Flags: W
LayerCount: 2
Fore
SplineSet
427 70 m 1,0,1
 409 35 409 35 368.5 11.5 c 128,-1,2
 328 -12 328 -12 274 -12 c 0,3,4
 215 -12 215 -12 171.5 6.5 c 128,-1,5
 128 25 128 25 99 59.5 c 128,-1,6
 70 94 70 94 55.5 142.5 c 128,-1,7
 41 191 41 191 41 250 c 0,8,9
 41 377 41 377 103 444.5 c 128,-1,10
 165 512 165 512 272 512 c 0,11,12
 321 512 321 512 359.5 503.5 c 128,-1,13
 398 495 398 495 425 481 c 1,14,15
 422 448 422 448 414 407 c 128,-1,16
 406 366 406 366 394 339 c 1,17,-1
 367 339 l 1,18,-1
 325 458 l 1,19,20
 318 463 318 463 309 465.5 c 128,-1,21
 300 468 300 468 279 468 c 0,22,23
 211 468 211 468 174 418.5 c 128,-1,24
 137 369 137 369 137 251 c 0,25,26
 137 213 137 213 147.5 177 c 128,-1,27
 158 141 158 141 179.5 112.5 c 128,-1,28
 201 84 201 84 233.5 67 c 128,-1,29
 266 50 266 50 309 50 c 0,30,31
 344 50 344 50 370 60 c 128,-1,32
 396 70 396 70 414 84 c 1,33,-1
 427 70 l 1,0,1
EndSplineSet
EndChar

StartChar: d
Encoding: 100 100 71
Width: 555
Flags: W
LayerCount: 2
Fore
SplineSet
373 99 m 1,0,1
 368 77 368 77 356 57 c 128,-1,2
 344 37 344 37 326.5 21.5 c 128,-1,3
 309 6 309 6 286.5 -3 c 128,-1,4
 264 -12 264 -12 238 -12 c 0,5,6
 139 -12 139 -12 90 51 c 128,-1,7
 41 114 41 114 41 247 c 0,8,9
 41 375 41 375 103.5 442 c 128,-1,10
 166 509 166 509 272 509 c 0,11,12
 309 509 309 509 330 505.5 c 128,-1,13
 351 502 351 502 376 493 c 1,14,-1
 376 682 l 1,15,-1
 300 690 l 1,16,-1
 300 716 l 1,17,18
 329 728 329 728 367.5 737 c 128,-1,19
 406 746 406 746 441 752 c 1,20,-1
 466 752 l 1,21,-1
 466 57 l 1,22,-1
 532 49 l 1,23,-1
 532 28 l 1,24,25
 503 14 503 14 472 4 c 128,-1,26
 441 -6 441 -6 411 -10 c 1,27,-1
 386 -10 l 1,28,-1
 377 99 l 1,29,-1
 373 99 l 1,0,1
258 50 m 0,30,31
 307 50 307 50 336 81 c 128,-1,32
 365 112 365 112 376 165 c 1,33,-1
 376 447 l 1,34,35
 359 457 359 457 336 461 c 128,-1,36
 313 465 313 465 277 465 c 0,37,38
 209 465 209 465 173 405.5 c 128,-1,39
 137 346 137 346 137 247 c 0,40,41
 137 206 137 206 144 170.5 c 128,-1,42
 151 135 151 135 166 108 c 128,-1,43
 181 81 181 81 203.5 65.5 c 128,-1,44
 226 50 226 50 258 50 c 0,30,31
EndSplineSet
EndChar

StartChar: e
Encoding: 101 101 72
Width: 503
Flags: W
LayerCount: 2
Fore
SplineSet
446 70 m 1,0,1
 438 53 438 53 421 38 c 128,-1,2
 404 23 404 23 382 12 c 128,-1,3
 360 1 360 1 334 -5.5 c 128,-1,4
 308 -12 308 -12 281 -12 c 0,5,6
 222 -12 222 -12 177 6.5 c 128,-1,7
 132 25 132 25 102 59.5 c 128,-1,8
 72 94 72 94 56.5 142 c 128,-1,9
 41 190 41 190 41 250 c 0,10,11
 41 378 41 378 100 445 c 128,-1,12
 159 512 159 512 267 512 c 0,13,14
 302 512 302 512 336 502.5 c 128,-1,15
 370 493 370 493 396.5 471 c 128,-1,16
 423 449 423 449 439.5 412.5 c 128,-1,17
 456 376 456 376 456 322 c 0,18,19
 456 305 456 305 454.5 287.5 c 128,-1,20
 453 270 453 270 449 250 c 1,21,-1
 137 250 l 1,22,23
 137 208 137 208 147.5 171.5 c 128,-1,24
 158 135 158 135 179 108 c 128,-1,25
 200 81 200 81 232 65.5 c 128,-1,26
 264 50 264 50 307 50 c 0,27,28
 342 50 342 50 378 60 c 128,-1,29
 414 70 414 70 432 86 c 1,30,-1
 446 70 l 1,0,1
263 468 m 0,31,32
 206 468 206 468 176 429.5 c 128,-1,33
 146 391 146 391 140 294 c 1,34,-1
 360 294 l 1,35,36
 361 303 361 303 361.5 311.5 c 128,-1,37
 362 320 362 320 362 328 c 0,38,39
 362 392 362 392 338 430 c 128,-1,40
 314 468 314 468 263 468 c 0,31,32
EndSplineSet
EndChar

StartChar: f
Encoding: 102 102 73
Width: 342
Flags: W
LayerCount: 2
Fore
SplineSet
306 752 m 0,0,1
 315 752 315 752 327 751 c 128,-1,2
 339 750 339 750 352 748.5 c 128,-1,3
 365 747 365 747 377 744.5 c 128,-1,4
 389 742 389 742 398 739 c 1,5,6
 395 706 395 706 389.5 677.5 c 128,-1,7
 384 649 384 649 376 626 c 1,8,-1
 351 626 l 1,9,-1
 307 712 l 1,10,11
 278 712 278 712 257.5 706 c 128,-1,12
 237 700 237 700 223.5 683 c 128,-1,13
 210 666 210 666 203.5 634 c 128,-1,14
 197 602 197 602 197 550 c 2,15,-1
 197 500 l 1,16,-1
 312 500 l 1,17,-1
 312 450 l 1,18,-1
 197 450 l 1,19,-1
 197 49 l 1,20,21
 249 43 249 43 293 25 c 1,22,-1
 293 0 l 1,23,-1
 41 0 l 1,24,-1
 41 25 l 1,25,26
 72 43 72 43 107 49 c 1,27,-1
 107 450 l 1,28,-1
 31 450 l 1,29,-1
 31 476 l 1,30,31
 66 498 66 498 107 509 c 1,32,-1
 107 544 l 2,33,34
 107 606 107 606 122 646.5 c 128,-1,35
 137 687 137 687 164 710.5 c 128,-1,36
 191 734 191 734 227.5 743 c 128,-1,37
 264 752 264 752 306 752 c 0,0,1
EndSplineSet
EndChar

StartChar: g
Encoding: 103 103 74
Width: 526
Flags: W
LayerCount: 2
Fore
SplineSet
247 512 m 0,0,1
 301 512 301 512 338 501.5 c 128,-1,2
 375 491 375 491 400 469 c 1,3,4
 459 509 459 509 523 527 c 1,5,6
 531 516 531 516 534.5 500 c 128,-1,7
 538 484 538 484 538 470 c 1,8,-1
 525 446 l 1,9,-1
 420 446 l 1,10,11
 445 410 445 410 445 351 c 0,12,13
 445 279 445 279 394.5 234 c 128,-1,14
 344 189 344 189 247 189 c 0,15,16
 228 189 228 189 216 190 c 128,-1,17
 204 191 204 191 189 193 c 1,18,19
 184 184 184 184 177.5 173 c 128,-1,20
 171 162 171 162 171 150 c 0,21,22
 171 130 171 130 194 118.5 c 128,-1,23
 217 107 217 107 251.5 98 c 128,-1,24
 286 89 286 89 326.5 79.5 c 128,-1,25
 367 70 367 70 402 53.5 c 128,-1,26
 437 37 437 37 460.5 10.5 c 128,-1,27
 484 -16 484 -16 485 -58 c 0,28,29
 486 -94 486 -94 468.5 -123 c 128,-1,30
 451 -152 451 -152 420 -171.5 c 128,-1,31
 389 -191 389 -191 345.5 -201.5 c 128,-1,32
 302 -212 302 -212 250 -212 c 0,33,34
 141 -212 141 -212 85.5 -175 c 128,-1,35
 30 -138 30 -138 30 -82 c 0,36,37
 30 -55 30 -55 38.5 -35 c 128,-1,38
 47 -15 47 -15 63 0 c 128,-1,39
 79 15 79 15 103 26.5 c 128,-1,40
 127 38 127 38 158 48 c 1,41,42
 136 58 136 58 121.5 75.5 c 128,-1,43
 107 93 107 93 107 118 c 0,44,45
 107 141 107 141 126.5 163.5 c 128,-1,46
 146 186 146 186 166 199 c 1,47,48
 109 214 109 214 78.5 256 c 128,-1,49
 48 298 48 298 48 351 c 0,50,51
 48 385 48 385 61 414.5 c 128,-1,52
 74 444 74 444 99 466 c 128,-1,53
 124 488 124 488 161 500 c 128,-1,54
 198 512 198 512 247 512 c 0,0,1
395 -81 m 0,55,56
 395 -49 395 -49 373.5 -30 c 128,-1,57
 352 -11 352 -11 320 1 c 128,-1,58
 288 13 288 13 251 21 c 128,-1,59
 214 29 214 29 182 39 c 1,60,61
 144 16 144 16 132 -9.5 c 128,-1,62
 120 -35 120 -35 120 -62 c 0,63,64
 120 -115 120 -115 158 -141.5 c 128,-1,65
 196 -168 196 -168 268 -168 c 0,66,67
 305 -168 305 -168 329.5 -161 c 128,-1,68
 354 -154 354 -154 368.5 -142.5 c 128,-1,69
 383 -131 383 -131 389 -115 c 128,-1,70
 395 -99 395 -99 395 -81 c 0,55,56
138 351 m 0,71,72
 138 327 138 327 143.5 305.5 c 128,-1,73
 149 284 149 284 161.5 268 c 128,-1,74
 174 252 174 252 195 242.5 c 128,-1,75
 216 233 216 233 247 233 c 0,76,77
 305 233 305 233 330 267 c 128,-1,78
 355 301 355 301 355 351 c 0,79,80
 355 405 355 405 330.5 436.5 c 128,-1,81
 306 468 306 468 247 468 c 0,82,83
 186 468 186 468 162 437.5 c 128,-1,84
 138 407 138 407 138 351 c 0,71,72
EndSplineSet
EndChar

StartChar: h
Encoding: 104 104 75
Width: 587
Flags: W
LayerCount: 2
Fore
SplineSet
570 0 m 1,0,-1
 354 0 l 1,1,-1
 354 25 l 1,2,3
 378 38 378 38 414 49 c 1,4,-1
 414 283 l 2,5,6
 414 361 414 361 392 405.5 c 128,-1,7
 370 450 370 450 312 450 c 0,8,9
 286 450 286 450 265 440.5 c 128,-1,10
 244 431 244 431 227 416 c 128,-1,11
 210 401 210 401 198 381.5 c 128,-1,12
 186 362 186 362 180 341 c 1,13,-1
 180 49 l 1,14,15
 196 45 196 45 210.5 40 c 128,-1,16
 225 35 225 35 239 25 c 1,17,-1
 239 0 l 1,18,-1
 24 0 l 1,19,-1
 24 25 l 1,20,21
 55 41 55 41 90 49 c 1,22,-1
 90 682 l 1,23,-1
 14 690 l 1,24,-1
 14 716 l 1,25,26
 43 728 43 728 81.5 737 c 128,-1,27
 120 746 120 746 155 752 c 1,28,-1
 180 752 l 1,29,-1
 180 399 l 1,30,-1
 181 399 l 1,31,32
 202 446 202 446 241.5 479 c 128,-1,33
 281 512 281 512 337 512 c 0,34,35
 377 512 377 512 408.5 502.5 c 128,-1,36
 440 493 440 493 461 469 c 128,-1,37
 482 445 482 445 493 404.5 c 128,-1,38
 504 364 504 364 504 302 c 2,39,-1
 504 49 l 1,40,41
 521 45 521 45 538 40 c 128,-1,42
 555 35 555 35 570 25 c 1,43,-1
 570 0 l 1,0,-1
EndSplineSet
EndChar

StartChar: k
Encoding: 107 107 78
Width: 516
Flags: W
LayerCount: 2
Fore
SplineSet
300 500 m 1,0,-1
 493 500 l 1,1,-1
 493 474 l 1,2,3
 474 466 474 466 455.5 460 c 128,-1,4
 437 454 437 454 417 450 c 1,5,6
 402 430 402 430 382.5 407 c 128,-1,7
 363 384 363 384 343 361 c 128,-1,8
 323 338 323 338 304.5 318 c 128,-1,9
 286 298 286 298 273 285 c 1,10,11
 288 265 288 265 309.5 236.5 c 128,-1,12
 331 208 331 208 356 176 c 128,-1,13
 381 144 381 144 407.5 111 c 128,-1,14
 434 78 434 78 460 49 c 1,15,-1
 516 25 l 1,16,-1
 516 0 l 1,17,-1
 392 0 l 1,18,-1
 365 24 l 1,19,20
 312 90 312 90 277 141.5 c 128,-1,21
 242 193 242 193 213 238 c 1,22,-1
 180 248 l 1,23,-1
 180 49 l 1,24,25
 213 43 213 43 245 25 c 1,26,-1
 245 0 l 1,27,-1
 24 0 l 1,28,-1
 24 25 l 1,29,30
 57 41 57 41 90 49 c 1,31,-1
 90 682 l 1,32,-1
 14 690 l 1,33,-1
 14 716 l 1,34,35
 42 729 42 729 81 737 c 128,-1,36
 120 745 120 745 155 752 c 1,37,-1
 180 752 l 1,38,-1
 180 274 l 1,39,-1
 206 274 l 1,40,41
 222 292 222 292 241 314 c 128,-1,42
 260 336 260 336 279 359.5 c 128,-1,43
 298 383 298 383 316 406 c 128,-1,44
 334 429 334 429 349 450 c 1,45,46
 324 457 324 457 300 474 c 1,47,-1
 300 500 l 1,0,-1
EndSplineSet
EndChar

StartChar: l
Encoding: 108 108 79
Width: 301
Flags: W
LayerCount: 2
Fore
SplineSet
263 0 m 1,0,-1
 41 0 l 1,1,-1
 41 25 l 1,2,3
 74 41 74 41 107 49 c 1,4,-1
 107 682 l 1,5,-1
 31 690 l 1,6,-1
 31 716 l 1,7,8
 57 728 57 728 96 737 c 128,-1,9
 135 746 135 746 172 752 c 1,10,-1
 197 752 l 1,11,-1
 197 49 l 1,12,13
 230 41 230 41 263 25 c 1,14,-1
 263 0 l 1,0,-1
EndSplineSet
EndChar

StartChar: m
Encoding: 109 109 80
Width: 863
Flags: W
LayerCount: 2
Fore
SplineSet
548 0 m 1,0,-1
 334 0 l 1,1,-1
 334 25 l 1,2,3
 344 31 344 31 358.5 37.5 c 128,-1,4
 373 44 373 44 393 49 c 1,5,-1
 393 280 l 2,6,7
 393 320 393 320 389.5 352 c 128,-1,8
 386 384 386 384 376.5 405.5 c 128,-1,9
 367 427 367 427 349 438.5 c 128,-1,10
 331 450 331 450 302 450 c 0,11,12
 280 450 280 450 261.5 441 c 128,-1,13
 243 432 243 432 228.5 417 c 128,-1,14
 214 402 214 402 203.5 383 c 128,-1,15
 193 364 193 364 187 343 c 1,16,-1
 187 49 l 1,17,18
 203 44 203 44 217.5 38.5 c 128,-1,19
 232 33 232 33 246 25 c 1,20,-1
 246 0 l 1,21,-1
 31 0 l 1,22,-1
 31 25 l 1,23,24
 45 32 45 32 62 38 c 128,-1,25
 79 44 79 44 97 49 c 1,26,-1
 97 442 l 1,27,-1
 31 450 l 1,28,-1
 31 476 l 1,29,30
 63 490 63 490 96.5 498.5 c 128,-1,31
 130 507 130 507 162 512 c 1,32,-1
 187 512 l 1,33,-1
 187 399 l 1,34,-1
 188 399 l 1,35,36
 204 446 204 446 242.5 479 c 128,-1,37
 281 512 281 512 338 512 c 0,38,39
 362 512 362 512 384 507 c 128,-1,40
 406 502 406 502 425 488.5 c 128,-1,41
 444 475 444 475 457 451 c 128,-1,42
 470 427 470 427 476 389 c 1,43,44
 494 444 494 444 534 478 c 128,-1,45
 574 512 574 512 634 512 c 0,46,47
 671 512 671 512 698.5 502.5 c 128,-1,48
 726 493 726 493 744 469 c 128,-1,49
 762 445 762 445 770.5 404 c 128,-1,50
 779 363 779 363 779 300 c 2,51,-1
 779 49 l 1,52,53
 813 43 813 43 845 25 c 1,54,-1
 845 0 l 1,55,-1
 630 0 l 1,56,-1
 630 25 l 1,57,58
 660 41 660 41 689 49 c 1,59,-1
 689 298 l 2,60,61
 689 334 689 334 685.5 362 c 128,-1,62
 682 390 682 390 672 409.5 c 128,-1,63
 662 429 662 429 644 439.5 c 128,-1,64
 626 450 626 450 596 450 c 0,65,66
 548 450 548 450 521.5 417 c 128,-1,67
 495 384 495 384 483 333 c 1,68,-1
 483 49 l 1,69,70
 518 39 518 39 548 25 c 1,71,-1
 548 0 l 1,0,-1
EndSplineSet
EndChar

StartChar: n
Encoding: 110 110 81
Width: 594
Flags: W
LayerCount: 2
Fore
SplineSet
577 0 m 1,0,-1
 362 0 l 1,1,-1
 362 25 l 1,2,3
 389 39 389 39 421 49 c 1,4,-1
 421 286 l 2,5,6
 421 362 421 362 399 406 c 128,-1,7
 377 450 377 450 319 450 c 0,8,9
 294 450 294 450 272.5 441 c 128,-1,10
 251 432 251 432 234.5 416.5 c 128,-1,11
 218 401 218 401 206 381.5 c 128,-1,12
 194 362 194 362 187 341 c 1,13,-1
 187 49 l 1,14,15
 218 43 218 43 247 25 c 1,16,-1
 247 0 l 1,17,-1
 31 0 l 1,18,-1
 31 25 l 1,19,20
 56 38 56 38 97 49 c 1,21,-1
 97 442 l 1,22,-1
 31 450 l 1,23,-1
 31 476 l 1,24,25
 57 487 57 487 91 496 c 128,-1,26
 125 505 125 505 162 512 c 1,27,-1
 187 512 l 1,28,-1
 187 400 l 1,29,-1
 188 400 l 1,30,31
 209 446 209 446 248.5 479 c 128,-1,32
 288 512 288 512 344 512 c 0,33,34
 384 512 384 512 415.5 502.5 c 128,-1,35
 447 493 447 493 468 469 c 128,-1,36
 489 445 489 445 500 404.5 c 128,-1,37
 511 364 511 364 511 302 c 2,38,-1
 511 49 l 1,39,40
 551 42 551 42 577 25 c 1,41,-1
 577 0 l 1,0,-1
EndSplineSet
EndChar

StartChar: o
Encoding: 111 111 82
Width: 553
Flags: W
LayerCount: 2
Fore
SplineSet
41 250 m 0,0,1
 41 313 41 313 57.5 361.5 c 128,-1,2
 74 410 74 410 105 443.5 c 128,-1,3
 136 477 136 477 179.5 494.5 c 128,-1,4
 223 512 223 512 276 512 c 0,5,6
 338 512 338 512 383 493 c 128,-1,7
 428 474 428 474 456.5 439.5 c 128,-1,8
 485 405 485 405 498.5 357 c 128,-1,9
 512 309 512 309 512 250 c 0,10,11
 512 124 512 124 448 56 c 128,-1,12
 384 -12 384 -12 276 -12 c 0,13,14
 216 -12 216 -12 172 6.5 c 128,-1,15
 128 25 128 25 99 59.5 c 128,-1,16
 70 94 70 94 55.5 142.5 c 128,-1,17
 41 191 41 191 41 250 c 0,0,1
137 250 m 0,18,19
 137 205 137 205 145.5 165 c 128,-1,20
 154 125 154 125 172.5 95.5 c 128,-1,21
 191 66 191 66 221 49 c 128,-1,22
 251 32 251 32 293 32 c 0,23,24
 347 32 347 32 381.5 85 c 128,-1,25
 416 138 416 138 416 250 c 0,26,27
 416 296 416 296 407.5 335.5 c 128,-1,28
 399 375 399 375 381 404.5 c 128,-1,29
 363 434 363 434 335 451 c 128,-1,30
 307 468 307 468 268 468 c 0,31,32
 209 468 209 468 173 415 c 128,-1,33
 137 362 137 362 137 250 c 0,18,19
EndSplineSet
Substitution2: "Single Substitution lookup 17 subtable" ordmasculine
EndChar

StartChar: p
Encoding: 112 112 83
Width: 566
Flags: W
LayerCount: 2
Fore
SplineSet
253 -200 m 1,0,-1
 31 -200 l 1,1,-1
 31 -175 l 1,2,3
 65 -159 65 -159 97 -151 c 1,4,-1
 97 442 l 1,5,-1
 31 450 l 1,6,-1
 31 476 l 1,7,8
 63 490 63 490 96.5 498.5 c 128,-1,9
 130 507 130 507 162 512 c 1,10,-1
 187 512 l 1,11,-1
 187 400 l 1,12,-1
 188 400 l 1,13,14
 208 451 208 451 244 481.5 c 128,-1,15
 280 512 280 512 338 512 c 0,16,17
 427 512 427 512 476 453 c 128,-1,18
 525 394 525 394 525 261 c 0,19,20
 525 198 525 198 508.5 147 c 128,-1,21
 492 96 492 96 461.5 61 c 128,-1,22
 431 26 431 26 387.5 7 c 128,-1,23
 344 -12 344 -12 291 -12 c 0,24,25
 254 -12 254 -12 233 -7.5 c 128,-1,26
 212 -3 212 -3 187 8 c 1,27,-1
 187 -151 l 1,28,29
 203 -153 203 -153 219 -158.5 c 128,-1,30
 235 -164 235 -164 253 -175 c 1,31,-1
 253 -200 l 1,0,-1
306 450 m 0,32,33
 257 450 257 450 228 419 c 128,-1,34
 199 388 199 388 187 334 c 1,35,-1
 187 54 l 1,36,37
 205 43 205 43 227.5 37.5 c 128,-1,38
 250 32 250 32 286 32 c 0,39,40
 319 32 319 32 345.5 49 c 128,-1,41
 372 66 372 66 390.5 97 c 128,-1,42
 409 128 409 128 419 169.5 c 128,-1,43
 429 211 429 211 429 261 c 0,44,45
 429 302 429 302 422.5 336.5 c 128,-1,46
 416 371 416 371 401.5 396.5 c 128,-1,47
 387 422 387 422 363.5 436 c 128,-1,48
 340 450 340 450 306 450 c 0,32,33
EndSplineSet
EndChar

StartChar: q
Encoding: 113 113 84
Width: 548
Flags: W
LayerCount: 2
Fore
SplineSet
372 89 m 1,0,1
 358 49 358 49 323 18.5 c 128,-1,2
 288 -12 288 -12 234 -12 c 0,3,4
 138 -12 138 -12 89.5 51.5 c 128,-1,5
 41 115 41 115 41 247 c 0,6,7
 41 377 41 377 105.5 443 c 128,-1,8
 170 509 170 509 291 509 c 0,9,10
 345 509 345 509 394 499 c 128,-1,11
 443 489 443 489 466 478 c 1,12,-1
 466 -151 l 1,13,14
 483 -154 483 -154 499 -159.5 c 128,-1,15
 515 -165 515 -165 532 -175 c 1,16,-1
 532 -200 l 1,17,-1
 310 -200 l 1,18,-1
 310 -175 l 1,19,20
 341 -159 341 -159 376 -151 c 1,21,-1
 376 89 l 1,22,-1
 372 89 l 1,0,1
258 50 m 0,23,24
 307 50 307 50 335.5 81 c 128,-1,25
 364 112 364 112 376 164 c 1,26,-1
 376 451 l 1,27,28
 358 457 358 457 333.5 461 c 128,-1,29
 309 465 309 465 277 465 c 0,30,31
 210 465 210 465 173.5 413 c 128,-1,32
 137 361 137 361 137 249 c 0,33,34
 137 207 137 207 143 171 c 128,-1,35
 149 135 149 135 163.5 108 c 128,-1,36
 178 81 178 81 201 65.5 c 128,-1,37
 224 50 224 50 258 50 c 0,23,24
EndSplineSet
EndChar

StartChar: r
Encoding: 114 114 85
Width: 384
Flags: W
LayerCount: 2
Fore
SplineSet
244 425 m 1,0,1
 233 419 233 419 216.5 400.5 c 128,-1,2
 200 382 200 382 187 346 c 1,3,-1
 187 49 l 1,4,5
 207 47 207 47 227 41.5 c 128,-1,6
 247 36 247 36 267 25 c 1,7,-1
 267 0 l 1,8,-1
 31 0 l 1,9,-1
 31 25 l 1,10,11
 49 35 49 35 65 40 c 128,-1,12
 81 45 81 45 97 49 c 1,13,-1
 97 442 l 1,14,-1
 31 450 l 1,15,-1
 31 476 l 1,16,17
 63 490 63 490 97 498.5 c 128,-1,18
 131 507 131 507 162 512 c 1,19,-1
 187 512 l 1,20,-1
 187 406 l 1,21,-1
 191 406 l 1,22,23
 200 426 200 426 216.5 446 c 128,-1,24
 233 466 233 466 254.5 482 c 128,-1,25
 276 498 276 498 301.5 506.5 c 128,-1,26
 327 515 327 515 354 512 c 1,27,28
 361 499 361 499 366.5 483.5 c 128,-1,29
 372 468 372 468 377 451 c 1,30,-1
 377 425 l 1,31,-1
 244 425 l 1,0,1
EndSplineSet
EndChar

StartChar: s
Encoding: 115 115 86
Width: 433
Flags: W
LayerCount: 2
Fore
SplineSet
295 114 m 0,0,1
 295 142 295 142 277.5 161.5 c 128,-1,2
 260 181 260 181 233 198 c 128,-1,3
 206 215 206 215 175.5 231 c 128,-1,4
 145 247 145 247 118 268.5 c 128,-1,5
 91 290 91 290 73.5 318 c 128,-1,6
 56 346 56 346 56 387 c 0,7,8
 56 414 56 414 68.5 437 c 128,-1,9
 81 460 81 460 102 476.5 c 128,-1,10
 123 493 123 493 151 502.5 c 128,-1,11
 179 512 179 512 211 512 c 0,12,13
 265 512 265 512 299.5 506 c 128,-1,14
 334 500 334 500 366 489 c 1,15,16
 362 457 362 457 356.5 424.5 c 128,-1,17
 351 392 351 392 341 358 c 1,18,-1
 316 358 l 1,19,-1
 278 460 l 1,20,21
 266 465 266 465 251 466.5 c 128,-1,22
 236 468 236 468 220 468 c 0,23,24
 202 468 202 468 188.5 461.5 c 128,-1,25
 175 455 175 455 165.5 445 c 128,-1,26
 156 435 156 435 151 422 c 128,-1,27
 146 409 146 409 146 396 c 0,28,29
 146 369 146 369 163.5 349.5 c 128,-1,30
 181 330 181 330 208 313.5 c 128,-1,31
 235 297 235 297 265.5 281 c 128,-1,32
 296 265 296 265 323 245 c 128,-1,33
 350 225 350 225 367.5 198.5 c 128,-1,34
 385 172 385 172 385 135 c 0,35,36
 385 101 385 101 370.5 74 c 128,-1,37
 356 47 356 47 330.5 28 c 128,-1,38
 305 9 305 9 271.5 -1.5 c 128,-1,39
 238 -12 238 -12 200 -12 c 0,40,41
 157 -12 157 -12 121 -4.5 c 128,-1,42
 85 3 85 3 46 17 c 1,43,44
 48 53 48 53 55 86.5 c 128,-1,45
 62 120 62 120 73 151 c 1,46,-1
 98 151 l 1,47,-1
 142 42 l 1,48,49
 153 34 153 34 168.5 33 c 128,-1,50
 184 32 184 32 197 32 c 0,51,52
 241 32 241 32 268 56 c 128,-1,53
 295 80 295 80 295 114 c 0,0,1
EndSplineSet
Substitution2: "'hist' Historical Forms lookup 16 subtable" longs
Substitution2: "'aalt' Access All Alternates lookup 0 subtable" longs
EndChar

StartChar: t
Encoding: 116 116 87
Width: 371
Flags: W
LayerCount: 2
Fore
SplineSet
15 476 m 1,0,1
 53 500 53 500 95 510 c 1,2,-1
 95 595 l 1,3,4
 108 605 108 605 125.5 614.5 c 128,-1,5
 143 624 143 624 160 631 c 1,6,-1
 185 631 l 1,7,-1
 185 500 l 1,8,-1
 335 500 l 1,9,-1
 335 450 l 1,10,-1
 185 450 l 1,11,-1
 185 160 l 2,12,13
 185 100 185 100 204 75 c 128,-1,14
 223 50 223 50 261 50 c 0,15,16
 279 50 279 50 306 52.5 c 128,-1,17
 333 55 333 55 352 62 c 1,18,-1
 359 47 l 1,19,20
 351 38 351 38 336.5 28 c 128,-1,21
 322 18 322 18 303.5 9 c 128,-1,22
 285 0 285 0 263 -6 c 128,-1,23
 241 -12 241 -12 218 -12 c 0,24,25
 158 -12 158 -12 126.5 22 c 128,-1,26
 95 56 95 56 95 132 c 2,27,-1
 95 450 l 1,28,-1
 15 450 l 1,29,-1
 15 476 l 1,0,1
EndSplineSet
EndChar

StartChar: u
Encoding: 117 117 88
Width: 574
Flags: W
LayerCount: 2
Fore
SplineSet
77 198 m 0,0,1
 77 261 77 261 80 321.5 c 128,-1,2
 83 382 83 382 83 442 c 1,3,-1
 17 450 l 1,4,-1
 17 476 l 1,5,6
 49 488 49 488 82.5 497 c 128,-1,7
 116 506 116 506 148 512 c 1,8,-1
 173 512 l 1,9,10
 173 437 173 437 170 363 c 128,-1,11
 167 289 167 289 167 216 c 0,12,13
 167 177 167 177 171.5 146 c 128,-1,14
 176 115 176 115 187.5 94 c 128,-1,15
 199 73 199 73 219 61.5 c 128,-1,16
 239 50 239 50 270 50 c 0,17,18
 315 50 315 50 345.5 82.5 c 128,-1,19
 376 115 376 115 393 167 c 1,20,-1
 393 442 l 1,21,-1
 328 450 l 1,22,-1
 328 476 l 1,23,24
 359 488 359 488 392.5 497 c 128,-1,25
 426 506 426 506 458 512 c 1,26,-1
 483 512 l 1,27,-1
 483 57 l 1,28,-1
 549 49 l 1,29,-1
 549 28 l 1,30,31
 520 15 520 15 490.5 5 c 128,-1,32
 461 -5 461 -5 429 -10 c 1,33,-1
 404 -10 l 1,34,-1
 397 109 l 1,35,-1
 393 109 l 1,36,37
 388 88 388 88 375.5 66.5 c 128,-1,38
 363 45 363 45 343 27.5 c 128,-1,39
 323 10 323 10 297.5 -1 c 128,-1,40
 272 -12 272 -12 242 -12 c 0,41,42
 202 -12 202 -12 171.5 -2.5 c 128,-1,43
 141 7 141 7 120 31 c 128,-1,44
 99 55 99 55 88 95.5 c 128,-1,45
 77 136 77 136 77 198 c 0,0,1
EndSplineSet
EndChar

StartChar: v
Encoding: 118 118 89
Width: 507
Flags: W
LayerCount: 2
Fore
SplineSet
238 -12 m 1,0,-1
 43 450 l 1,1,2
 14 460 14 460 -10 474 c 1,3,-1
 -10 500 l 1,4,-1
 199 500 l 1,5,-1
 199 475 l 1,6,7
 186 468 186 468 172.5 461.5 c 128,-1,8
 159 455 159 455 142 450 c 1,9,-1
 258 149 l 1,10,-1
 278 87 l 1,11,-1
 280 87 l 1,12,-1
 295 150 l 1,13,-1
 402 450 l 1,14,15
 386 454 386 454 372.5 460 c 128,-1,16
 359 466 359 466 347 474 c 1,17,-1
 347 500 l 1,18,-1
 517 500 l 1,19,-1
 517 474 l 1,20,21
 507 467 507 467 492.5 461 c 128,-1,22
 478 455 478 455 460 450 c 1,23,-1
 283 0 l 1,24,-1
 238 -12 l 1,0,-1
EndSplineSet
EndChar

StartChar: w
Encoding: 119 119 90
Width: 728
Flags: W
LayerCount: 2
Fore
SplineSet
200 -12 m 1,0,-1
 43 450 l 1,1,2
 29 455 29 455 15.5 460.5 c 128,-1,3
 2 466 2 466 -10 474 c 1,4,-1
 -10 500 l 1,5,-1
 198 500 l 1,6,-1
 198 475 l 1,7,8
 184 467 184 467 170 460.5 c 128,-1,9
 156 454 156 454 141 450 c 1,10,-1
 228 158 l 1,11,-1
 241 86 l 1,12,-1
 243 86 l 1,13,-1
 258 160 l 1,14,-1
 366 490 l 1,15,-1
 396 500 l 1,16,-1
 511 159 l 1,17,-1
 529 86 l 1,18,-1
 531 86 l 1,19,-1
 546 159 l 1,20,-1
 623 450 l 1,21,22
 612 452 612 452 597.5 458 c 128,-1,23
 583 464 583 464 568 474 c 1,24,-1
 568 500 l 1,25,-1
 738 500 l 1,26,-1
 738 474 l 1,27,28
 717 460 717 460 681 450 c 1,29,-1
 539 0 l 1,30,-1
 486 -12 l 1,31,-1
 387 271 l 1,32,-1
 368 354 l 1,33,-1
 365 354 l 1,34,-1
 342 271 l 1,35,-1
 252 0 l 1,36,-1
 200 -12 l 1,0,-1
EndSplineSet
EndChar

StartChar: x
Encoding: 120 120 91
Width: 519
Flags: W
LayerCount: 2
Fore
SplineSet
298 268 m 1,0,-1
 456 49 l 1,1,2
 470 44 470 44 483.5 38.5 c 128,-1,3
 497 33 497 33 509 25 c 1,4,-1
 509 0 l 1,5,-1
 304 0 l 1,6,-1
 304 24 l 1,7,8
 318 32 318 32 330 38.5 c 128,-1,9
 342 45 342 45 354 49 c 1,10,-1
 243 213 l 1,11,-1
 131 49 l 1,12,13
 145 44 145 44 157 38 c 128,-1,14
 169 32 169 32 181 25 c 1,15,-1
 181 0 l 1,16,-1
 10 0 l 1,17,-1
 10 25 l 1,18,19
 38 42 38 42 66 49 c 1,20,-1
 215 248 l 1,21,-1
 65 450 l 1,22,23
 51 455 51 455 39.5 460.5 c 128,-1,24
 28 466 28 466 16 474 c 1,25,-1
 16 500 l 1,26,-1
 217 500 l 1,27,-1
 217 475 l 1,28,29
 205 467 205 467 193.5 460.5 c 128,-1,30
 182 454 182 454 168 450 c 1,31,-1
 272 300 l 1,32,-1
 374 450 l 1,33,34
 340 461 340 461 324 474 c 1,35,-1
 324 500 l 1,36,-1
 491 500 l 1,37,-1
 491 474 l 1,38,39
 472 461 472 461 435 450 c 1,40,-1
 298 268 l 1,0,-1
EndSplineSet
EndChar

StartChar: y
Encoding: 121 121 92
Width: 505
Flags: W
LayerCount: 2
Fore
SplineSet
42 450 m 1,0,1
 27 454 27 454 14.5 460 c 128,-1,2
 2 466 2 466 -11 474 c 1,3,-1
 -11 500 l 1,4,-1
 198 500 l 1,5,-1
 198 475 l 1,6,7
 177 461 177 461 141 450 c 1,8,-1
 269 154 l 1,9,-1
 288 92 l 1,10,-1
 290 92 l 1,11,-1
 305 155 l 1,12,-1
 400 450 l 1,13,14
 370 456 370 456 345 474 c 1,15,-1
 345 500 l 1,16,-1
 516 500 l 1,17,-1
 516 474 l 1,18,19
 495 460 495 460 459 450 c 1,20,-1
 303 0 l 1,21,22
 279 -64 279 -64 257.5 -103.5 c 128,-1,23
 236 -143 236 -143 214.5 -166 c 128,-1,24
 193 -189 193 -189 170.5 -199.5 c 128,-1,25
 148 -210 148 -210 122 -215 c 1,26,27
 111 -196 111 -196 102.5 -173 c 128,-1,28
 94 -150 94 -150 88 -129 c 1,29,-1
 101 -105 l 1,30,-1
 205 -105 l 1,31,32
 211 -97 211 -97 215.5 -89.5 c 128,-1,33
 220 -82 220 -82 225 -71 c 128,-1,34
 230 -60 230 -60 236 -43 c 128,-1,35
 242 -26 242 -26 250 0 c 1,36,-1
 42 450 l 1,0,1
EndSplineSet
EndChar

StartChar: z
Encoding: 122 122 93
Width: 488
Flags: W
LayerCount: 2
Fore
SplineSet
423 171 m 1,0,1
 430 129 430 129 433.5 86.5 c 128,-1,2
 437 44 437 44 435 0 c 1,3,-1
 43 0 l 1,4,-1
 43 25 l 1,5,-1
 328 456 l 1,6,-1
 139 456 l 1,7,-1
 95 338 l 1,8,-1
 70 338 l 1,9,10
 62 381 62 381 60.5 422.5 c 128,-1,11
 59 464 59 464 59 500 c 1,12,-1
 435 500 l 1,13,-1
 435 474 l 1,14,-1
 149 44 l 1,15,-1
 344 44 l 1,16,-1
 398 171 l 1,17,-1
 423 171 l 1,0,1
EndSplineSet
EndChar

StartChar: braceleft
Encoding: 123 123 94
Width: 348
Flags: W
LayerCount: 2
Fore
SplineSet
135 111 m 2,0,1
 135 162 135 162 114 191 c 128,-1,2
 93 220 93 220 55 220 c 1,3,-1
 55 250 l 1,4,5
 93 250 93 250 114 280.5 c 128,-1,6
 135 311 135 311 135 355 c 2,7,-1
 135 594 l 2,8,9
 135 642 135 642 159 671 c 128,-1,10
 183 700 183 700 231 700 c 2,11,-1
 321 700 l 1,12,-1
 321 658 l 1,13,-1
 273 658 l 2,14,15
 246 658 246 658 233.5 644 c 128,-1,16
 221 630 221 630 221 598 c 2,17,-1
 221 365 l 2,18,19
 221 332 221 332 210.5 309 c 128,-1,20
 200 286 200 286 183.5 271.5 c 128,-1,21
 167 257 167 257 148 249.5 c 128,-1,22
 129 242 129 242 111 240 c 1,23,-1
 111 234 l 1,24,25
 128 232 128 232 147.5 224 c 128,-1,26
 167 216 167 216 183.5 200 c 128,-1,27
 200 184 200 184 210.5 160.5 c 128,-1,28
 221 137 221 137 221 105 c 2,29,-1
 221 -129 l 2,30,31
 221 -160 221 -160 233 -174.5 c 128,-1,32
 245 -189 245 -189 274 -189 c 2,33,-1
 321 -189 l 1,34,-1
 321 -230 l 1,35,-1
 231 -230 l 2,36,37
 186 -230 186 -230 160.5 -203.5 c 128,-1,38
 135 -177 135 -177 135 -125 c 2,39,-1
 135 111 l 2,0,1
EndSplineSet
Position2: "'case' Case-Sensitive Forms lookup 1 per glyph data 3" dx=0 dy=100 dh=0 dv=0
EndChar

StartChar: bar
Encoding: 124 124 95
Width: 237
Flags: W
LayerCount: 2
Fore
SplineSet
93 700 m 1,0,-1
 145 700 l 1,1,-1
 145 -130 l 1,2,-1
 93 -130 l 1,3,-1
 93 700 l 1,0,-1
EndSplineSet
EndChar

StartChar: braceright
Encoding: 125 125 96
Width: 348
Flags: W
LayerCount: 2
Fore
SplineSet
238 360 m 2,0,1
 238 309 238 309 259 280 c 128,-1,2
 280 251 280 251 318 251 c 1,3,-1
 318 221 l 1,4,5
 280 221 280 221 259 190.5 c 128,-1,6
 238 160 238 160 238 116 c 2,7,-1
 238 -124 l 2,8,9
 238 -172 238 -172 214 -201 c 128,-1,10
 190 -230 190 -230 142 -230 c 2,11,-1
 52 -230 l 1,12,-1
 52 -189 l 1,13,-1
 101 -189 l 2,14,15
 128 -189 128 -189 140.5 -175 c 128,-1,16
 153 -161 153 -161 153 -129 c 2,17,-1
 153 106 l 2,18,19
 153 139 153 139 162 162 c 128,-1,20
 171 185 171 185 185.5 199.5 c 128,-1,21
 200 214 200 214 217.5 221.5 c 128,-1,22
 235 229 235 229 253 231 c 1,23,-1
 253 237 l 1,24,25
 236 239 236 239 218 247 c 128,-1,26
 200 255 200 255 185.5 271 c 128,-1,27
 171 287 171 287 162 310.5 c 128,-1,28
 153 334 153 334 153 366 c 2,29,-1
 153 598 l 2,30,31
 153 629 153 629 141 643.5 c 128,-1,32
 129 658 129 658 100 658 c 2,33,-1
 52 658 l 1,34,-1
 52 700 l 1,35,-1
 143 700 l 2,36,37
 188 700 188 700 213 673.5 c 128,-1,38
 238 647 238 647 238 595 c 2,39,-1
 238 360 l 2,0,1
EndSplineSet
Position2: "'case' Case-Sensitive Forms lookup 1 per glyph data 3" dx=0 dy=100 dh=0 dv=0
EndChar

StartChar: asciitilde
Encoding: 126 126 97
Width: 530
Flags: W
LayerCount: 2
Fore
SplineSet
58 322 m 1,0,1
 94 376 94 376 127 396.5 c 128,-1,2
 160 417 160 417 190 417 c 0,3,4
 215 417 215 417 239 406.5 c 128,-1,5
 263 396 263 396 286 383 c 128,-1,6
 309 370 309 370 332.5 359.5 c 128,-1,7
 356 349 356 349 381 349 c 0,8,9
 399 349 399 349 418.5 356.5 c 128,-1,10
 438 364 438 364 458 383 c 1,11,-1
 471 362 l 1,12,13
 442 320 442 320 413.5 302.5 c 128,-1,14
 385 285 385 285 358 285 c 0,15,16
 332 285 332 285 307.5 295.5 c 128,-1,17
 283 306 283 306 259 319 c 128,-1,18
 235 332 235 332 211 342.5 c 128,-1,19
 187 353 187 353 163 353 c 0,20,21
 141 353 141 353 118.5 341 c 128,-1,22
 96 329 96 329 73 298 c 1,23,-1
 58 322 l 1,0,1
EndSplineSet
EndChar

StartChar: exclamdown
Encoding: 161 161 99
Width: 327
Flags: W
LayerCount: 2
Fore
SplineSet
153 286 m 1,0,-1
 185 110 l 1,1,-1
 185 -186 l 1,2,3
 164 -197 164 -197 140 -197 c 128,-1,4
 116 -197 116 -197 95 -186 c 1,5,-1
 95 110 l 1,6,-1
 127 286 l 1,7,-1
 153 286 l 1,0,-1
208 446 m 0,8,9
 208 417 208 417 189 399 c 128,-1,10
 170 381 170 381 140 381 c 0,11,12
 109 381 109 381 90 399 c 128,-1,13
 71 417 71 417 71 446 c 0,14,15
 71 476 71 476 90 494 c 128,-1,16
 109 512 109 512 140 512 c 0,17,18
 170 512 170 512 189 494 c 128,-1,19
 208 476 208 476 208 446 c 0,8,9
EndSplineSet
Position2: "'case' Case-Sensitive Forms lookup 1 per glyph data 3" dx=0 dy=100 dh=0 dv=0
EndChar

StartChar: cent
Encoding: 162 162 100
Width: 533
Flags: W
LayerCount: 2
Fore
SplineSet
480 70 m 1,0,1
 460 34 460 34 420 11.5 c 128,-1,2
 380 -11 380 -11 326 -12 c 1,3,-1
 326 -170 l 1,4,-1
 273 -170 l 1,5,-1
 273 -8 l 1,6,7
 168 7 168 7 115 75.5 c 128,-1,8
 62 144 62 144 62 250 c 0,9,10
 62 305 62 305 77.5 349.5 c 128,-1,11
 93 394 93 394 121 427 c 128,-1,12
 149 460 149 460 187.5 480 c 128,-1,13
 226 500 226 500 273 508 c 1,14,-1
 273 660 l 1,15,-1
 326 660 l 1,16,-1
 326 512 l 1,17,18
 374 512 374 512 412.5 503.5 c 128,-1,19
 451 495 451 495 478 481 c 1,20,21
 475 448 475 448 466.5 407 c 128,-1,22
 458 366 458 366 446 339 c 1,23,-1
 421 339 l 1,24,-1
 380 458 l 1,25,26
 373 463 373 463 364 465.5 c 128,-1,27
 355 468 355 468 335 468 c 2,28,-1
 325 468 l 1,29,-1
 325 53 l 1,30,31
 343 50 343 50 361 50 c 0,32,33
 396 50 396 50 422 60 c 128,-1,34
 448 70 448 70 466 84 c 1,35,-1
 480 70 l 1,0,1
158 251 m 0,36,37
 158 194 158 194 187.5 143 c 128,-1,38
 217 92 217 92 274 67 c 1,39,-1
 274 460 l 1,40,41
 221 444 221 444 189.5 394 c 128,-1,42
 158 344 158 344 158 251 c 0,36,37
EndSplineSet
EndChar

StartChar: sterling
Encoding: 163 163 101
Width: 533
Flags: W
LayerCount: 2
Fore
SplineSet
30 381 m 1,0,-1
 115 381 l 1,1,2
 100 413 100 413 89 448 c 128,-1,3
 78 483 78 483 78 534 c 0,4,5
 78 575 78 575 93 608 c 128,-1,6
 108 641 108 641 135 664 c 128,-1,7
 162 687 162 687 200 699.5 c 128,-1,8
 238 712 238 712 285 712 c 0,9,10
 346 712 346 712 397 702 c 128,-1,11
 448 692 448 692 477 678 c 1,12,13
 476 662 476 662 473.5 639.5 c 128,-1,14
 471 617 471 617 467.5 593.5 c 128,-1,15
 464 570 464 570 460 547 c 128,-1,16
 456 524 456 524 452 507 c 1,17,-1
 427 507 l 1,18,-1
 387 644 l 1,19,20
 368 652 368 652 341 656 c 128,-1,21
 314 660 314 660 283 660 c 0,22,23
 244 660 244 660 216.5 643 c 128,-1,24
 189 626 189 626 178 595 c 0,25,26
 170 573 170 573 170 549 c 0,27,28
 171 498 171 498 183 458 c 128,-1,29
 195 418 195 418 209 381 c 1,30,-1
 365 381 l 1,31,-1
 365 330 l 1,32,-1
 227 330 l 1,33,34
 234 305 234 305 238 280.5 c 128,-1,35
 242 256 242 256 240 227 c 1,36,37
 239 193 239 193 226.5 162 c 128,-1,38
 214 131 214 131 186 108 c 2,39,-1
 153 80 l 1,40,-1
 153 76 l 1,41,-1
 209 82 l 1,42,-1
 408 82 l 1,43,-1
 457 194 l 1,44,-1
 482 194 l 1,45,46
 484 172 484 172 486 146 c 128,-1,47
 488 120 488 120 489.5 93.5 c 128,-1,48
 491 67 491 67 492 42.5 c 128,-1,49
 493 18 493 18 493 0 c 1,50,-1
 33 0 l 1,51,-1
 33 31 l 1,52,53
 97 59 97 59 128.5 98 c 128,-1,54
 160 137 160 137 161 198 c 0,55,56
 161 209 161 209 160.5 218.5 c 128,-1,57
 160 228 160 228 159 238 c 0,58,59
 153 292 153 292 138 330 c 1,60,-1
 30 330 l 1,61,-1
 30 381 l 1,0,-1
EndSplineSet
EndChar

StartChar: currency
Encoding: 164 164 102
Width: 533
Flags: W
LayerCount: 2
Fore
SplineSet
36 170 m 1,0,-1
 119 252 l 1,1,-1
 154 263 l 1,2,3
 140 280 140 280 134 301 c 128,-1,4
 128 322 128 322 128 346 c 0,5,6
 128 369 128 369 134 390.5 c 128,-1,7
 140 412 140 412 154 429 c 1,8,-1
 119 440 l 1,9,-1
 37 523 l 1,10,-1
 91 577 l 1,11,-1
 173 494 l 1,12,-1
 185 460 l 1,13,14
 202 473 202 473 222.5 480 c 128,-1,15
 243 487 243 487 267 487 c 0,16,17
 291 486 291 486 312 479.5 c 128,-1,18
 333 473 333 473 349 460 c 1,19,-1
 362 494 l 1,20,-1
 444 576 l 1,21,-1
 497 522 l 1,22,-1
 414 440 l 1,23,-1
 382 429 l 1,24,25
 405 395 405 395 405 346 c 1,26,27
 406 299 406 299 382 262 c 1,28,-1
 414 252 l 1,29,-1
 496 169 l 1,30,-1
 443 115 l 1,31,-1
 361 197 l 1,32,-1
 349 231 l 1,33,34
 333 220 333 220 312 213.5 c 128,-1,35
 291 207 291 207 267 207 c 256,36,37
 243 207 243 207 222.5 213.5 c 128,-1,38
 202 220 202 220 183 231 c 1,39,-1
 173 198 l 1,40,-1
 90 116 l 1,41,-1
 36 170 l 1,0,-1
267 264 m 256,42,43
 303 264 303 264 327.5 287 c 128,-1,44
 352 310 352 310 352 346 c 256,45,46
 352 382 352 382 327.5 405.5 c 128,-1,47
 303 429 303 429 267 429 c 0,48,49
 231 430 231 430 206.5 406 c 128,-1,50
 182 382 182 382 182 346 c 256,51,52
 182 310 182 310 206.5 287 c 128,-1,53
 231 264 231 264 267 264 c 256,42,43
EndSplineSet
EndChar

StartChar: yen
Encoding: 165 165 103
Width: 533
Flags: W
LayerCount: 2
Fore
SplineSet
359 700 m 1,0,-1
 579 700 l 1,1,-1
 579 671 l 1,2,3
 539 652 539 652 503 646 c 1,4,-1
 343 335 l 1,5,-1
 487 335 l 1,6,-1
 487 283 l 1,7,-1
 324 283 l 1,8,-1
 324 220 l 1,9,-1
 487 220 l 1,10,-1
 487 168 l 1,11,-1
 324 168 l 1,12,-1
 324 53 l 1,13,14
 363 48 363 48 400 29 c 1,15,-1
 400 0 l 1,16,-1
 146 0 l 1,17,-1
 146 29 l 1,18,19
 182 47 182 47 228 53 c 1,20,-1
 228 168 l 1,21,-1
 65 168 l 1,22,-1
 65 220 l 1,23,-1
 228 220 l 1,24,-1
 228 283 l 1,25,-1
 65 283 l 1,26,-1
 65 335 l 1,27,-1
 207 335 l 1,28,-1
 36 646 l 1,29,30
 13 650 13 650 -6.5 656.5 c 128,-1,31
 -26 663 -26 663 -45 671 c 1,32,-1
 -45 700 l 1,33,-1
 220 700 l 1,34,-1
 220 671 l 1,35,36
 205 665 205 665 186 658.5 c 128,-1,37
 167 652 167 652 143 646 c 1,38,-1
 297 351 l 1,39,-1
 441 646 l 1,40,41
 418 651 418 651 397.5 657.5 c 128,-1,42
 377 664 377 664 359 671 c 1,43,-1
 359 700 l 1,0,-1
EndSplineSet
EndChar

StartChar: brokenbar
Encoding: 166 166 104
Width: 237
Flags: W
LayerCount: 2
Fore
SplineSet
93 190 m 1,0,-1
 145 190 l 1,1,-1
 145 -130 l 1,2,-1
 93 -130 l 1,3,-1
 93 190 l 1,0,-1
145 380 m 1,4,-1
 93 380 l 1,5,-1
 93 700 l 1,6,-1
 145 700 l 1,7,-1
 145 380 l 1,4,-1
EndSplineSet
EndChar

StartChar: section
Encoding: 167 167 105
Width: 527
Flags: W
LayerCount: 2
Fore
SplineSet
347 44 m 0,0,1
 347 74 347 74 325.5 92 c 128,-1,2
 304 110 304 110 272 123.5 c 128,-1,3
 240 137 240 137 203 149.5 c 128,-1,4
 166 162 166 162 134 180.5 c 128,-1,5
 102 199 102 199 80.5 228 c 128,-1,6
 59 257 59 257 59 304 c 0,7,8
 59 354 59 354 97 390 c 128,-1,9
 135 426 135 426 190 449 c 1,10,11
 169 459 169 459 151 471 c 128,-1,12
 133 483 133 483 119.5 499.5 c 128,-1,13
 106 516 106 516 98 537.5 c 128,-1,14
 90 559 90 559 90 587 c 0,15,16
 90 614 90 614 102 637 c 128,-1,17
 114 660 114 660 135.5 676.5 c 128,-1,18
 157 693 157 693 187 702.5 c 128,-1,19
 217 712 217 712 254 712 c 0,20,21
 308 712 308 712 347 706.5 c 128,-1,22
 386 701 386 701 418 689 c 1,23,24
 416 673 416 673 414 661.5 c 128,-1,25
 412 650 412 650 409 639 c 128,-1,26
 406 628 406 628 402 616 c 128,-1,27
 398 604 398 604 393 588 c 1,28,-1
 368 588 l 1,29,-1
 312 660 l 1,30,31
 300 665 300 665 289.5 666.5 c 128,-1,32
 279 668 279 668 263 668 c 0,33,34
 220 668 220 668 200 645 c 128,-1,35
 180 622 180 622 180 596 c 0,36,37
 180 566 180 566 201.5 546.5 c 128,-1,38
 223 527 223 527 255 512 c 128,-1,39
 287 497 287 497 324 483.5 c 128,-1,40
 361 470 361 470 393 451 c 128,-1,41
 425 432 425 432 446.5 405 c 128,-1,42
 468 378 468 378 468 337 c 0,43,44
 468 308 468 308 456 284.5 c 128,-1,45
 444 261 444 261 425 242 c 128,-1,46
 406 223 406 223 383 208.5 c 128,-1,47
 360 194 360 194 339 184 c 1,48,49
 359 175 359 175 377 164.5 c 128,-1,50
 395 154 395 154 408.5 140 c 128,-1,51
 422 126 422 126 429.5 108.5 c 128,-1,52
 437 91 437 91 437 68 c 0,53,54
 437 -2 437 -2 384 -42 c 128,-1,55
 331 -82 331 -82 242 -82 c 0,56,57
 159 -82 159 -82 80 -53 c 1,58,59
 81 -35 81 -35 83.5 -22.5 c 128,-1,60
 86 -10 86 -10 89 1.5 c 128,-1,61
 92 13 92 13 96 24.5 c 128,-1,62
 100 36 100 36 105 52 c 1,63,-1
 130 52 l 1,64,-1
 194 -27 l 1,65,66
 205 -36 205 -36 215.5 -37 c 128,-1,67
 226 -38 226 -38 240 -38 c 0,68,69
 288 -38 288 -38 317.5 -14 c 128,-1,70
 347 10 347 10 347 44 c 0,0,1
378 313 m 0,71,72
 378 337 378 337 366 354.5 c 128,-1,73
 354 372 354 372 334 384.5 c 128,-1,74
 314 397 314 397 288.5 407.5 c 128,-1,75
 263 418 263 418 236 429 c 1,76,77
 202 413 202 413 175.5 385.5 c 128,-1,78
 149 358 149 358 149 326 c 0,79,80
 149 300 149 300 161.5 281 c 128,-1,81
 174 262 174 262 194 248 c 128,-1,82
 214 234 214 234 240.5 223 c 128,-1,83
 267 212 267 212 294 202 c 1,84,85
 311 212 311 212 326 226 c 128,-1,86
 341 240 341 240 352.5 254.5 c 128,-1,87
 364 269 364 269 371 284 c 128,-1,88
 378 299 378 299 378 313 c 0,71,72
EndSplineSet
EndChar

StartChar: dieresis
Encoding: 168 168 106
Width: 450
Flags: W
LayerCount: 2
Fore
SplineSet
60 663 m 0,0,1
 60 687 60 687 75 701.5 c 128,-1,2
 90 716 90 716 114 716 c 256,3,4
 138 716 138 716 153 701.5 c 128,-1,5
 168 687 168 687 168 663 c 0,6,7
 168 640 168 640 153 626 c 128,-1,8
 138 612 138 612 114 612 c 256,9,10
 90 612 90 612 75 626 c 128,-1,11
 60 640 60 640 60 663 c 0,0,1
282 663 m 0,12,13
 282 687 282 687 297 701.5 c 128,-1,14
 312 716 312 716 336 716 c 256,15,16
 360 716 360 716 375 701.5 c 128,-1,17
 390 687 390 687 390 663 c 0,18,19
 390 640 390 640 375 626 c 128,-1,20
 360 612 360 612 336 612 c 256,21,22
 312 612 312 612 297 626 c 128,-1,23
 282 640 282 640 282 663 c 0,12,13
EndSplineSet
EndChar

StartChar: copyright
Encoding: 169 169 107
Width: 807
Flags: W
LayerCount: 2
Fore
SplineSet
51 290 m 256,0,1
 51 373 51 373 80.5 438.5 c 128,-1,2
 110 504 110 504 159 549 c 128,-1,3
 208 594 208 594 271.5 618 c 128,-1,4
 335 642 335 642 404 642 c 256,5,6
 473 642 473 642 536.5 618 c 128,-1,7
 600 594 600 594 648.5 549 c 128,-1,8
 697 504 697 504 726.5 438.5 c 128,-1,9
 756 373 756 373 756 290 c 256,10,11
 756 207 756 207 726.5 141.5 c 128,-1,12
 697 76 697 76 648.5 31 c 128,-1,13
 600 -14 600 -14 536.5 -38 c 128,-1,14
 473 -62 473 -62 404 -62 c 0,15,16
 332 -62 332 -62 267.5 -38 c 128,-1,17
 203 -14 203 -14 155 31 c 128,-1,18
 107 76 107 76 79 141.5 c 128,-1,19
 51 207 51 207 51 290 c 256,0,1
103 290 m 256,20,21
 103 221 103 221 126.5 164.5 c 128,-1,22
 150 108 150 108 191 68.5 c 128,-1,23
 232 29 232 29 287 7 c 128,-1,24
 342 -15 342 -15 404 -15 c 256,25,26
 466 -15 466 -15 521 7 c 128,-1,27
 576 29 576 29 616.5 68.5 c 128,-1,28
 657 108 657 108 680.5 164.5 c 128,-1,29
 704 221 704 221 704 290 c 256,30,31
 704 359 704 359 679 415.5 c 128,-1,32
 654 472 654 472 612.5 511.5 c 128,-1,33
 571 551 571 551 516.5 573 c 128,-1,34
 462 595 462 595 404 595 c 0,35,36
 338 595 338 595 282.5 573 c 128,-1,37
 227 551 227 551 187.5 511 c 128,-1,38
 148 471 148 471 125.5 415 c 128,-1,39
 103 359 103 359 103 290 c 256,20,21
510 206 m 1,40,-1
 535 206 l 1,41,42
 539 191 539 191 541 160.5 c 128,-1,43
 543 130 543 130 540 106 c 1,44,45
 531 99 531 99 517.5 94.5 c 128,-1,46
 504 90 504 90 489 87 c 128,-1,47
 474 84 474 84 458 83 c 128,-1,48
 442 82 442 82 429 82 c 0,49,50
 380 82 380 82 339.5 95.5 c 128,-1,51
 299 109 299 109 269.5 135.5 c 128,-1,52
 240 162 240 162 223.5 201 c 128,-1,53
 207 240 207 240 207 291 c 0,54,55
 207 343 207 343 225.5 382 c 128,-1,56
 244 421 244 421 273.5 447 c 128,-1,57
 303 473 303 473 340.5 486.5 c 128,-1,58
 378 500 378 500 416 500 c 0,59,60
 455 500 455 500 486 494.5 c 128,-1,61
 517 489 517 489 537 479 c 1,62,63
 538 470 538 470 538 455.5 c 128,-1,64
 538 441 538 441 537 425 c 128,-1,65
 536 409 536 409 534 394 c 128,-1,66
 532 379 532 379 529 369 c 1,67,-1
 504 369 l 1,68,-1
 474 452 l 1,69,70
 467 457 467 457 452 457.5 c 128,-1,71
 437 458 437 458 423 458 c 0,72,73
 366 458 366 458 334.5 413.5 c 128,-1,74
 303 369 303 369 303 291 c 0,75,76
 303 258 303 258 310 227.5 c 128,-1,77
 317 197 317 197 332.5 173.5 c 128,-1,78
 348 150 348 150 373 136.5 c 128,-1,79
 398 123 398 123 433 123 c 0,80,81
 453 123 453 123 465.5 127 c 128,-1,82
 478 131 478 131 482 135 c 1,83,-1
 510 206 l 1,40,-1
EndSplineSet
EndChar

StartChar: ordfeminine
Encoding: 170 170 108
Width: 430
Flags: W
LayerCount: 2
Fore
SplineSet
99 605 m 1,0,1
 89 616 89 616 82 635.5 c 128,-1,2
 75 655 75 655 74 676 c 1,3,4
 99 689 99 689 135.5 698.5 c 128,-1,5
 172 708 172 708 234 708 c 0,6,7
 298 708 298 708 321.5 682 c 128,-1,8
 345 656 345 656 345 607 c 0,9,10
 345 588 345 588 344.5 565.5 c 128,-1,11
 344 543 344 543 343.5 521 c 128,-1,12
 343 499 343 499 342.5 478.5 c 128,-1,13
 342 458 342 458 342 442 c 1,14,-1
 392 432 l 1,15,-1
 392 406 l 1,16,17
 373 395 373 395 351.5 387.5 c 128,-1,18
 330 380 330 380 307 378 c 1,19,-1
 290 378 l 1,20,21
 283 395 283 395 280.5 411.5 c 128,-1,22
 278 428 278 428 277 445 c 1,23,-1
 273 445 l 1,24,25
 268 436 268 436 259 424 c 128,-1,26
 250 412 250 412 235.5 401.5 c 128,-1,27
 221 391 221 391 201 383.5 c 128,-1,28
 181 376 181 376 154 376 c 0,29,30
 108 376 108 376 78.5 401.5 c 128,-1,31
 49 427 49 427 49 471 c 0,32,33
 49 502 49 502 64.5 521.5 c 128,-1,34
 80 541 80 541 107 552 c 128,-1,35
 134 563 134 563 169.5 567.5 c 128,-1,36
 205 572 205 572 245 572 c 0,37,38
 252 572 252 572 258.5 571.5 c 128,-1,39
 265 571 265 571 272 571 c 1,40,41
 273 577 273 577 273 587.5 c 128,-1,42
 273 598 273 598 273 603 c 0,43,44
 273 616 273 616 270 628 c 128,-1,45
 267 640 267 640 259 649.5 c 128,-1,46
 251 659 251 659 237.5 664.5 c 128,-1,47
 224 670 224 670 202 670 c 0,48,49
 190 670 190 670 176 668 c 128,-1,50
 162 666 162 666 148 661 c 1,51,-1
 126 605 l 1,52,-1
 99 605 l 1,0,1
182 422 m 0,53,54
 203 422 203 422 218 429 c 128,-1,55
 233 436 233 436 243.5 445.5 c 128,-1,56
 254 455 254 455 261 466 c 128,-1,57
 268 477 268 477 272 486 c 1,58,-1
 272 538 l 1,59,60
 261 539 261 539 251 539 c 128,-1,61
 241 539 241 539 231 539 c 0,62,63
 211 539 211 539 192.5 535.5 c 128,-1,64
 174 532 174 532 160 524.5 c 128,-1,65
 146 517 146 517 137.5 505 c 128,-1,66
 129 493 129 493 129 476 c 0,67,68
 129 456 129 456 142.5 439 c 128,-1,69
 156 422 156 422 182 422 c 0,53,54
EndSplineSet
EndChar

StartChar: guillemotleft
Encoding: 171 171 109
Width: 471
Flags: W
LayerCount: 2
Fore
SplineSet
218 259 m 1,0,-1
 387 464 l 1,1,-1
 412 445 l 1,2,-1
 306 266 l 1,3,-1
 418 77 l 1,4,-1
 394 57 l 1,5,-1
 218 259 l 1,0,-1
24 259 m 1,6,-1
 237 466 l 1,7,-1
 263 446 l 1,8,-1
 123 265 l 1,9,-1
 269 76 l 1,10,-1
 243 55 l 1,11,-1
 24 259 l 1,6,-1
EndSplineSet
Position2: "'case' Case-Sensitive Forms lookup 1 per glyph data 3" dx=0 dy=100 dh=0 dv=0
EndChar

StartChar: logicalnot
Encoding: 172 172 110
Width: 533
Flags: W
LayerCount: 2
Fore
SplineSet
55 387 m 1,0,-1
 480 387 l 1,1,-1
 480 198 l 1,2,-1
 418 198 l 1,3,-1
 418 324 l 1,4,-1
 55 324 l 1,5,-1
 55 387 l 1,0,-1
EndSplineSet
EndChar

StartChar: registered
Encoding: 174 174 112
Width: 700
Flags: W
LayerCount: 2
Fore
SplineSet
83 451 m 0,0,1
 83 515 83 515 104.5 564.5 c 128,-1,2
 126 614 126 614 162.5 648 c 128,-1,3
 199 682 199 682 247.5 699.5 c 128,-1,4
 296 717 296 717 350 717 c 0,5,6
 406 717 406 717 454.5 699.5 c 128,-1,7
 503 682 503 682 539 648 c 128,-1,8
 575 614 575 614 596 564.5 c 128,-1,9
 617 515 617 515 617 451 c 0,10,11
 617 386 617 386 595.5 336.5 c 128,-1,12
 574 287 574 287 537.5 253 c 128,-1,13
 501 219 501 219 452.5 201.5 c 128,-1,14
 404 184 404 184 350 184 c 0,15,16
 294 184 294 184 245.5 201.5 c 128,-1,17
 197 219 197 219 161 253 c 128,-1,18
 125 287 125 287 104 336.5 c 128,-1,19
 83 386 83 386 83 451 c 0,0,1
130 451 m 256,20,21
 130 399 130 399 147.5 357.5 c 128,-1,22
 165 316 165 316 195 286.5 c 128,-1,23
 225 257 225 257 265 241.5 c 128,-1,24
 305 226 305 226 350 226 c 0,25,26
 397 226 397 226 437.5 241.5 c 128,-1,27
 478 257 478 257 507.5 286 c 128,-1,28
 537 315 537 315 553.5 356.5 c 128,-1,29
 570 398 570 398 570 451 c 0,30,31
 570 503 570 503 552.5 544.5 c 128,-1,32
 535 586 535 586 505 615 c 128,-1,33
 475 644 475 644 435 660 c 128,-1,34
 395 676 395 676 350 675 c 1,35,36
 302 676 302 676 262 660 c 128,-1,37
 222 644 222 644 192.5 615 c 128,-1,38
 163 586 163 586 146.5 544.5 c 128,-1,39
 130 503 130 503 130 451 c 256,20,21
316 342 m 1,40,41
 329 341 329 341 337.5 338.5 c 128,-1,42
 346 336 346 336 353 333 c 1,43,-1
 353 309 l 1,44,-1
 229 309 l 1,45,-1
 229 333 l 1,46,47
 246 339 246 339 264 342 c 1,48,-1
 264 575 l 1,49,50
 253 576 253 576 245 578.5 c 128,-1,51
 237 581 237 581 229 586 c 1,52,-1
 229 608 l 1,53,-1
 267 608 l 2,54,55
 285 608 285 608 310 610 c 128,-1,56
 335 612 335 612 351 612 c 0,57,58
 373 612 373 612 393.5 607.5 c 128,-1,59
 414 603 414 603 430 592.5 c 128,-1,60
 446 582 446 582 455 566 c 128,-1,61
 464 550 464 550 464 528 c 0,62,63
 464 497 464 497 442.5 479 c 128,-1,64
 421 461 421 461 393 452 c 1,65,66
 411 423 411 423 427.5 395.5 c 128,-1,67
 444 368 444 368 473 342 c 1,68,-1
 496 330 l 1,69,-1
 496 309 l 1,70,-1
 446 309 l 1,71,-1
 418 320 l 1,72,73
 393 350 393 350 378 382 c 128,-1,74
 363 414 363 414 352 443 c 1,75,-1
 316 443 l 1,76,-1
 316 342 l 1,40,41
346 580 m 0,77,78
 335 580 335 580 328.5 579.5 c 128,-1,79
 322 579 322 579 316 577 c 1,80,-1
 316 472 l 1,81,-1
 348 472 l 2,82,83
 408 472 408 472 406 528 c 0,84,85
 405 554 405 554 388.5 567 c 128,-1,86
 372 580 372 580 346 580 c 0,77,78
EndSplineSet
EndChar

StartChar: macron
Encoding: 175 175 113
Width: 373
Flags: W
LayerCount: 2
Fore
SplineSet
60 637 m 1,0,-1
 60 689 l 1,1,-1
 313 689 l 1,2,-1
 313 637 l 1,3,-1
 60 637 l 1,0,-1
EndSplineSet
EndChar

StartChar: degree
Encoding: 176 176 114
Width: 424
Flags: W
LayerCount: 2
Fore
SplineSet
83 571 m 0,0,1
 83 602 83 602 94 628 c 128,-1,2
 105 654 105 654 124.5 672.5 c 128,-1,3
 144 691 144 691 170 701.5 c 128,-1,4
 196 712 196 712 225 712 c 256,5,6
 254 712 254 712 280 703 c 128,-1,7
 306 694 306 694 325 676.5 c 128,-1,8
 344 659 344 659 355 632.5 c 128,-1,9
 366 606 366 606 366 571 c 0,10,11
 366 538 366 538 355 512 c 128,-1,12
 344 486 344 486 325 467.5 c 128,-1,13
 306 449 306 449 280 439.5 c 128,-1,14
 254 430 254 430 225 430 c 256,15,16
 196 430 196 430 170 439.5 c 128,-1,17
 144 449 144 449 124.5 467.5 c 128,-1,18
 105 486 105 486 94 512 c 128,-1,19
 83 538 83 538 83 571 c 0,0,1
139 571 m 0,20,21
 139 530 139 530 164.5 504.5 c 128,-1,22
 190 479 190 479 225 479 c 0,23,24
 263 479 263 479 287 503 c 128,-1,25
 311 527 311 527 311 571 c 0,26,27
 311 613 311 613 287 638 c 128,-1,28
 263 663 263 663 225 663 c 256,29,30
 187 663 187 663 163 638 c 128,-1,31
 139 613 139 613 139 571 c 0,20,21
EndSplineSet
EndChar

StartChar: plusminus
Encoding: 177 177 115
Width: 533
Flags: W
LayerCount: 2
Fore
SplineSet
42 490 m 1,0,-1
 240 490 l 1,1,-1
 240 700 l 1,2,-1
 293 700 l 1,3,-1
 293 490 l 1,4,-1
 491 490 l 1,5,-1
 491 437 l 1,6,-1
 293 437 l 1,7,-1
 293 283 l 1,8,-1
 240 283 l 1,9,-1
 240 437 l 1,10,-1
 42 437 l 1,11,-1
 42 490 l 1,0,-1
42 230 m 1,12,-1
 491 230 l 1,13,-1
 491 177 l 1,14,-1
 42 177 l 1,15,-1
 42 230 l 1,12,-1
EndSplineSet
EndChar

StartChar: acute
Encoding: 180 180 118
Width: 329
Flags: W
LayerCount: 2
Fore
SplineSet
177 767 m 1,0,1
 185 768 185 768 198 766.5 c 128,-1,2
 211 765 211 765 225 762 c 128,-1,3
 239 759 239 759 251 754.5 c 128,-1,4
 263 750 263 750 269 745 c 1,5,-1
 269 726 l 1,6,-1
 82 575 l 1,7,-1
 60 593 l 1,8,-1
 177 767 l 1,0,1
EndSplineSet
EndChar

StartChar: mu
Encoding: 181 181 119
AltUni2: 0003bc.ffffffff.0
Width: 574
Flags: W
LayerCount: 2
Fore
SplineSet
134 15 m 1,0,-1
 169 -175 l 1,1,-1
 169 -200 l 1,2,3
 121 -214 121 -214 77 -200 c 1,4,-1
 77 442 l 1,5,-1
 17 450 l 1,6,-1
 17 476 l 1,7,8
 49 488 49 488 82.5 497 c 128,-1,9
 116 506 116 506 148 512 c 1,10,-1
 173 512 l 1,11,12
 173 437 173 437 170 363 c 128,-1,13
 167 289 167 289 167 216 c 0,14,15
 167 177 167 177 171.5 146 c 128,-1,16
 176 115 176 115 187.5 94 c 128,-1,17
 199 73 199 73 219 61.5 c 128,-1,18
 239 50 239 50 270 50 c 0,19,20
 315 50 315 50 346 82.5 c 128,-1,21
 377 115 377 115 394 167 c 1,22,-1
 394 442 l 1,23,-1
 328 450 l 1,24,-1
 328 476 l 1,25,26
 359 488 359 488 393 497 c 128,-1,27
 427 506 427 506 459 512 c 1,28,-1
 484 512 l 1,29,-1
 484 57 l 1,30,-1
 550 49 l 1,31,-1
 550 28 l 1,32,33
 521 15 521 15 491 5 c 128,-1,34
 461 -5 461 -5 429 -10 c 1,35,-1
 404 -10 l 1,36,-1
 397 109 l 1,37,-1
 393 109 l 1,38,39
 388 88 388 88 375.5 66.5 c 128,-1,40
 363 45 363 45 343.5 27.5 c 128,-1,41
 324 10 324 10 298.5 -1 c 128,-1,42
 273 -12 273 -12 243 -12 c 0,43,44
 211 -12 211 -12 185.5 -6 c 128,-1,45
 160 0 160 0 140 15 c 1,46,-1
 134 15 l 1,0,-1
EndSplineSet
EndChar

StartChar: paragraph
Encoding: 182 182 120
Width: 511
Flags: W
LayerCount: 2
Fore
SplineSet
376 94 m 1,0,1
 375 27 375 27 366 -15.5 c 128,-1,2
 357 -58 357 -58 340 -83.5 c 128,-1,3
 323 -109 323 -109 299.5 -121 c 128,-1,4
 276 -133 276 -133 247 -139 c 1,5,6
 227 -171 227 -171 200.5 -187.5 c 128,-1,7
 174 -204 174 -204 148 -212 c 1,8,-1
 136 -192 l 1,9,10
 158 -183 158 -183 177 -167.5 c 128,-1,11
 196 -152 196 -152 209.5 -127 c 128,-1,12
 223 -102 223 -102 230.5 -65 c 128,-1,13
 238 -28 238 -28 238 24 c 2,14,-1
 238 310 l 1,15,16
 206 310 206 310 174.5 320 c 128,-1,17
 143 330 143 330 117.5 352.5 c 128,-1,18
 92 375 92 375 76 411.5 c 128,-1,19
 60 448 60 448 60 500 c 0,20,21
 60 542 60 542 72.5 578.5 c 128,-1,22
 85 615 85 615 109.5 642 c 128,-1,23
 134 669 134 669 172 684.5 c 128,-1,24
 210 700 210 700 261 700 c 2,25,-1
 451 700 l 1,26,-1
 451 670 l 1,27,28
 434 662 434 662 416.5 656 c 128,-1,29
 399 650 399 650 376 646 c 1,30,-1
 376 94 l 1,0,1
259 -116 m 1,31,32
 301 -99 301 -99 315 -47 c 128,-1,33
 329 5 329 5 329 94 c 2,34,-1
 329 651 l 1,35,-1
 285 651 l 1,36,-1
 285 24 l 2,37,38
 285 -16 285 -16 279 -53 c 128,-1,39
 273 -90 273 -90 259 -116 c 1,31,32
EndSplineSet
EndChar

StartChar: cedilla
Encoding: 184 184 122
Width: 284
Flags: W
LayerCount: 2
Fore
SplineSet
117 -68 m 1,0,1
 172 -70 172 -70 197 -88.5 c 128,-1,2
 222 -107 222 -107 223 -139 c 0,3,4
 224 -168 224 -168 208.5 -189.5 c 128,-1,5
 193 -211 193 -211 169 -225 c 128,-1,6
 145 -239 145 -239 116 -245.5 c 128,-1,7
 87 -252 87 -252 60 -251 c 1,8,-1
 60 -221 l 1,9,10
 98 -216 98 -216 121 -201 c 128,-1,11
 144 -186 144 -186 143 -155 c 0,12,13
 143 -130 143 -130 123 -119 c 128,-1,14
 103 -108 103 -108 61 -105 c 1,15,-1
 98 1 l 1,16,-1
 143 1 l 1,17,-1
 117 -68 l 1,0,1
EndSplineSet
EndChar

StartChar: ordmasculine
Encoding: 186 186 124
Width: 435
Flags: W
LayerCount: 2
Fore
SplineSet
43 542 m 0,0,1
 43 581 43 581 56 612 c 128,-1,2
 69 643 69 643 92.5 665.5 c 128,-1,3
 116 688 116 688 147.5 700 c 128,-1,4
 179 712 179 712 217 712 c 256,5,6
 255 712 255 712 287 701.5 c 128,-1,7
 319 691 319 691 342 670 c 128,-1,8
 365 649 365 649 378 617 c 128,-1,9
 391 585 391 585 391 542 c 0,10,11
 391 503 391 503 378 471.5 c 128,-1,12
 365 440 365 440 342 418 c 128,-1,13
 319 396 319 396 287 384 c 128,-1,14
 255 372 255 372 217 372 c 256,15,16
 179 372 179 372 147.5 382.5 c 128,-1,17
 116 393 116 393 92.5 414 c 128,-1,18
 69 435 69 435 56 467 c 128,-1,19
 43 499 43 499 43 542 c 0,0,1
127 542 m 0,20,21
 127 482 127 482 150 445.5 c 128,-1,22
 173 409 173 409 217 409 c 0,23,24
 307 409 307 409 307 542 c 0,25,26
 307 674 307 674 217 674 c 256,27,28
 127 674 127 674 127 542 c 0,20,21
EndSplineSet
EndChar

StartChar: guillemotright
Encoding: 187 187 125
Width: 471
Flags: W
LayerCount: 2
Fore
SplineSet
77 57 m 1,0,-1
 53 77 l 1,1,-1
 165 261 l 1,2,-1
 58 445 l 1,3,-1
 83 464 l 1,4,-1
 253 259 l 1,5,-1
 77 57 l 1,0,-1
228 55 m 1,6,-1
 202 76 l 1,7,-1
 347 260 l 1,8,-1
 207 446 l 1,9,-1
 233 466 l 1,10,-1
 446 259 l 1,11,-1
 228 55 l 1,6,-1
EndSplineSet
Position2: "'case' Case-Sensitive Forms lookup 1 per glyph data 3" dx=0 dy=100 dh=0 dv=0
EndChar

StartChar: questiondown
Encoding: 191 191 129
Width: 473
Flags: W
LayerCount: 2
Fore
SplineSet
346 -15 m 1,0,-1
 371 -15 l 1,1,2
 379 -42 379 -42 389 -84.5 c 128,-1,3
 399 -127 399 -127 403 -166 c 1,4,5
 365 -189 365 -189 321.5 -198.5 c 128,-1,6
 278 -208 278 -208 215 -208 c 0,7,8
 170 -208 170 -208 136.5 -195.5 c 128,-1,9
 103 -183 103 -183 80.5 -161.5 c 128,-1,10
 58 -140 58 -140 46.5 -110 c 128,-1,11
 35 -80 35 -80 35 -45 c 0,12,13
 35 0 35 0 51.5 33.5 c 128,-1,14
 68 67 68 67 92.5 94 c 128,-1,15
 117 121 117 121 146 144.5 c 128,-1,16
 175 168 175 168 200 193.5 c 128,-1,17
 225 219 225 219 241.5 250 c 128,-1,18
 258 281 258 281 258 323 c 1,19,-1
 278 323 l 1,20,21
 290 275 290 275 284 239.5 c 128,-1,22
 278 204 278 204 261.5 176 c 128,-1,23
 245 148 245 148 222.5 125 c 128,-1,24
 200 102 200 102 179.5 78 c 128,-1,25
 159 54 159 54 145 27 c 128,-1,26
 131 0 131 0 131 -35 c 0,27,28
 131 -57 131 -57 137 -78.5 c 128,-1,29
 143 -100 143 -100 156.5 -117.5 c 128,-1,30
 170 -135 170 -135 191.5 -145.5 c 128,-1,31
 213 -156 213 -156 243 -156 c 0,32,33
 275 -156 275 -156 295 -151 c 128,-1,34
 315 -146 315 -146 323 -138 c 1,35,-1
 346 -15 l 1,0,-1
330 446 m 0,36,37
 330 417 330 417 311.5 399 c 128,-1,38
 293 381 293 381 263 381 c 0,39,40
 232 381 232 381 213 399 c 128,-1,41
 194 417 194 417 194 446 c 0,42,43
 194 476 194 476 213 494 c 128,-1,44
 232 512 232 512 263 512 c 0,45,46
 293 512 293 512 311.5 494 c 128,-1,47
 330 476 330 476 330 446 c 0,36,37
EndSplineSet
Position2: "'case' Case-Sensitive Forms lookup 1 per glyph data 3" dx=0 dy=100 dh=0 dv=0
EndChar

StartChar: Aring
Encoding: 197 197 135
Width: 683
Flags: W
LayerCount: 2
Fore
SplineSet
230 788 m 0,0,1
 230 808 230 808 239 824 c 128,-1,2
 248 840 248 840 264 851 c 128,-1,3
 280 862 280 862 300.5 868 c 128,-1,4
 321 874 321 874 345 874 c 0,5,6
 364 874 364 874 383.5 869 c 128,-1,7
 403 864 403 864 419 854 c 128,-1,8
 435 844 435 844 444.5 828.5 c 128,-1,9
 454 813 454 813 454 791 c 0,10,11
 454 754 454 754 424.5 733 c 128,-1,12
 395 712 395 712 355 709 c 1,13,-1
 607 53 l 1,14,15
 627 49 627 49 646.5 44 c 128,-1,16
 666 39 666 39 683 29 c 1,17,-1
 683 0 l 1,18,-1
 427 0 l 1,19,-1
 427 29 l 1,20,21
 447 37 447 37 468 43 c 128,-1,22
 489 49 489 49 509 53 c 1,23,-1
 441 236 l 1,24,-1
 202 236 l 1,25,-1
 136 53 l 1,26,27
 178 47 178 47 222 29 c 1,28,-1
 222 0 l 1,29,-1
 0 0 l 1,30,-1
 0 29 l 1,31,32
 36 45 36 45 72 53 c 1,33,-1
 324 710 l 1,34,35
 282 714 282 714 256 734 c 128,-1,36
 230 754 230 754 230 788 c 0,0,1
222 288 m 1,37,-1
 424 288 l 1,38,-1
 345 500 l 1,39,-1
 326 586 l 1,40,-1
 324 586 l 1,41,-1
 299 498 l 1,42,-1
 222 288 l 1,37,-1
286 788 m 0,43,44
 286 768 286 768 303.5 759 c 128,-1,45
 321 750 321 750 340 750 c 0,46,47
 366 750 366 750 382 759 c 128,-1,48
 398 768 398 768 398 787 c 0,49,50
 398 813 398 813 380 823 c 128,-1,51
 362 833 362 833 343 833 c 0,52,53
 318 833 318 833 302 823.5 c 128,-1,54
 286 814 286 814 286 788 c 0,43,44
EndSplineSet
Position2: "'cpsp' Capital Spacing lookup 0 subtable" dx=40 dy=0 dh=80 dv=0
EndChar

StartChar: AE
Encoding: 198 198 136
Width: 921
Flags: W
LayerCount: 2
Fore
SplineSet
842 700 m 1,0,1
 841 660 841 660 839 619.5 c 128,-1,2
 837 579 837 579 831 538 c 1,3,-1
 806 538 l 1,4,-1
 764 648 l 1,5,-1
 547 648 l 1,6,-1
 547 383 l 1,7,-1
 709 383 l 1,8,-1
 749 457 l 1,9,-1
 773 457 l 1,10,11
 781 358 781 358 773 255 c 1,12,-1
 749 255 l 1,13,-1
 709 331 l 1,14,-1
 547 331 l 1,15,-1
 547 52 l 1,16,-1
 777 52 l 1,17,-1
 825 172 l 1,18,-1
 851 172 l 1,19,20
 857 130 857 130 860.5 87 c 128,-1,21
 864 44 864 44 862 0 c 1,22,-1
 369 0 l 1,23,-1
 369 29 l 1,24,25
 404 45 404 45 451 53 c 1,26,-1
 451 256 l 1,27,-1
 255 256 l 1,28,-1
 139 53 l 1,29,30
 180 47 180 47 224 29 c 1,31,-1
 224 0 l 1,32,-1
 0 0 l 1,33,-1
 0 29 l 1,34,35
 36 45 36 45 72 53 c 1,36,-1
 426 652 l 1,37,38
 412 656 412 656 397 660.5 c 128,-1,39
 382 665 382 665 368 671 c 1,40,-1
 368 700 l 1,41,-1
 842 700 l 1,0,1
285 308 m 1,42,-1
 451 308 l 1,43,-1
 451 611 l 1,44,-1
 449 611 l 1,45,-1
 408 518 l 1,46,-1
 285 308 l 1,42,-1
EndSplineSet
Position2: "'cpsp' Capital Spacing lookup 0 subtable" dx=40 dy=0 dh=80 dv=0
EndChar

StartChar: Ccedilla
Encoding: 199 199 137
Width: 644
Flags: W
LayerCount: 2
Fore
SplineSet
547 182 m 1,0,-1
 573 182 l 1,1,2
 578 154 578 154 582 111.5 c 128,-1,3
 586 69 586 69 584 29 c 1,4,5
 567 16 567 16 543.5 8 c 128,-1,6
 520 0 520 0 494 -4.5 c 128,-1,7
 468 -9 468 -9 441.5 -10.5 c 128,-1,8
 415 -12 415 -12 392 -12 c 1,9,-1
 368 -75 l 1,10,11
 428 -76 428 -76 456.5 -97.5 c 128,-1,12
 485 -119 485 -119 485 -154 c 0,13,14
 485 -184 485 -184 467.5 -206 c 128,-1,15
 450 -228 450 -228 423.5 -243 c 128,-1,16
 397 -258 397 -258 365 -265 c 128,-1,17
 333 -272 333 -272 304 -272 c 1,18,-1
 304 -239 l 1,19,20
 344 -233 344 -233 371 -217 c 128,-1,21
 398 -201 398 -201 397 -172 c 0,22,23
 396 -144 396 -144 374 -131.5 c 128,-1,24
 352 -119 352 -119 307 -116 c 1,25,-1
 343 -8 l 1,26,27
 205 7 205 7 129 93.5 c 128,-1,28
 53 180 53 180 53 350 c 0,29,30
 53 448 53 448 80 516.5 c 128,-1,31
 107 585 107 585 153 628.5 c 128,-1,32
 199 672 199 672 260 692 c 128,-1,33
 321 712 321 712 388 712 c 0,34,35
 454 712 454 712 499 703.5 c 128,-1,36
 544 695 544 695 578 678 c 1,37,38
 578 662 578 662 577 640.5 c 128,-1,39
 576 619 576 619 574 595 c 128,-1,40
 572 571 572 571 569 548 c 128,-1,41
 566 525 566 525 563 506 c 1,42,-1
 537 506 l 1,43,-1
 485 650 l 1,44,45
 474 656 474 656 448.5 658 c 128,-1,46
 423 660 423 660 398 660 c 0,47,48
 348 660 348 660 303.5 641.5 c 128,-1,49
 259 623 259 623 225.5 584.5 c 128,-1,50
 192 546 192 546 172 487.5 c 128,-1,51
 152 429 152 429 152 350 c 0,52,53
 152 279 152 279 170 221.5 c 128,-1,54
 188 164 188 164 222 123.5 c 128,-1,55
 256 83 256 83 305 61.5 c 128,-1,56
 354 40 354 40 416 40 c 0,57,58
 449 40 449 40 471 45 c 128,-1,59
 493 50 493 50 500 58 c 1,60,-1
 547 182 l 1,0,-1
EndSplineSet
Position2: "'cpsp' Capital Spacing lookup 0 subtable" dx=40 dy=0 dh=80 dv=0
EndChar

StartChar: Eth
Encoding: 208 208 146
Width: 709
Flags: W
LayerCount: 2
Fore
SplineSet
22 384 m 1,0,-1
 111 384 l 1,1,-1
 111 646 l 1,2,3
 88 651 88 651 67 657.5 c 128,-1,4
 46 664 46 664 29 671 c 1,5,-1
 29 700 l 1,6,-1
 131 700 l 2,7,8
 148 700 148 700 171 701 c 128,-1,9
 194 702 194 702 218.5 703.5 c 128,-1,10
 243 705 243 705 265.5 706.5 c 128,-1,11
 288 708 288 708 303 708 c 0,12,13
 388 708 388 708 453.5 684.5 c 128,-1,14
 519 661 519 661 564 616.5 c 128,-1,15
 609 572 609 572 632.5 507 c 128,-1,16
 656 442 656 442 656 359 c 0,17,18
 656 280 656 280 633.5 212.5 c 128,-1,19
 611 145 611 145 565 96 c 128,-1,20
 519 47 519 47 448.5 19 c 128,-1,21
 378 -9 378 -9 282 -9 c 0,22,23
 268 -9 268 -9 248.5 -7.5 c 128,-1,24
 229 -6 229 -6 208 -4.5 c 128,-1,25
 187 -3 187 -3 165.5 -1.5 c 128,-1,26
 144 0 144 0 125 0 c 2,27,-1
 29 0 l 1,28,-1
 29 29 l 1,29,30
 64 45 64 45 111 53 c 1,31,-1
 111 332 l 1,32,-1
 22 332 l 1,33,-1
 22 384 l 1,0,-1
289 656 m 0,34,35
 263 656 263 656 239 655.5 c 128,-1,36
 215 655 215 655 201 652 c 1,37,-1
 201 384 l 1,38,-1
 368 384 l 1,39,-1
 368 332 l 1,40,-1
 201 332 l 1,41,-1
 201 46 l 1,42,43
 206 45 206 45 219.5 44.5 c 128,-1,44
 233 44 233 44 248 43.5 c 128,-1,45
 263 43 263 43 276.5 43 c 128,-1,46
 290 43 290 43 296 43 c 0,47,48
 365 43 365 43 413 69 c 128,-1,49
 461 95 461 95 491 138.5 c 128,-1,50
 521 182 521 182 535 239 c 128,-1,51
 549 296 549 296 549 359 c 0,52,53
 549 408 549 408 535.5 460.5 c 128,-1,54
 522 513 522 513 491.5 556.5 c 128,-1,55
 461 600 461 600 411.5 628 c 128,-1,56
 362 656 362 656 289 656 c 0,34,35
EndSplineSet
Position2: "'cpsp' Capital Spacing lookup 0 subtable" dx=40 dy=0 dh=80 dv=0
EndChar

StartChar: Oslash
Encoding: 216 216 154
Width: 740
Flags: W
LayerCount: 2
Fore
SplineSet
53 350 m 0,0,1
 53 428 53 428 74.5 494.5 c 128,-1,2
 96 561 96 561 136.5 609.5 c 128,-1,3
 177 658 177 658 236 685 c 128,-1,4
 295 712 295 712 370 712 c 0,5,6
 419 712 419 712 460.5 700 c 128,-1,7
 502 688 502 688 537 667 c 1,8,-1
 565 713 l 1,9,-1
 616 684 l 1,10,-1
 582 631 l 1,11,12
 633 582 633 582 660 510 c 128,-1,13
 687 438 687 438 687 350 c 0,14,15
 687 272 687 272 665.5 205.5 c 128,-1,16
 644 139 644 139 603.5 90.5 c 128,-1,17
 563 42 563 42 504 15 c 128,-1,18
 445 -12 445 -12 370 -12 c 0,19,20
 322 -12 322 -12 280.5 -0.5 c 128,-1,21
 239 11 239 11 204 31 c 1,22,-1
 176 -13 l 1,23,-1
 129 16 l 1,24,-1
 159 65 l 1,25,26
 107 114 107 114 80 187 c 128,-1,27
 53 260 53 260 53 350 c 0,0,1
160 350 m 0,28,29
 160 290 160 290 172 237 c 128,-1,30
 184 184 184 184 208 143 c 1,31,-1
 498 606 l 1,32,33
 472 632 472 632 438 646 c 128,-1,34
 404 660 404 660 362 660 c 0,35,36
 307 660 307 660 268.5 635.5 c 128,-1,37
 230 611 230 611 206 569 c 128,-1,38
 182 527 182 527 171 470.5 c 128,-1,39
 160 414 160 414 160 350 c 0,28,29
580 350 m 0,40,41
 580 410 580 410 568.5 461.5 c 128,-1,42
 557 513 557 513 533 554 c 1,43,-1
 244 93 l 1,44,45
 270 67 270 67 303 53.5 c 128,-1,46
 336 40 336 40 379 40 c 0,47,48
 430 40 430 40 468 64.5 c 128,-1,49
 506 89 506 89 530.5 131 c 128,-1,50
 555 173 555 173 567.5 229.5 c 128,-1,51
 580 286 580 286 580 350 c 0,40,41
EndSplineSet
Position2: "'cpsp' Capital Spacing lookup 0 subtable" dx=40 dy=0 dh=80 dv=0
EndChar

StartChar: Thorn
Encoding: 222 222 160
Width: 595
Flags: W
LayerCount: 2
Fore
SplineSet
207 53 m 1,0,1
 263 45 263 45 303 28 c 1,2,-1
 303 0 l 1,3,-1
 29 0 l 1,4,-1
 29 28 l 1,5,6
 49 39 49 39 70 44 c 128,-1,7
 91 49 91 49 111 53 c 1,8,-1
 111 647 l 1,9,10
 70 655 70 655 31 672 c 1,11,-1
 31 700 l 1,12,-1
 287 700 l 1,13,-1
 287 672 l 1,14,15
 269 663 269 663 248 657 c 128,-1,16
 227 651 227 651 207 647 c 1,17,-1
 207 598 l 1,18,19
 230 600 230 600 252.5 601 c 128,-1,20
 275 602 275 602 297 602 c 0,21,22
 346 602 346 602 393 591.5 c 128,-1,23
 440 581 440 581 476.5 556.5 c 128,-1,24
 513 532 513 532 535 491.5 c 128,-1,25
 557 451 557 451 557 391 c 0,26,27
 557 334 557 334 534 293.5 c 128,-1,28
 511 253 511 253 472.5 226.5 c 128,-1,29
 434 200 434 200 385 187.5 c 128,-1,30
 336 175 336 175 284 175 c 0,31,32
 279 175 279 175 268.5 175 c 128,-1,33
 258 175 258 175 246 175.5 c 128,-1,34
 234 176 234 176 223 177 c 128,-1,35
 212 178 212 178 207 179 c 1,36,-1
 207 53 l 1,0,1
275 550 m 0,37,38
 251 550 251 550 236 549 c 128,-1,39
 221 548 221 548 207 544 c 1,40,-1
 207 231 l 1,41,42
 212 229 212 229 221.5 228.5 c 128,-1,43
 231 228 231 228 241.5 227.5 c 128,-1,44
 252 227 252 227 262 227 c 128,-1,45
 272 227 272 227 278 227 c 0,46,47
 313 227 313 227 344 236.5 c 128,-1,48
 375 246 375 246 398.5 266 c 128,-1,49
 422 286 422 286 436 317 c 128,-1,50
 450 348 450 348 450 391 c 0,51,52
 450 469 450 469 403.5 509.5 c 128,-1,53
 357 550 357 550 275 550 c 0,37,38
EndSplineSet
Position2: "'cpsp' Capital Spacing lookup 0 subtable" dx=40 dy=0 dh=80 dv=0
EndChar

StartChar: germandbls
Encoding: 223 223 161
Width: 638
Flags: W
LayerCount: 2
Fore
SplineSet
433 590 m 1,0,1
 433 612 433 612 424.5 633 c 128,-1,2
 416 654 416 654 402 670.5 c 128,-1,3
 388 687 388 687 370 697.5 c 128,-1,4
 352 708 352 708 331 708 c 0,5,6
 304 708 304 708 280 702.5 c 128,-1,7
 256 697 256 697 237.5 678 c 128,-1,8
 219 659 219 659 208 623 c 128,-1,9
 197 587 197 587 197 526 c 2,10,-1
 197 0 l 1,11,-1
 41 0 l 1,12,-1
 41 25 l 1,13,14
 72 43 72 43 107 49 c 1,15,-1
 107 450 l 1,16,-1
 31 450 l 1,17,-1
 31 476 l 1,18,19
 66 498 66 498 107 509 c 1,20,-1
 107 544 l 2,21,22
 107 606 107 606 129 646.5 c 128,-1,23
 151 687 151 687 183.5 710.5 c 128,-1,24
 216 734 216 734 254 743 c 128,-1,25
 292 752 292 752 325 752 c 0,26,27
 379 752 379 752 416.5 737 c 128,-1,28
 454 722 454 722 477.5 697 c 128,-1,29
 501 672 501 672 511.5 640 c 128,-1,30
 522 608 522 608 523 574 c 1,31,32
 485 569 485 569 455 559.5 c 128,-1,33
 425 550 425 550 404 534 c 128,-1,34
 383 518 383 518 372 494.5 c 128,-1,35
 361 471 361 471 361 438 c 0,36,37
 361 407 361 407 378.5 384.5 c 128,-1,38
 396 362 396 362 422.5 342.5 c 128,-1,39
 449 323 449 323 480 304.5 c 128,-1,40
 511 286 511 286 537.5 262.5 c 128,-1,41
 564 239 564 239 581.5 209 c 128,-1,42
 599 179 599 179 599 138 c 0,43,44
 599 68 599 68 551 28 c 128,-1,45
 503 -12 503 -12 414 -12 c 0,46,47
 331 -12 331 -12 252 17 c 1,48,49
 254 42 254 42 260.5 63.5 c 128,-1,50
 267 85 267 85 276 102 c 1,51,-1
 301 102 l 1,52,-1
 366 40 l 1,53,54
 377 35 377 35 387.5 33.5 c 128,-1,55
 398 32 398 32 412 32 c 0,56,57
 460 32 460 32 484.5 56 c 128,-1,58
 509 80 509 80 509 114 c 0,59,60
 509 147 509 147 491.5 170 c 128,-1,61
 474 193 474 193 447.5 212.5 c 128,-1,62
 421 232 421 232 390 250.5 c 128,-1,63
 359 269 359 269 332.5 293 c 128,-1,64
 306 317 306 317 288.5 349 c 128,-1,65
 271 381 271 381 271 427 c 0,66,67
 271 482 271 482 307.5 523 c 128,-1,68
 344 564 344 564 433 590 c 1,0,1
EndSplineSet
EndChar

StartChar: ccedilla
Encoding: 231 231 169
Width: 466
Flags: W
LayerCount: 2
Fore
SplineSet
427 70 m 1,0,1
 408 34 408 34 367 11 c 128,-1,2
 326 -12 326 -12 269 -12 c 1,3,-1
 248 -68 l 1,4,5
 303 -70 303 -70 327.5 -88.5 c 128,-1,6
 352 -107 352 -107 354 -139 c 0,7,8
 355 -168 355 -168 339.5 -189.5 c 128,-1,9
 324 -211 324 -211 300 -225 c 128,-1,10
 276 -239 276 -239 247 -245.5 c 128,-1,11
 218 -252 218 -252 191 -251 c 1,12,-1
 191 -221 l 1,13,14
 229 -216 229 -216 252 -201 c 128,-1,15
 275 -186 275 -186 274 -155 c 0,16,17
 273 -130 273 -130 253.5 -119 c 128,-1,18
 234 -108 234 -108 192 -105 c 1,19,-1
 226 -8 l 1,20,21
 133 6 133 6 87 75 c 128,-1,22
 41 144 41 144 41 250 c 0,23,24
 41 377 41 377 103 444.5 c 128,-1,25
 165 512 165 512 272 512 c 0,26,27
 321 512 321 512 359.5 503.5 c 128,-1,28
 398 495 398 495 425 481 c 1,29,30
 422 448 422 448 414 407 c 128,-1,31
 406 366 406 366 394 339 c 1,32,-1
 367 339 l 1,33,-1
 325 458 l 1,34,35
 318 463 318 463 309 465.5 c 128,-1,36
 300 468 300 468 279 468 c 0,37,38
 211 468 211 468 174 418.5 c 128,-1,39
 137 369 137 369 137 251 c 0,40,41
 137 213 137 213 147.5 177 c 128,-1,42
 158 141 158 141 179.5 112.5 c 128,-1,43
 201 84 201 84 233.5 67 c 128,-1,44
 266 50 266 50 309 50 c 0,45,46
 344 50 344 50 370 60 c 128,-1,47
 396 70 396 70 414 84 c 1,48,-1
 427 70 l 1,0,1
EndSplineSet
EndChar

StartChar: eth
Encoding: 240 240 178
Width: 535
Flags: W
LayerCount: 2
Fore
SplineSet
158 604 m 1,0,-1
 272 650 l 1,1,2
 246 677 246 677 215.5 698.5 c 128,-1,3
 185 720 185 720 151 733 c 1,4,-1
 151 750 l 1,5,-1
 212 750 l 1,6,7
 243 741 243 741 274.5 722.5 c 128,-1,8
 306 704 306 704 335 676 c 1,9,-1
 445 722 l 1,10,-1
 464 679 l 1,11,-1
 371 641 l 1,12,13
 425 578 425 578 461 489 c 128,-1,14
 497 400 497 400 497 289 c 0,15,16
 497 224 497 224 482.5 168.5 c 128,-1,17
 468 113 468 113 438.5 73 c 128,-1,18
 409 33 409 33 365 10.5 c 128,-1,19
 321 -12 321 -12 262 -12 c 0,20,21
 208 -12 208 -12 164.5 6.5 c 128,-1,22
 121 25 121 25 90.5 59 c 128,-1,23
 60 93 60 93 44 139.5 c 128,-1,24
 28 186 28 186 28 242 c 0,25,26
 28 309 28 309 47 360 c 128,-1,27
 66 411 66 411 96.5 444.5 c 128,-1,28
 127 478 127 478 166 495 c 128,-1,29
 205 512 205 512 245 512 c 0,30,31
 298 512 298 512 330.5 495.5 c 128,-1,32
 363 479 363 479 386 455 c 1,33,34
 374 493 374 493 353.5 534 c 128,-1,35
 333 575 333 575 304 613 c 1,36,-1
 178 561 l 1,37,-1
 158 604 l 1,0,-1
124 242 m 0,38,39
 124 201 124 201 133.5 163.5 c 128,-1,40
 143 126 143 126 162 97 c 128,-1,41
 181 68 181 68 207.5 51 c 128,-1,42
 234 34 234 34 269 34 c 0,43,44
 301 34 301 34 326 51 c 128,-1,45
 351 68 351 68 367.5 99.5 c 128,-1,46
 384 131 384 131 392.5 175 c 128,-1,47
 401 219 401 219 401 274 c 0,48,49
 401 327 401 327 397.5 358 c 128,-1,50
 394 389 394 389 391 402 c 1,51,52
 376 427 376 427 343.5 443.5 c 128,-1,53
 311 460 311 460 264 460 c 0,54,55
 203 460 203 460 163.5 405.5 c 128,-1,56
 124 351 124 351 124 242 c 0,38,39
EndSplineSet
EndChar

StartChar: oslash
Encoding: 248 248 186
Width: 553
Flags: W
LayerCount: 2
Fore
SplineSet
116 41 m 1,0,1
 78 76 78 76 59.5 129 c 128,-1,2
 41 182 41 182 41 250 c 0,3,4
 41 313 41 313 57.5 361.5 c 128,-1,5
 74 410 74 410 105 443.5 c 128,-1,6
 136 477 136 477 179.5 494.5 c 128,-1,7
 223 512 223 512 276 512 c 0,8,9
 353 512 353 512 404 482 c 1,10,-1
 450 553 l 1,11,-1
 488 527 l 1,12,-1
 441 456 l 1,13,14
 477 421 477 421 494.5 368.5 c 128,-1,15
 512 316 512 316 512 250 c 0,16,17
 512 124 512 124 448 56 c 128,-1,18
 384 -12 384 -12 276 -12 c 0,19,20
 240 -12 240 -12 209.5 -5 c 128,-1,21
 179 2 179 2 154 15 c 1,22,-1
 104 -62 l 1,23,-1
 66 -35 l 1,24,-1
 116 41 l 1,0,1
137 250 m 0,25,26
 137 211 137 211 143.5 176.5 c 128,-1,27
 150 142 150 142 164 114 c 1,28,-1
 366 425 l 1,29,30
 348 446 348 446 324 457 c 128,-1,31
 300 468 300 468 268 468 c 0,32,33
 208 468 208 468 172.5 415 c 128,-1,34
 137 362 137 362 137 250 c 0,25,26
416 250 m 0,35,36
 416 287 416 287 410 320 c 128,-1,37
 404 353 404 353 391 381 c 1,38,-1
 191 71 l 1,39,40
 227 32 227 32 293 32 c 0,41,42
 347 32 347 32 381.5 85 c 128,-1,43
 416 138 416 138 416 250 c 0,35,36
EndSplineSet
EndChar

StartChar: thorn
Encoding: 254 254 192
Width: 566
Flags: W
LayerCount: 2
Fore
SplineSet
95 682 m 1,0,-1
 19 690 l 1,1,-1
 19 716 l 1,2,3
 45 728 45 728 84 737 c 128,-1,4
 123 746 123 746 160 752 c 1,5,-1
 185 752 l 1,6,-1
 185 400 l 1,7,-1
 186 400 l 1,8,9
 206 451 206 451 242 481.5 c 128,-1,10
 278 512 278 512 336 512 c 0,11,12
 425 512 425 512 474 453 c 128,-1,13
 523 394 523 394 523 261 c 0,14,15
 523 198 523 198 506.5 147 c 128,-1,16
 490 96 490 96 459.5 61 c 128,-1,17
 429 26 429 26 385.5 7 c 128,-1,18
 342 -12 342 -12 289 -12 c 0,19,20
 252 -12 252 -12 231 -7.5 c 128,-1,21
 210 -3 210 -3 185 8 c 1,22,-1
 185 -151 l 1,23,24
 201 -153 201 -153 217 -158.5 c 128,-1,25
 233 -164 233 -164 251 -175 c 1,26,-1
 251 -200 l 1,27,-1
 29 -200 l 1,28,-1
 29 -175 l 1,29,30
 63 -159 63 -159 95 -151 c 1,31,-1
 95 682 l 1,0,-1
304 450 m 0,32,33
 255 450 255 450 226 419 c 128,-1,34
 197 388 197 388 185 334 c 1,35,-1
 185 54 l 1,36,37
 203 43 203 43 225.5 37.5 c 128,-1,38
 248 32 248 32 284 32 c 0,39,40
 317 32 317 32 343.5 49 c 128,-1,41
 370 66 370 66 388.5 97 c 128,-1,42
 407 128 407 128 417 169.5 c 128,-1,43
 427 211 427 211 427 261 c 0,44,45
 427 302 427 302 420.5 336.5 c 128,-1,46
 414 371 414 371 399.5 396.5 c 128,-1,47
 385 422 385 422 361.5 436 c 128,-1,48
 338 450 338 450 304 450 c 0,32,33
EndSplineSet
EndChar

StartChar: Aogonek
Encoding: 260 260 198
Width: 683
Flags: W
LayerCount: 2
Fore
SplineSet
222 0 m 1,0,-1
 0 0 l 1,1,-1
 0 29 l 1,2,3
 36 45 36 45 72 53 c 1,4,-1
 325 712 l 1,5,-1
 354 712 l 1,6,-1
 607 53 l 1,7,8
 627 49 627 49 646.5 44 c 128,-1,9
 666 39 666 39 683 29 c 1,10,-1
 683 0 l 1,11,-1
 641 0 l 1,12,13
 598 -24 598 -24 569 -57.5 c 128,-1,14
 540 -91 540 -91 540 -135 c 0,15,16
 540 -163 540 -163 558 -181 c 128,-1,17
 576 -199 576 -199 607 -199 c 256,18,19
 638 -199 638 -199 662 -193 c 1,20,-1
 662 -222 l 1,21,22
 648 -233 648 -233 626 -242 c 128,-1,23
 604 -251 604 -251 571 -251 c 0,24,25
 548 -251 548 -251 527.5 -244 c 128,-1,26
 507 -237 507 -237 491.5 -224 c 128,-1,27
 476 -211 476 -211 467 -192.5 c 128,-1,28
 458 -174 458 -174 458 -152 c 0,29,30
 458 -126 458 -126 467.5 -104.5 c 128,-1,31
 477 -83 477 -83 494 -64.5 c 128,-1,32
 511 -46 511 -46 534.5 -30.5 c 128,-1,33
 558 -15 558 -15 586 0 c 1,34,-1
 427 0 l 1,35,-1
 427 29 l 1,36,37
 447 37 447 37 468 43 c 128,-1,38
 489 49 489 49 509 53 c 1,39,-1
 441 236 l 1,40,-1
 202 236 l 1,41,-1
 136 53 l 1,42,43
 178 47 178 47 222 29 c 1,44,-1
 222 0 l 1,0,-1
222 288 m 1,45,-1
 424 288 l 1,46,-1
 345 500 l 1,47,-1
 326 586 l 1,48,-1
 324 586 l 1,49,-1
 299 498 l 1,50,-1
 222 288 l 1,45,-1
EndSplineSet
Position2: "'cpsp' Capital Spacing lookup 0 subtable" dx=40 dy=0 dh=80 dv=0
EndChar

StartChar: aogonek
Encoding: 261 261 199
Width: 505
Flags: W
LayerCount: 2
Fore
SplineSet
410 131 m 0,0,1
 410 109 410 109 411 93 c 128,-1,2
 412 77 412 77 413 59 c 1,3,-1
 482 49 l 1,4,-1
 482 28 l 1,5,6
 475 24 475 24 468 21 c 128,-1,7
 461 18 461 18 453 15 c 1,8,9
 409 -8 409 -8 379.5 -40.5 c 128,-1,10
 350 -73 350 -73 350 -118 c 0,11,12
 350 -128 350 -128 353.5 -138.5 c 128,-1,13
 357 -149 357 -149 364 -158 c 128,-1,14
 371 -167 371 -167 382 -172.5 c 128,-1,15
 393 -178 393 -178 408 -178 c 0,16,17
 422 -178 422 -178 434.5 -175.5 c 128,-1,18
 447 -173 447 -173 461 -169 c 1,19,-1
 461 -202 l 1,20,21
 447 -210 447 -210 425.5 -216 c 128,-1,22
 404 -222 404 -222 386 -222 c 0,23,24
 326 -222 326 -222 296 -197 c 128,-1,25
 266 -172 266 -172 266 -134 c 0,26,27
 266 -94 266 -94 292 -63.5 c 128,-1,28
 318 -33 318 -33 360 -10 c 1,29,-1
 352 -10 l 1,30,-1
 343 -10 l 1,31,32
 333 13 333 13 331 40.5 c 128,-1,33
 329 68 329 68 328 101 c 1,34,-1
 323 101 l 1,35,36
 319 81 319 81 307.5 60.5 c 128,-1,37
 296 40 296 40 277.5 24 c 128,-1,38
 259 8 259 8 234 -2 c 128,-1,39
 209 -12 209 -12 177 -12 c 0,40,41
 116 -12 116 -12 77.5 25 c 128,-1,42
 39 62 39 62 39 122 c 0,43,44
 39 168 39 168 57.5 197.5 c 128,-1,45
 76 227 76 227 112 244 c 128,-1,46
 148 261 148 261 201 268.5 c 128,-1,47
 254 276 254 276 324 280 c 1,48,49
 328 323 328 323 326.5 357.5 c 128,-1,50
 325 392 325 392 315.5 416.5 c 128,-1,51
 306 441 306 441 287.5 454.5 c 128,-1,52
 269 468 269 468 239 468 c 0,53,54
 225 468 225 468 207.5 466.5 c 128,-1,55
 190 465 190 465 173 458 c 1,56,-1
 126 338 l 1,57,-1
 100 338 l 1,58,59
 90 368 90 368 82.5 400 c 128,-1,60
 75 432 75 432 73 463 c 1,61,62
 111 486 111 486 157.5 499 c 128,-1,63
 204 512 204 512 261 512 c 0,64,65
 312 512 312 512 342.5 497.5 c 128,-1,66
 373 483 373 483 389 460 c 128,-1,67
 405 437 405 437 410 409 c 128,-1,68
 415 381 415 381 415 353 c 0,69,70
 415 293 415 293 412.5 237.5 c 128,-1,71
 410 182 410 182 410 131 c 0,0,1
217 50 m 0,72,73
 242 50 242 50 261 60 c 128,-1,74
 280 70 280 70 293 84 c 128,-1,75
 306 98 306 98 314 112.5 c 128,-1,76
 322 127 322 127 325 137 c 1,77,-1
 325 242 l 1,78,79
 267 242 267 242 230 236 c 128,-1,80
 193 230 193 230 172 217 c 128,-1,81
 151 204 151 204 143 184.5 c 128,-1,82
 135 165 135 165 135 140 c 0,83,84
 135 97 135 97 157 73.5 c 128,-1,85
 179 50 179 50 217 50 c 0,72,73
EndSplineSet
EndChar

StartChar: dcroat
Encoding: 273 273 209
Width: 555
Flags: W
LayerCount: 2
Fore
SplineSet
223 623 m 1,0,-1
 376 623 l 1,1,-1
 376 682 l 1,2,-1
 300 690 l 1,3,-1
 300 716 l 1,4,5
 329 728 329 728 367.5 737 c 128,-1,6
 406 746 406 746 441 752 c 1,7,-1
 466 752 l 1,8,-1
 466 623 l 1,9,-1
 558 623 l 1,10,-1
 558 571 l 1,11,-1
 466 571 l 1,12,-1
 466 57 l 1,13,-1
 532 49 l 1,14,-1
 532 28 l 1,15,16
 503 14 503 14 472 4 c 128,-1,17
 441 -6 441 -6 411 -10 c 1,18,-1
 386 -10 l 1,19,-1
 377 99 l 1,20,-1
 373 99 l 1,21,22
 368 77 368 77 356 57 c 128,-1,23
 344 37 344 37 326.5 21.5 c 128,-1,24
 309 6 309 6 286.5 -3 c 128,-1,25
 264 -12 264 -12 238 -12 c 0,26,27
 139 -12 139 -12 90 51 c 128,-1,28
 41 114 41 114 41 247 c 0,29,30
 41 375 41 375 103.5 442 c 128,-1,31
 166 509 166 509 272 509 c 0,32,33
 309 509 309 509 330 505.5 c 128,-1,34
 351 502 351 502 376 493 c 1,35,-1
 376 571 l 1,36,-1
 223 571 l 1,37,-1
 223 623 l 1,0,-1
258 50 m 0,38,39
 307 50 307 50 336 81 c 128,-1,40
 365 112 365 112 376 165 c 1,41,-1
 376 447 l 1,42,43
 359 457 359 457 336 461 c 128,-1,44
 313 465 313 465 277 465 c 0,45,46
 209 465 209 465 173 405.5 c 128,-1,47
 137 346 137 346 137 247 c 0,48,49
 137 206 137 206 144 170.5 c 128,-1,50
 151 135 151 135 166 108 c 128,-1,51
 181 81 181 81 203.5 65.5 c 128,-1,52
 226 50 226 50 258 50 c 0,38,39
EndSplineSet
EndChar

StartChar: Eogonek
Encoding: 280 280 214
Width: 582
Flags: W
LayerCount: 2
Fore
SplineSet
503 700 m 1,0,1
 502 660 502 660 499.5 619.5 c 128,-1,2
 497 579 497 579 492 538 c 1,3,-1
 466 538 l 1,4,-1
 425 648 l 1,5,-1
 207 648 l 1,6,-1
 207 383 l 1,7,-1
 370 383 l 1,8,-1
 409 457 l 1,9,-1
 434 457 l 1,10,11
 440 358 440 358 434 255 c 1,12,-1
 409 255 l 1,13,-1
 370 331 l 1,14,-1
 207 331 l 1,15,-1
 207 52 l 1,16,-1
 437 52 l 1,17,-1
 486 172 l 1,18,-1
 511 172 l 1,19,20
 514 159 514 159 516.5 135.5 c 128,-1,21
 519 112 519 112 520.5 86 c 128,-1,22
 522 60 522 60 522 36.5 c 128,-1,23
 522 13 522 13 522 0 c 1,24,-1
 478 0 l 1,25,26
 436 -24 436 -24 406.5 -57.5 c 128,-1,27
 377 -91 377 -91 377 -135 c 0,28,29
 377 -163 377 -163 395 -181 c 128,-1,30
 413 -199 413 -199 445 -199 c 0,31,32
 476 -199 476 -199 500 -193 c 1,33,-1
 500 -222 l 1,34,35
 486 -233 486 -233 463.5 -242 c 128,-1,36
 441 -251 441 -251 409 -251 c 0,37,38
 386 -251 386 -251 365 -244 c 128,-1,39
 344 -237 344 -237 328.5 -224 c 128,-1,40
 313 -211 313 -211 304 -192.5 c 128,-1,41
 295 -174 295 -174 295 -152 c 0,42,43
 295 -126 295 -126 304.5 -104.5 c 128,-1,44
 314 -83 314 -83 331.5 -64.5 c 128,-1,45
 349 -46 349 -46 372.5 -30.5 c 128,-1,46
 396 -15 396 -15 424 0 c 1,47,-1
 29 0 l 1,48,-1
 29 29 l 1,49,50
 64 45 64 45 111 53 c 1,51,-1
 111 646 l 1,52,53
 91 650 91 650 70 656.5 c 128,-1,54
 49 663 49 663 29 671 c 1,55,-1
 29 700 l 1,56,-1
 503 700 l 1,0,1
EndSplineSet
Position2: "'cpsp' Capital Spacing lookup 0 subtable" dx=40 dy=0 dh=80 dv=0
EndChar

StartChar: eogonek
Encoding: 281 281 215
Width: 503
Flags: W
LayerCount: 2
Fore
SplineSet
446 70 m 1,0,1
 436 50 436 50 415 33 c 128,-1,2
 394 16 394 16 367 5 c 1,3,4
 329 -17 329 -17 305 -47.5 c 128,-1,5
 281 -78 281 -78 281 -118 c 0,6,7
 281 -128 281 -128 284 -138.5 c 128,-1,8
 287 -149 287 -149 294 -158 c 128,-1,9
 301 -167 301 -167 312 -172.5 c 128,-1,10
 323 -178 323 -178 339 -178 c 0,11,12
 353 -178 353 -178 365.5 -175.5 c 128,-1,13
 378 -173 378 -173 392 -169 c 1,14,-1
 392 -202 l 1,15,16
 378 -210 378 -210 356.5 -216 c 128,-1,17
 335 -222 335 -222 317 -222 c 0,18,19
 257 -222 257 -222 227 -197 c 128,-1,20
 197 -172 197 -172 197 -134 c 0,21,22
 197 -95 197 -95 222 -65 c 128,-1,23
 247 -35 247 -35 287 -12 c 1,24,25
 165 -12 165 -12 103 57 c 128,-1,26
 41 126 41 126 41 250 c 0,27,28
 41 378 41 378 100 445 c 128,-1,29
 159 512 159 512 267 512 c 0,30,31
 307 512 307 512 345.5 499.5 c 128,-1,32
 384 487 384 487 411.5 456.5 c 128,-1,33
 439 426 439 426 450.5 375.5 c 128,-1,34
 462 325 462 325 449 250 c 1,35,-1
 137 250 l 1,36,37
 137 208 137 208 147.5 171.5 c 128,-1,38
 158 135 158 135 179 108 c 128,-1,39
 200 81 200 81 232 65.5 c 128,-1,40
 264 50 264 50 307 50 c 0,41,42
 342 50 342 50 378 60 c 128,-1,43
 414 70 414 70 432 86 c 1,44,-1
 446 70 l 1,0,1
263 468 m 256,45,46
 206 468 206 468 176 429.5 c 128,-1,47
 146 391 146 391 140 294 c 1,48,-1
 360 294 l 1,49,50
 367 372 367 372 343.5 420 c 128,-1,51
 320 468 320 468 263 468 c 256,45,46
EndSplineSet
EndChar

StartChar: Hbar
Encoding: 294 294 226
Width: 728
Flags: W
LayerCount: 2
Fore
SplineSet
30 558 m 1,0,-1
 111 558 l 1,1,-1
 111 646 l 1,2,3
 64 653 64 653 29 671 c 1,4,-1
 29 700 l 1,5,-1
 282 700 l 1,6,-1
 282 671 l 1,7,8
 265 662 265 662 246 656 c 128,-1,9
 227 650 227 650 207 646 c 1,10,-1
 207 558 l 1,11,-1
 521 558 l 1,12,-1
 521 646 l 1,13,14
 500 651 500 651 481.5 657 c 128,-1,15
 463 663 463 663 446 671 c 1,16,-1
 446 700 l 1,17,-1
 699 700 l 1,18,-1
 699 671 l 1,19,20
 681 661 681 661 659.5 655.5 c 128,-1,21
 638 650 638 650 617 646 c 1,22,-1
 617 558 l 1,23,-1
 698 558 l 1,24,-1
 698 506 l 1,25,-1
 617 506 l 1,26,-1
 617 53 l 1,27,28
 640 49 640 49 661 43 c 128,-1,29
 682 37 682 37 699 29 c 1,30,-1
 699 0 l 1,31,-1
 446 0 l 1,32,-1
 446 29 l 1,33,34
 482 45 482 45 521 53 c 1,35,-1
 521 333 l 1,36,-1
 207 333 l 1,37,-1
 207 53 l 1,38,39
 227 49 227 49 246 43 c 128,-1,40
 265 37 265 37 282 29 c 1,41,-1
 282 0 l 1,42,-1
 29 0 l 1,43,-1
 29 29 l 1,44,45
 69 45 69 45 111 53 c 1,46,-1
 111 506 l 1,47,-1
 30 506 l 1,48,-1
 30 558 l 1,0,-1
521 385 m 1,49,-1
 521 506 l 1,50,-1
 207 506 l 1,51,-1
 207 385 l 1,52,-1
 521 385 l 1,49,-1
EndSplineSet
Position2: "'cpsp' Capital Spacing lookup 0 subtable" dx=40 dy=0 dh=80 dv=0
EndChar

StartChar: Iogonek
Encoding: 302 302 230
Width: 352
Flags: W
LayerCount: 2
Fore
SplineSet
304 0 m 1,0,-1
 264 0 l 1,1,2
 221 -24 221 -24 192 -57.5 c 128,-1,3
 163 -91 163 -91 163 -135 c 0,4,5
 163 -163 163 -163 181 -181 c 128,-1,6
 199 -199 199 -199 230 -199 c 256,7,8
 261 -199 261 -199 285 -193 c 1,9,-1
 285 -222 l 1,10,11
 271 -233 271 -233 249 -242 c 128,-1,12
 227 -251 227 -251 194 -251 c 0,13,14
 171 -251 171 -251 150.5 -244 c 128,-1,15
 130 -237 130 -237 114.5 -224 c 128,-1,16
 99 -211 99 -211 90 -192.5 c 128,-1,17
 81 -174 81 -174 81 -152 c 0,18,19
 81 -126 81 -126 90.5 -104.5 c 128,-1,20
 100 -83 100 -83 117 -64.5 c 128,-1,21
 134 -46 134 -46 157.5 -30.5 c 128,-1,22
 181 -15 181 -15 209 0 c 1,23,-1
 48 0 l 1,24,-1
 48 29 l 1,25,26
 87 47 87 47 128 53 c 1,27,-1
 128 646 l 1,28,29
 108 650 108 650 88 656.5 c 128,-1,30
 68 663 68 663 48 671 c 1,31,-1
 48 700 l 1,32,-1
 304 700 l 1,33,-1
 304 671 l 1,34,35
 286 663 286 663 265 656.5 c 128,-1,36
 244 650 244 650 224 646 c 1,37,-1
 224 53 l 1,38,39
 245 49 245 49 266 43 c 128,-1,40
 287 37 287 37 304 29 c 1,41,-1
 304 0 l 1,0,-1
EndSplineSet
Position2: "'cpsp' Capital Spacing lookup 0 subtable" dx=40 dy=0 dh=80 dv=0
EndChar

StartChar: iogonek
Encoding: 303 303 231
Width: 304
Flags: W
LayerCount: 2
Fore
SplineSet
264 0 m 1,0,-1
 225 0 l 1,1,2
 192 -21 192 -21 170 -50.5 c 128,-1,3
 148 -80 148 -80 148 -118 c 0,4,5
 148 -128 148 -128 151 -138.5 c 128,-1,6
 154 -149 154 -149 161 -158 c 128,-1,7
 168 -167 168 -167 179 -172.5 c 128,-1,8
 190 -178 190 -178 206 -178 c 0,9,10
 221 -178 221 -178 233.5 -175.5 c 128,-1,11
 246 -173 246 -173 260 -169 c 1,12,-1
 260 -202 l 1,13,14
 246 -210 246 -210 224 -216 c 128,-1,15
 202 -222 202 -222 184 -222 c 0,16,17
 125 -222 125 -222 95 -197 c 128,-1,18
 65 -172 65 -172 65 -134 c 0,19,20
 65 -89 65 -89 96 -56 c 128,-1,21
 127 -23 127 -23 178 0 c 1,22,-1
 42 0 l 1,23,-1
 42 25 l 1,24,25
 57 33 57 33 73 38.5 c 128,-1,26
 89 44 89 44 108 49 c 1,27,-1
 108 442 l 1,28,-1
 42 450 l 1,29,-1
 42 476 l 1,30,31
 71 488 71 488 105 497 c 128,-1,32
 139 506 139 506 173 512 c 1,33,-1
 198 512 l 1,34,-1
 198 49 l 1,35,36
 218 44 218 44 234 38.5 c 128,-1,37
 250 33 250 33 264 25 c 1,38,-1
 264 0 l 1,0,-1
94 667 m 256,39,40
 94 693 94 693 110.5 708 c 128,-1,41
 127 723 127 723 153 723 c 256,42,43
 179 723 179 723 195 708 c 128,-1,44
 211 693 211 693 211 667 c 256,45,46
 211 641 211 641 195 626.5 c 128,-1,47
 179 612 179 612 153 612 c 256,48,49
 127 612 127 612 110.5 626.5 c 128,-1,50
 94 641 94 641 94 667 c 256,39,40
EndSplineSet
EndChar

StartChar: dotlessi
Encoding: 305 305 233
Width: 301
Flags: W
LayerCount: 2
Fore
SplineSet
263 0 m 1,0,-1
 41 0 l 1,1,-1
 41 25 l 1,2,3
 56 33 56 33 72 38.5 c 128,-1,4
 88 44 88 44 107 49 c 1,5,-1
 107 442 l 1,6,-1
 41 450 l 1,7,-1
 41 476 l 1,8,9
 70 488 70 488 104 497 c 128,-1,10
 138 506 138 506 172 512 c 1,11,-1
 197 512 l 1,12,-1
 197 49 l 1,13,14
 217 44 217 44 233 38.5 c 128,-1,15
 249 33 249 33 263 25 c 1,16,-1
 263 0 l 1,0,-1
EndSplineSet
EndChar

StartChar: Lslash
Encoding: 321 321 244
Width: 549
Flags: W
LayerCount: 2
Fore
SplineSet
29 700 m 1,0,-1
 303 700 l 1,1,-1
 303 671 l 1,2,3
 279 662 279 662 255 655.5 c 128,-1,4
 231 649 231 649 207 646 c 1,5,-1
 207 392 l 1,6,-1
 342 476 l 1,7,-1
 342 410 l 1,8,-1
 207 326 l 1,9,-1
 207 52 l 1,10,-1
 437 52 l 1,11,-1
 496 213 l 1,12,-1
 522 213 l 1,13,14
 525 192 525 192 527.5 164.5 c 128,-1,15
 530 137 530 137 531.5 107.5 c 128,-1,16
 533 78 533 78 533 50 c 128,-1,17
 533 22 533 22 532 0 c 1,18,-1
 29 0 l 1,19,-1
 29 29 l 1,20,21
 53 40 53 40 73 45 c 128,-1,22
 93 50 93 50 111 53 c 1,23,-1
 111 267 l 1,24,-1
 17 210 l 1,25,-1
 17 275 l 1,26,-1
 111 332 l 1,27,-1
 111 646 l 1,28,29
 88 650 88 650 67 656.5 c 128,-1,30
 46 663 46 663 29 671 c 1,31,-1
 29 700 l 1,0,-1
EndSplineSet
Position2: "'cpsp' Capital Spacing lookup 0 subtable" dx=40 dy=0 dh=80 dv=0
EndChar

StartChar: lslash
Encoding: 322 322 245
Width: 325
Flags: W
LayerCount: 2
Fore
SplineSet
24 295 m 1,0,-1
 119 353 l 1,1,-1
 119 682 l 1,2,-1
 43 690 l 1,3,-1
 43 716 l 1,4,5
 69 728 69 728 108 737 c 128,-1,6
 147 746 147 746 184 752 c 1,7,-1
 209 752 l 1,8,-1
 209 409 l 1,9,-1
 301 466 l 1,10,-1
 301 400 l 1,11,-1
 209 343 l 1,12,-1
 209 49 l 1,13,14
 242 41 242 41 275 25 c 1,15,-1
 275 0 l 1,16,-1
 53 0 l 1,17,-1
 53 25 l 1,18,19
 86 41 86 41 119 49 c 1,20,-1
 119 288 l 1,21,-1
 24 229 l 1,22,-1
 24 295 l 1,0,-1
EndSplineSet
EndChar

StartChar: OE
Encoding: 338 338 256
Width: 954
Flags: W
LayerCount: 2
Fore
SplineSet
486 0 m 1,0,1
 460 -5 460 -5 428.5 -8.5 c 128,-1,2
 397 -12 397 -12 370 -12 c 0,3,4
 295 -12 295 -12 236 15 c 128,-1,5
 177 42 177 42 136.5 90.5 c 128,-1,6
 96 139 96 139 74.5 205.5 c 128,-1,7
 53 272 53 272 53 350 c 256,8,9
 53 428 53 428 74.5 494.5 c 128,-1,10
 96 561 96 561 136.5 609.5 c 128,-1,11
 177 658 177 658 236 685 c 128,-1,12
 295 712 295 712 370 712 c 0,13,14
 393 712 393 712 424 709 c 128,-1,15
 455 706 455 706 484 700 c 1,16,-1
 876 700 l 1,17,18
 874 660 874 660 872 619.5 c 128,-1,19
 870 579 870 579 865 538 c 1,20,-1
 839 538 l 1,21,-1
 797 648 l 1,22,-1
 580 648 l 1,23,-1
 580 383 l 1,24,-1
 742 383 l 1,25,-1
 782 457 l 1,26,-1
 806 457 l 1,27,28
 814 358 814 358 806 255 c 1,29,-1
 782 255 l 1,30,-1
 742 331 l 1,31,-1
 580 331 l 1,32,-1
 580 52 l 1,33,-1
 810 52 l 1,34,-1
 858 172 l 1,35,-1
 884 172 l 1,36,37
 890 130 890 130 893.5 87 c 128,-1,38
 897 44 897 44 895 0 c 1,39,-1
 486 0 l 1,0,1
379 40 m 0,40,41
 405 40 405 40 431.5 44 c 128,-1,42
 458 48 458 48 484 59 c 1,43,-1
 484 636 l 1,44,45
 458 647 458 647 426.5 653.5 c 128,-1,46
 395 660 395 660 362 660 c 0,47,48
 307 660 307 660 268.5 635.5 c 128,-1,49
 230 611 230 611 206 569 c 128,-1,50
 182 527 182 527 171 470.5 c 128,-1,51
 160 414 160 414 160 350 c 256,52,53
 160 286 160 286 173.5 229.5 c 128,-1,54
 187 173 187 173 214 131 c 128,-1,55
 241 89 241 89 282 64.5 c 128,-1,56
 323 40 323 40 379 40 c 0,40,41
EndSplineSet
Position2: "'cpsp' Capital Spacing lookup 0 subtable" dx=40 dy=0 dh=80 dv=0
EndChar

StartChar: oe
Encoding: 339 339 257
Width: 876
Flags: W
LayerCount: 2
Fore
SplineSet
137 250 m 0,0,1
 137 205 137 205 145.5 165 c 128,-1,2
 154 125 154 125 172.5 95 c 128,-1,3
 191 65 191 65 221 48 c 128,-1,4
 251 31 251 31 293 31 c 0,5,6
 347 31 347 31 381 84.5 c 128,-1,7
 415 138 415 138 415 250 c 0,8,9
 415 296 415 296 407 335.5 c 128,-1,10
 399 375 399 375 381 404.5 c 128,-1,11
 363 434 363 434 335 451 c 128,-1,12
 307 468 307 468 268 468 c 0,13,14
 208 468 208 468 172.5 415 c 128,-1,15
 137 362 137 362 137 250 c 0,0,1
463 75 m 1,16,17
 446 51 446 51 424 34.5 c 128,-1,18
 402 18 402 18 377.5 7.5 c 128,-1,19
 353 -3 353 -3 327 -7.5 c 128,-1,20
 301 -12 301 -12 276 -12 c 0,21,22
 216 -12 216 -12 172 6.5 c 128,-1,23
 128 25 128 25 99 59.5 c 128,-1,24
 70 94 70 94 55.5 142.5 c 128,-1,25
 41 191 41 191 41 250 c 0,26,27
 41 313 41 313 57.5 361.5 c 128,-1,28
 74 410 74 410 105 443.5 c 128,-1,29
 136 477 136 477 179.5 494.5 c 128,-1,30
 223 512 223 512 276 512 c 0,31,32
 330 512 330 512 381 492 c 128,-1,33
 432 472 432 472 461 426 c 1,34,35
 474 447 474 447 494 463.5 c 128,-1,36
 514 480 514 480 538 490.5 c 128,-1,37
 562 501 562 501 588.5 506.5 c 128,-1,38
 615 512 615 512 640 512 c 0,39,40
 680 512 680 512 719 499.5 c 128,-1,41
 758 487 758 487 785 456.5 c 128,-1,42
 812 426 812 426 823.5 375.5 c 128,-1,43
 835 325 835 325 822 250 c 1,44,-1
 511 250 l 1,45,46
 511 208 511 208 521.5 171.5 c 128,-1,47
 532 135 532 135 553 108 c 128,-1,48
 574 81 574 81 605.5 65.5 c 128,-1,49
 637 50 637 50 680 50 c 0,50,51
 697 50 697 50 715.5 52.5 c 128,-1,52
 734 55 734 55 751 60 c 128,-1,53
 768 65 768 65 782 71.5 c 128,-1,54
 796 78 796 78 805 86 c 1,55,-1
 820 70 l 1,56,57
 812 53 812 53 795 38 c 128,-1,58
 778 23 778 23 755.5 12 c 128,-1,59
 733 1 733 1 707 -5.5 c 128,-1,60
 681 -12 681 -12 654 -12 c 256,61,62
 627 -12 627 -12 598 -5.5 c 128,-1,63
 569 1 569 1 542.5 12.5 c 128,-1,64
 516 24 516 24 495 40 c 128,-1,65
 474 56 474 56 463 75 c 1,16,17
636 468 m 0,66,67
 580 468 580 468 550 429.5 c 128,-1,68
 520 391 520 391 514 294 c 1,69,-1
 733 294 l 1,70,71
 740 372 740 372 716.5 420 c 128,-1,72
 693 468 693 468 636 468 c 0,66,67
EndSplineSet
EndChar

StartChar: Scedilla
Encoding: 350 350 268
Width: 536
Flags: W
LayerCount: 2
Fore
SplineSet
150 69 m 1,0,1
 162 57 162 57 181 48 c 128,-1,2
 200 39 200 39 238 39 c 0,3,4
 270 39 270 39 298 47.5 c 128,-1,5
 326 56 326 56 346.5 72.5 c 128,-1,6
 367 89 367 89 379 113 c 128,-1,7
 391 137 391 137 391 167 c 0,8,9
 391 207 391 207 366.5 234 c 128,-1,10
 342 261 342 261 305.5 282 c 128,-1,11
 269 303 269 303 226 323 c 128,-1,12
 183 343 183 343 146.5 370.5 c 128,-1,13
 110 398 110 398 85.5 436.5 c 128,-1,14
 61 475 61 475 61 533 c 0,15,16
 61 575 61 575 76 608 c 128,-1,17
 91 641 91 641 118.5 664 c 128,-1,18
 146 687 146 687 184 699.5 c 128,-1,19
 222 712 222 712 269 712 c 0,20,21
 330 712 330 712 380.5 702.5 c 128,-1,22
 431 693 431 693 460 679 c 1,23,24
 460 662 460 662 457.5 639.5 c 128,-1,25
 455 617 455 617 451.5 593 c 128,-1,26
 448 569 448 569 444 546.5 c 128,-1,27
 440 524 440 524 436 507 c 1,28,-1
 410 507 l 1,29,-1
 370 644 l 1,30,31
 352 652 352 652 324.5 656 c 128,-1,32
 297 660 297 660 266 660 c 0,33,34
 215 660 215 660 184 631.5 c 128,-1,35
 153 603 153 603 153 552 c 0,36,37
 153 511 153 511 177.5 483 c 128,-1,38
 202 455 202 455 239 433 c 128,-1,39
 276 411 276 411 318.5 390.5 c 128,-1,40
 361 370 361 370 398 343 c 128,-1,41
 435 316 435 316 459.5 279 c 128,-1,42
 484 242 484 242 484 187 c 0,43,44
 484 102 484 102 429 50 c 128,-1,45
 374 -2 374 -2 274 -10 c 1,46,-1
 249 -75 l 1,47,48
 309 -76 309 -76 337.5 -97.5 c 128,-1,49
 366 -119 366 -119 366 -154 c 0,50,51
 366 -184 366 -184 348.5 -206 c 128,-1,52
 331 -228 331 -228 304.5 -243 c 128,-1,53
 278 -258 278 -258 246 -265 c 128,-1,54
 214 -272 214 -272 185 -272 c 1,55,-1
 185 -239 l 1,56,57
 225 -233 225 -233 252 -217 c 128,-1,58
 279 -201 279 -201 278 -172 c 0,59,60
 277 -144 277 -144 255 -131.5 c 128,-1,61
 233 -119 233 -119 188 -116 c 1,62,-1
 223 -12 l 1,63,64
 166 -10 166 -10 122 4.5 c 128,-1,65
 78 19 78 19 58 35 c 1,66,67
 59 52 59 52 61.5 76 c 128,-1,68
 64 100 64 100 67.5 125.5 c 128,-1,69
 71 151 71 151 75 175 c 128,-1,70
 79 199 79 199 83 216 c 1,71,-1
 109 216 l 1,72,-1
 150 69 l 1,0,1
EndSplineSet
Substitution2: "'locl' Localized Forms in Latin lookup 9 subtable" Scommaaccent
Position2: "'cpsp' Capital Spacing lookup 0 subtable" dx=40 dy=0 dh=80 dv=0
EndChar

StartChar: scedilla
Encoding: 351 351 269
Width: 452
Flags: W
LayerCount: 2
Fore
SplineSet
314 114 m 0,0,1
 314 147 314 147 295 167 c 128,-1,2
 276 187 276 187 247 202 c 128,-1,3
 218 217 218 217 185 230.5 c 128,-1,4
 152 244 152 244 123 263.5 c 128,-1,5
 94 283 94 283 75 312 c 128,-1,6
 56 341 56 341 56 387 c 0,7,8
 56 414 56 414 68 437 c 128,-1,9
 80 460 80 460 101.5 476.5 c 128,-1,10
 123 493 123 493 153.5 502.5 c 128,-1,11
 184 512 184 512 221 512 c 0,12,13
 275 512 275 512 314 506 c 128,-1,14
 353 500 353 500 385 489 c 1,15,16
 381 457 381 457 375.5 424.5 c 128,-1,17
 370 392 370 392 360 358 c 1,18,-1
 335 358 l 1,19,-1
 297 460 l 1,20,21
 285 465 285 465 265 466.5 c 128,-1,22
 245 468 245 468 229 468 c 0,23,24
 186 468 186 468 166 445 c 128,-1,25
 146 422 146 422 146 396 c 0,26,27
 146 366 146 366 165 347 c 128,-1,28
 184 328 184 328 213 313 c 128,-1,29
 242 298 242 298 275 284.5 c 128,-1,30
 308 271 308 271 337 252 c 128,-1,31
 366 233 366 233 385 206 c 128,-1,32
 404 179 404 179 404 138 c 0,33,34
 404 71 404 71 355 31.5 c 128,-1,35
 306 -8 306 -8 223 -11 c 1,36,-1
 202 -68 l 1,37,38
 257 -70 257 -70 281.5 -88.5 c 128,-1,39
 306 -107 306 -107 308 -139 c 0,40,41
 309 -168 309 -168 293.5 -189.5 c 128,-1,42
 278 -211 278 -211 254 -225 c 128,-1,43
 230 -239 230 -239 201 -245.5 c 128,-1,44
 172 -252 172 -252 145 -251 c 1,45,-1
 145 -221 l 1,46,47
 183 -216 183 -216 206 -201 c 128,-1,48
 229 -186 229 -186 228 -155 c 0,49,50
 227 -130 227 -130 207 -119 c 128,-1,51
 187 -108 187 -108 146 -105 c 1,52,-1
 179 -11 l 1,53,54
 109 -6 109 -6 46 17 c 1,55,56
 48 53 48 53 55 86.5 c 128,-1,57
 62 120 62 120 73 151 c 1,58,-1
 98 151 l 1,59,-1
 142 42 l 1,60,61
 153 34 153 34 173 32.5 c 128,-1,62
 193 31 193 31 207 31 c 0,63,64
 256 31 256 31 285 55.5 c 128,-1,65
 314 80 314 80 314 114 c 0,0,1
EndSplineSet
Substitution2: "'locl' Localized Forms in Latin lookup 9 subtable" scommaaccent
EndChar

StartChar: Tcedilla
Encoding: 354 354 272
Width: 619
Flags: W
LayerCount: 2
Fore
SplineSet
450 0 m 1,0,-1
 330 0 l 1,1,-1
 301 -75 l 1,2,3
 361 -76 361 -76 389.5 -97.5 c 128,-1,4
 418 -119 418 -119 418 -154 c 0,5,6
 418 -184 418 -184 400.5 -206 c 128,-1,7
 383 -228 383 -228 356.5 -243 c 128,-1,8
 330 -258 330 -258 298 -265 c 128,-1,9
 266 -272 266 -272 237 -272 c 1,10,-1
 237 -239 l 1,11,12
 277 -233 277 -233 304 -217 c 128,-1,13
 331 -201 331 -201 330 -172 c 0,14,15
 329 -144 329 -144 307 -131.5 c 128,-1,16
 285 -119 285 -119 240 -116 c 1,17,-1
 279 0 l 1,18,-1
 169 0 l 1,19,-1
 169 29 l 1,20,21
 191 37 191 37 213.5 43 c 128,-1,22
 236 49 236 49 262 53 c 1,23,-1
 262 648 l 1,24,-1
 109 648 l 1,25,-1
 56 505 l 1,26,-1
 31 505 l 1,27,28
 28 525 28 525 26 550.5 c 128,-1,29
 24 576 24 576 22.5 602.5 c 128,-1,30
 21 629 21 629 20 654.5 c 128,-1,31
 19 680 19 680 19 700 c 1,32,-1
 600 700 l 1,33,34
 600 680 600 680 599 655 c 128,-1,35
 598 630 598 630 596.5 603.5 c 128,-1,36
 595 577 595 577 593.5 551.5 c 128,-1,37
 592 526 592 526 589 505 c 1,38,-1
 563 505 l 1,39,-1
 511 648 l 1,40,-1
 358 648 l 1,41,-1
 358 53 l 1,42,43
 384 48 384 48 406.5 43 c 128,-1,44
 429 38 429 38 450 29 c 1,45,-1
 450 0 l 1,0,-1
EndSplineSet
Substitution2: "'locl' Localized Forms in Latin lookup 9 subtable" Tcommaaccent
Position2: "'cpsp' Capital Spacing lookup 0 subtable" dx=40 dy=0 dh=80 dv=0
EndChar

StartChar: tcedilla
Encoding: 355 355 273
Width: 371
Flags: W
LayerCount: 2
Fore
SplineSet
15 476 m 1,0,1
 53 500 53 500 95 510 c 1,2,-1
 95 595 l 1,3,4
 108 605 108 605 125.5 614.5 c 128,-1,5
 143 624 143 624 160 631 c 1,6,-1
 185 631 l 1,7,-1
 185 500 l 1,8,-1
 335 500 l 1,9,-1
 335 450 l 1,10,-1
 185 450 l 1,11,-1
 185 160 l 2,12,13
 185 100 185 100 204 75 c 128,-1,14
 223 50 223 50 261 50 c 0,15,16
 279 50 279 50 306 52.5 c 128,-1,17
 333 55 333 55 352 62 c 1,18,-1
 359 47 l 1,19,20
 351 38 351 38 336.5 28 c 128,-1,21
 322 18 322 18 303.5 9 c 128,-1,22
 285 0 285 0 261.5 -6 c 128,-1,23
 238 -12 238 -12 218 -12 c 1,24,-1
 207 -11 l 1,25,-1
 186 -68 l 1,26,27
 241 -70 241 -70 265.5 -88.5 c 128,-1,28
 290 -107 290 -107 292 -139 c 0,29,30
 293 -168 293 -168 277.5 -189.5 c 128,-1,31
 262 -211 262 -211 238 -225 c 128,-1,32
 214 -239 214 -239 185 -245.5 c 128,-1,33
 156 -252 156 -252 129 -251 c 1,34,-1
 129 -221 l 1,35,36
 167 -216 167 -216 190 -201 c 128,-1,37
 213 -186 213 -186 212 -155 c 0,38,39
 211 -130 211 -130 191 -119 c 128,-1,40
 171 -108 171 -108 130 -105 c 1,41,-1
 165 -3 l 1,42,43
 95 20 95 20 95 132 c 2,44,-1
 95 450 l 1,45,-1
 15 450 l 1,46,-1
 15 476 l 1,0,1
EndSplineSet
Substitution2: "'locl' Localized Forms in Latin lookup 9 subtable" tcommaaccent
EndChar

StartChar: Uogonek
Encoding: 370 370 284
Width: 672
Flags: W
LayerCount: 2
Fore
SplineSet
10 700 m 1,0,-1
 264 700 l 1,1,-1
 264 671 l 1,2,3
 245 663 245 663 226 657 c 128,-1,4
 207 651 207 651 188 646 c 1,5,-1
 188 237 l 2,6,7
 188 184 188 184 199.5 148.5 c 128,-1,8
 211 113 211 113 233 91.5 c 128,-1,9
 255 70 255 70 287.5 60.5 c 128,-1,10
 320 51 320 51 361 51 c 0,11,12
 440 51 440 51 484 94.5 c 128,-1,13
 528 138 528 138 528 238 c 2,14,-1
 528 637 l 1,15,16
 505 645 505 645 485 653.5 c 128,-1,17
 465 662 465 662 449 671 c 1,18,-1
 449 700 l 1,19,-1
 662 700 l 1,20,-1
 662 671 l 1,21,22
 643 660 643 660 623.5 651 c 128,-1,23
 604 642 604 642 584 637 c 1,24,-1
 584 236 l 2,25,26
 584 143 584 143 550 87.5 c 128,-1,27
 516 32 516 32 455 8 c 1,28,29
 431 -4 431 -4 410 -19 c 128,-1,30
 389 -34 389 -34 373.5 -52 c 128,-1,31
 358 -70 358 -70 348.5 -90.5 c 128,-1,32
 339 -111 339 -111 339 -135 c 0,33,34
 339 -163 339 -163 356.5 -181 c 128,-1,35
 374 -199 374 -199 406 -199 c 0,36,37
 437 -199 437 -199 461 -193 c 1,38,-1
 461 -222 l 1,39,40
 447 -233 447 -233 425 -242 c 128,-1,41
 403 -251 403 -251 370 -251 c 0,42,43
 347 -251 347 -251 326.5 -244 c 128,-1,44
 306 -237 306 -237 290.5 -224 c 128,-1,45
 275 -211 275 -211 266 -192.5 c 128,-1,46
 257 -174 257 -174 257 -152 c 0,47,48
 257 -104 257 -104 288 -70.5 c 128,-1,49
 319 -37 319 -37 370 -8 c 1,50,51
 365 -9 365 -9 359.5 -9 c 128,-1,52
 354 -9 354 -9 349 -9 c 0,53,54
 224 -9 224 -9 158 47.5 c 128,-1,55
 92 104 92 104 92 221 c 2,56,-1
 92 646 l 1,57,58
 51 652 51 652 10 671 c 1,59,-1
 10 700 l 1,0,-1
EndSplineSet
Position2: "'cpsp' Capital Spacing lookup 0 subtable" dx=40 dy=0 dh=80 dv=0
EndChar

StartChar: uogonek
Encoding: 371 371 285
Width: 574
Flags: W
LayerCount: 2
Fore
SplineSet
77 198 m 0,0,1
 77 261 77 261 80 321.5 c 128,-1,2
 83 382 83 382 83 442 c 1,3,-1
 17 450 l 1,4,-1
 17 476 l 1,5,6
 49 488 49 488 88.5 500 c 128,-1,7
 128 512 128 512 160 512 c 2,8,-1
 173 512 l 1,9,10
 173 437 173 437 170 363 c 128,-1,11
 167 289 167 289 167 216 c 0,12,13
 167 177 167 177 171.5 146 c 128,-1,14
 176 115 176 115 187.5 94 c 128,-1,15
 199 73 199 73 219 61.5 c 128,-1,16
 239 50 239 50 270 50 c 0,17,18
 315 50 315 50 345.5 82.5 c 128,-1,19
 376 115 376 115 393 167 c 1,20,-1
 393 442 l 1,21,-1
 328 450 l 1,22,-1
 328 476 l 1,23,24
 359 488 359 488 392.5 497 c 128,-1,25
 426 506 426 506 458 512 c 1,26,-1
 483 512 l 1,27,-1
 483 57 l 1,28,-1
 549 49 l 1,29,-1
 549 28 l 1,30,31
 537 23 537 23 525.5 18 c 128,-1,32
 514 13 514 13 502 8 c 1,33,34
 462 -14 462 -14 436 -45 c 128,-1,35
 410 -76 410 -76 410 -118 c 0,36,37
 410 -128 410 -128 413.5 -138.5 c 128,-1,38
 417 -149 417 -149 424 -158 c 128,-1,39
 431 -167 431 -167 442 -172.5 c 128,-1,40
 453 -178 453 -178 468 -178 c 256,41,42
 483 -178 483 -178 495.5 -175.5 c 128,-1,43
 508 -173 508 -173 522 -169 c 1,44,-1
 522 -202 l 1,45,46
 508 -210 508 -210 486 -216 c 128,-1,47
 464 -222 464 -222 446 -222 c 0,48,49
 387 -222 387 -222 357 -197 c 128,-1,50
 327 -172 327 -172 327 -134 c 0,51,52
 327 -94 327 -94 352.5 -63.5 c 128,-1,53
 378 -33 378 -33 420 -10 c 1,54,-1
 412 -10 l 1,55,-1
 404 -10 l 1,56,-1
 397 109 l 1,57,-1
 393 109 l 1,58,59
 388 88 388 88 375.5 67 c 128,-1,60
 363 46 363 46 343.5 28.5 c 128,-1,61
 324 11 324 11 299 -0.5 c 128,-1,62
 274 -12 274 -12 244 -12 c 0,63,64
 234 -12 234 -12 224.5 -12 c 128,-1,65
 215 -12 215 -12 206 -10 c 0,66,67
 174 -6 174 -6 150 6.5 c 128,-1,68
 126 19 126 19 110 43.5 c 128,-1,69
 94 68 94 68 85.5 106 c 128,-1,70
 77 144 77 144 77 198 c 0,0,1
EndSplineSet
EndChar

StartChar: longs
Encoding: 383 383 293
Width: 342
Flags: W
LayerCount: 2
Fore
SplineSet
306 752 m 0,0,1
 315 752 315 752 327 751 c 128,-1,2
 339 750 339 750 352 748.5 c 128,-1,3
 365 747 365 747 377 744.5 c 128,-1,4
 389 742 389 742 398 739 c 1,5,6
 395 706 395 706 389.5 677.5 c 128,-1,7
 384 649 384 649 376 626 c 1,8,-1
 351 626 l 1,9,-1
 307 712 l 1,10,11
 278 712 278 712 257.5 706 c 128,-1,12
 237 700 237 700 223.5 683 c 128,-1,13
 210 666 210 666 203.5 634 c 128,-1,14
 197 602 197 602 197 550 c 2,15,-1
 197 49 l 1,16,17
 249 43 249 43 293 25 c 1,18,-1
 293 0 l 1,19,-1
 41 0 l 1,20,-1
 41 25 l 1,21,22
 72 43 72 43 107 49 c 1,23,-1
 107 450 l 1,24,-1
 31 450 l 1,25,-1
 31 476 l 1,26,27
 66 498 66 498 107 509 c 1,28,-1
 107 544 l 2,29,30
 107 606 107 606 122 646.5 c 128,-1,31
 137 687 137 687 164 710.5 c 128,-1,32
 191 734 191 734 227.5 743 c 128,-1,33
 264 752 264 752 306 752 c 0,0,1
EndSplineSet
EndChar

StartChar: florin
Encoding: 402 402 294
Width: 533
Flags: W
LayerCount: 2
Fore
SplineSet
196 450 m 1,0,-1
 123 450 l 1,1,-1
 123 476 l 1,2,3
 143 487 143 487 165.5 495.5 c 128,-1,4
 188 504 188 504 208 509 c 1,5,-1
 215 544 l 2,6,7
 228 606 228 606 250.5 646.5 c 128,-1,8
 273 687 273 687 303 710.5 c 128,-1,9
 333 734 333 734 369 743 c 128,-1,10
 405 752 405 752 446 752 c 0,11,12
 462 752 462 752 485.5 748 c 128,-1,13
 509 744 509 744 525 736 c 1,14,15
 524 714 524 714 515.5 690.5 c 128,-1,16
 507 667 507 667 487 650 c 1,17,-1
 411 712 l 1,18,19
 393 707 393 707 377.5 701 c 128,-1,20
 362 695 362 695 348.5 678.5 c 128,-1,21
 335 662 335 662 323.5 632 c 128,-1,22
 312 602 312 602 301 550 c 2,23,-1
 291 500 l 1,24,-1
 402 500 l 1,25,26
 407 475 407 475 391 450 c 1,27,-1
 280 450 l 1,28,-1
 217 43 l 2,29,30
 206 -28 206 -28 180 -75 c 128,-1,31
 154 -122 154 -122 125 -151 c 128,-1,32
 96 -180 96 -180 68 -194 c 128,-1,33
 40 -208 40 -208 24 -212 c 1,34,-1
 17 -193 l 1,35,36
 29 -187 29 -187 45.5 -171 c 128,-1,37
 62 -155 62 -155 78.5 -128.5 c 128,-1,38
 95 -102 95 -102 109.5 -64 c 128,-1,39
 124 -26 124 -26 132 24 c 2,40,-1
 196 450 l 1,0,-1
EndSplineSet
EndChar

StartChar: uni0237
Encoding: 567 567 301
Width: 288
Flags: W
LayerCount: 2
Fore
SplineSet
106 442 m 1,0,-1
 40 450 l 1,1,-1
 40 476 l 1,2,3
 69 490 69 490 103.5 498.5 c 128,-1,4
 138 507 138 507 171 512 c 1,5,-1
 196 512 l 1,6,-1
 196 43 l 2,7,8
 196 -28 196 -28 178 -75 c 128,-1,9
 160 -122 160 -122 136 -151 c 128,-1,10
 112 -180 112 -180 87 -194 c 128,-1,11
 62 -208 62 -208 47 -212 c 1,12,-1
 35 -193 l 1,13,14
 47 -187 47 -187 59.5 -172 c 128,-1,15
 72 -157 72 -157 82.5 -130.5 c 128,-1,16
 93 -104 93 -104 99.5 -66 c 128,-1,17
 106 -28 106 -28 106 24 c 2,18,-1
 106 442 l 1,0,-1
EndSplineSet
EndChar

StartChar: circumflex
Encoding: 710 710 303
Width: 369
Flags: W
LayerCount: 2
Fore
SplineSet
89 590 m 1,0,-1
 60 606 l 1,1,-1
 170 792 l 1,2,3
 175 795 175 795 182.5 795.5 c 128,-1,4
 190 796 190 796 195 792 c 1,5,-1
 309 607 l 1,6,-1
 282 590 l 1,7,-1
 179 697 l 1,8,-1
 89 590 l 1,0,-1
EndSplineSet
EndChar

StartChar: caron
Encoding: 711 711 304
Width: 390
Flags: W
LayerCount: 2
Fore
SplineSet
301 796 m 1,0,1
 310 797 310 797 318.5 792 c 128,-1,2
 327 787 327 787 330 780 c 1,3,-1
 206 595 l 1,4,5
 201 593 201 593 194 592.5 c 128,-1,6
 187 592 187 592 181 595 c 1,7,-1
 60 779 l 1,8,9
 64 787 64 787 74 792 c 128,-1,10
 84 797 84 797 94 796 c 1,11,-1
 201 690 l 1,12,-1
 301 796 l 1,0,1
EndSplineSet
AlternateSubs2: "'aalt' Access All Alternates lookup 1 subtable" caron.l caron.L
EndChar

StartChar: breve
Encoding: 728 728 305
Width: 392
Flags: W
LayerCount: 2
Fore
SplineSet
332 719 m 1,0,1
 323 697 323 697 310.5 675 c 128,-1,2
 298 653 298 653 281 636 c 128,-1,3
 264 619 264 619 243.5 608 c 128,-1,4
 223 597 223 597 198 597 c 0,5,6
 171 597 171 597 150 606.5 c 128,-1,7
 129 616 129 616 112 632.5 c 128,-1,8
 95 649 95 649 82 671.5 c 128,-1,9
 69 694 69 694 60 721 c 1,10,-1
 88 734 l 1,11,12
 95 721 95 721 107.5 709.5 c 128,-1,13
 120 698 120 698 135 689 c 128,-1,14
 150 680 150 680 167 674.5 c 128,-1,15
 184 669 184 669 199 669 c 0,16,17
 267 667 267 667 308 730 c 1,18,-1
 332 719 l 1,0,1
EndSplineSet
EndChar

StartChar: dotaccent
Encoding: 729 729 306
Width: 247
Flags: W
LayerCount: 2
Fore
SplineSet
60 670 m 256,0,1
 60 697 60 697 77.5 713 c 128,-1,2
 95 729 95 729 124 729 c 256,3,4
 153 729 153 729 170 713 c 128,-1,5
 187 697 187 697 187 670 c 256,6,7
 187 643 187 643 170 627.5 c 128,-1,8
 153 612 153 612 124 612 c 256,9,10
 95 612 95 612 77.5 627.5 c 128,-1,11
 60 643 60 643 60 670 c 256,0,1
EndSplineSet
EndChar

StartChar: ring
Encoding: 730 730 307
Width: 314
Flags: W
LayerCount: 2
Fore
SplineSet
60 683 m 0,0,1
 60 724 60 724 88.5 752 c 128,-1,2
 117 780 117 780 160 780 c 0,3,4
 199 780 199 780 226.5 755 c 128,-1,5
 254 730 254 730 254 686 c 0,6,7
 254 665 254 665 246 648 c 128,-1,8
 238 631 238 631 225 619 c 128,-1,9
 212 607 212 607 194.5 600 c 128,-1,10
 177 593 177 593 159 593 c 0,11,12
 114 593 114 593 87 617 c 128,-1,13
 60 641 60 641 60 683 c 0,0,1
112 685 m 0,14,15
 112 659 112 659 125.5 646.5 c 128,-1,16
 139 634 139 634 156 634 c 0,17,18
 176 634 176 634 188.5 645.5 c 128,-1,19
 201 657 201 657 201 682 c 0,20,21
 201 709 201 709 189 724 c 128,-1,22
 177 739 177 739 157 739 c 0,23,24
 133 739 133 739 122.5 724 c 128,-1,25
 112 709 112 709 112 685 c 0,14,15
EndSplineSet
EndChar

StartChar: ogonek
Encoding: 731 731 308
Width: 318
Flags: W
LayerCount: 2
Fore
SplineSet
258 20 m 1,0,1
 234 9 234 9 213.5 -5 c 128,-1,2
 193 -19 193 -19 177.5 -36.5 c 128,-1,3
 162 -54 162 -54 153 -74 c 128,-1,4
 144 -94 144 -94 144 -118 c 0,5,6
 144 -128 144 -128 147 -138.5 c 128,-1,7
 150 -149 150 -149 157 -158 c 128,-1,8
 164 -167 164 -167 175 -172.5 c 128,-1,9
 186 -178 186 -178 202 -178 c 0,10,11
 216 -178 216 -178 228.5 -175.5 c 128,-1,12
 241 -173 241 -173 255 -169 c 1,13,-1
 255 -202 l 1,14,15
 241 -210 241 -210 219.5 -216 c 128,-1,16
 198 -222 198 -222 180 -222 c 0,17,18
 120 -222 120 -222 90 -197 c 128,-1,19
 60 -172 60 -172 60 -134 c 0,20,21
 60 -107 60 -107 72.5 -84 c 128,-1,22
 85 -61 85 -61 107 -42 c 128,-1,23
 129 -23 129 -23 158.5 -7.5 c 128,-1,24
 188 8 188 8 221 20 c 1,25,-1
 258 20 l 1,0,1
EndSplineSet
EndChar

StartChar: tilde
Encoding: 732 732 309
Width: 427
Flags: W
LayerCount: 2
Fore
SplineSet
367 672 m 1,0,1
 335 640 335 640 308.5 627.5 c 128,-1,2
 282 615 282 615 259 615 c 0,3,4
 241 615 241 615 225 620.5 c 128,-1,5
 209 626 209 626 194 632 c 128,-1,6
 179 638 179 638 164.5 643.5 c 128,-1,7
 150 649 150 649 135 649 c 0,8,9
 122 649 122 649 108.5 644 c 128,-1,10
 95 639 95 639 79 625 c 1,11,-1
 60 653 l 1,12,13
 97 688 97 688 126 700 c 128,-1,14
 155 712 155 712 178 712 c 0,15,16
 196 712 196 712 211.5 707 c 128,-1,17
 227 702 227 702 241 696 c 128,-1,18
 255 690 255 690 269.5 685 c 128,-1,19
 284 680 284 680 299 680 c 0,20,21
 312 680 312 680 325 684.5 c 128,-1,22
 338 689 338 689 354 700 c 1,23,-1
 367 672 l 1,0,1
EndSplineSet
EndChar

StartChar: hungarumlaut
Encoding: 733 733 310
Width: 455
Flags: W
LayerCount: 2
Fore
SplineSet
137 768 m 1,0,1
 143 769 143 769 156 767.5 c 128,-1,2
 169 766 169 766 182.5 763 c 128,-1,3
 196 760 196 760 207 755.5 c 128,-1,4
 218 751 218 751 221 747 c 1,5,-1
 221 732 l 1,6,-1
 83 598 l 1,7,-1
 60 614 l 1,8,-1
 137 768 l 1,0,1
310 768 m 1,9,10
 317 769 317 769 329.5 767.5 c 128,-1,11
 342 766 342 766 354.5 762 c 128,-1,12
 367 758 367 758 378.5 752.5 c 128,-1,13
 390 747 390 747 395 740 c 1,14,-1
 395 727 l 1,15,-1
 196 598 l 1,16,-1
 177 616 l 1,17,-1
 310 768 l 1,9,10
EndSplineSet
EndChar

StartChar: uni03A9
Encoding: 937 937 313
AltUni2: 002126.ffffffff.0
Width: 797
Flags: W
LayerCount: 2
Fore
SplineSet
57 0 m 1,0,1
 57 18 57 18 58 42.5 c 128,-1,2
 59 67 59 67 60.5 93.5 c 128,-1,3
 62 120 62 120 64 146 c 128,-1,4
 66 172 66 172 68 194 c 1,5,-1
 93 194 l 1,6,-1
 137 76 l 1,7,-1
 296 76 l 1,8,9
 252 92 252 92 212 119.5 c 128,-1,10
 172 147 172 147 141.5 185 c 128,-1,11
 111 223 111 223 93 271.5 c 128,-1,12
 75 320 75 320 75 377 c 0,13,14
 75 453 75 453 98 514.5 c 128,-1,15
 121 576 121 576 164 620 c 128,-1,16
 207 664 207 664 268.5 688 c 128,-1,17
 330 712 330 712 406 712 c 0,18,19
 484 712 484 712 543 689 c 128,-1,20
 602 666 602 666 642.5 623 c 128,-1,21
 683 580 683 580 703.5 520 c 128,-1,22
 724 460 724 460 724 387 c 0,23,24
 724 325 724 325 704.5 274 c 128,-1,25
 685 223 685 223 654 183.5 c 128,-1,26
 623 144 623 144 585 117 c 128,-1,27
 547 90 547 90 510 76 c 1,28,-1
 659 76 l 1,29,-1
 704 194 l 1,30,-1
 729 194 l 1,31,32
 731 172 731 172 733 146 c 128,-1,33
 735 120 735 120 736.5 93.5 c 128,-1,34
 738 67 738 67 739 42.5 c 128,-1,35
 740 18 740 18 740 0 c 1,36,-1
 458 0 l 1,37,-1
 458 83 l 1,38,39
 482 93 482 93 510 117 c 128,-1,40
 538 141 538 141 562 178 c 128,-1,41
 586 215 586 215 602 264.5 c 128,-1,42
 618 314 618 314 618 376 c 0,43,44
 618 434 618 434 605 486 c 128,-1,45
 592 538 592 538 565.5 576.5 c 128,-1,46
 539 615 539 615 499.5 637.5 c 128,-1,47
 460 660 460 660 406 660 c 0,48,49
 346 660 346 660 303 638 c 128,-1,50
 260 616 260 616 233 578.5 c 128,-1,51
 206 541 206 541 193.5 491.5 c 128,-1,52
 181 442 181 442 181 387 c 0,53,54
 181 325 181 325 198 273.5 c 128,-1,55
 215 222 215 222 240.5 182.5 c 128,-1,56
 266 143 266 143 295.5 117.5 c 128,-1,57
 325 92 325 92 349 83 c 1,58,-1
 349 0 l 1,59,-1
 57 0 l 1,0,1
EndSplineSet
EndChar

StartChar: pi
Encoding: 960 960 314
Width: 615
Flags: W
LayerCount: 2
Fore
SplineSet
556 50 m 1,0,-1
 556 29 l 1,1,2
 527 16 527 16 489 6 c 128,-1,3
 451 -4 451 -4 419 -9 c 1,4,-1
 394 -9 l 1,5,-1
 394 437 l 1,6,-1
 203 437 l 1,7,-1
 203 247 l 2,8,9
 203 215 203 215 200.5 181 c 128,-1,10
 198 147 198 147 192.5 114.5 c 128,-1,11
 187 82 187 82 179.5 52.5 c 128,-1,12
 172 23 172 23 163 0 c 1,13,14
 154 -5 154 -5 137 -5.5 c 128,-1,15
 120 -6 120 -6 104 -5.5 c 128,-1,16
 88 -5 88 -5 76 -3 c 128,-1,17
 64 -1 64 -1 64 0 c 2,18,-1
 59 8 l 1,19,20
 81 42 81 42 99 95 c 128,-1,21
 117 148 117 148 129.5 208 c 128,-1,22
 142 268 142 268 148.5 328.5 c 128,-1,23
 155 389 155 389 155 437 c 1,24,-1
 138 437 l 2,25,26
 110 437 110 437 84 422.5 c 128,-1,27
 58 408 58 408 35 378 c 1,28,-1
 22 386 l 1,29,30
 27 411 27 411 35 433 c 128,-1,31
 43 455 43 455 58.5 471.5 c 128,-1,32
 74 488 74 488 99.5 497.5 c 128,-1,33
 125 507 125 507 165 506 c 0,34,35
 176 506 176 506 205.5 505 c 128,-1,36
 235 504 235 504 274.5 503 c 128,-1,37
 314 502 314 502 359 501 c 128,-1,38
 404 500 404 500 445 500 c 0,39,40
 477 500 477 500 498.5 500.5 c 128,-1,41
 520 501 520 501 534.5 504 c 128,-1,42
 549 507 549 507 559 512 c 128,-1,43
 569 517 569 517 579 526 c 1,44,-1
 593 517 l 1,45,46
 589 485 589 485 567 461 c 128,-1,47
 545 437 545 437 502 437 c 2,48,-1
 490 437 l 1,49,-1
 490 58 l 1,50,-1
 556 50 l 1,0,-1
EndSplineSet
EndChar

StartChar: afii10051
Encoding: 1026 1026 316
Width: 751
Flags: W
LayerCount: 2
Fore
SplineSet
712 238 m 0,0,1
 712 163 712 163 696.5 116 c 128,-1,2
 681 69 681 69 654 42.5 c 128,-1,3
 627 16 627 16 589.5 6.5 c 128,-1,4
 552 -3 552 -3 507 -3 c 1,5,-1
 501 24 l 1,6,7
 527 30 527 30 548 41 c 128,-1,8
 569 52 569 52 584 74.5 c 128,-1,9
 599 97 599 97 607.5 134 c 128,-1,10
 616 171 616 171 616 229 c 0,11,12
 616 299 616 299 588 340.5 c 128,-1,13
 560 382 560 382 494 382 c 0,14,15
 452 382 452 382 414 369.5 c 128,-1,16
 376 357 376 357 348 340 c 1,17,-1
 348 53 l 1,18,19
 367 48 367 48 384.5 42 c 128,-1,20
 402 36 402 36 419 29 c 1,21,-1
 419 0 l 1,22,-1
 160 0 l 1,23,-1
 160 29 l 1,24,25
 181 37 181 37 203.5 43 c 128,-1,26
 226 49 226 49 252 53 c 1,27,-1
 252 648 l 1,28,-1
 99 648 l 1,29,-1
 47 505 l 1,30,-1
 21 505 l 1,31,32
 18 525 18 525 16.5 550.5 c 128,-1,33
 15 576 15 576 13.5 602.5 c 128,-1,34
 12 629 12 629 11 654.5 c 128,-1,35
 10 680 10 680 10 700 c 1,36,-1
 590 700 l 1,37,38
 590 680 590 680 589 655.5 c 128,-1,39
 588 631 588 631 586.5 605 c 128,-1,40
 585 579 585 579 583.5 554 c 128,-1,41
 582 529 582 529 579 508 c 1,42,-1
 553 508 l 1,43,-1
 501 648 l 1,44,-1
 348 648 l 1,45,-1
 348 389 l 1,46,47
 375 404 375 404 420 419 c 128,-1,48
 465 434 465 434 522 434 c 0,49,50
 564 434 564 434 598.5 425.5 c 128,-1,51
 633 417 633 417 658.5 395.5 c 128,-1,52
 684 374 684 374 698 336 c 128,-1,53
 712 298 712 298 712 238 c 0,0,1
EndSplineSet
Position2: "'cpsp' Capital Spacing lookup 0 subtable" dx=40 dy=0 dh=80 dv=0
EndChar

StartChar: afii10053
Encoding: 1028 1028 318
Width: 643
Flags: W
LayerCount: 2
Fore
SplineSet
547 182 m 1,0,-1
 573 182 l 1,1,2
 578 154 578 154 582 111.5 c 128,-1,3
 586 69 586 69 584 29 c 1,4,5
 569 17 569 17 548 9.5 c 128,-1,6
 527 2 527 2 503.5 -3 c 128,-1,7
 480 -8 480 -8 455.5 -10 c 128,-1,8
 431 -12 431 -12 409 -12 c 0,9,10
 325 -12 325 -12 259 9.5 c 128,-1,11
 193 31 193 31 147.5 75 c 128,-1,12
 102 119 102 119 77.5 187.5 c 128,-1,13
 53 256 53 256 53 350 c 0,14,15
 53 448 53 448 80 516.5 c 128,-1,16
 107 585 107 585 153 628.5 c 128,-1,17
 199 672 199 672 260 692 c 128,-1,18
 321 712 321 712 388 712 c 0,19,20
 454 712 454 712 499 703.5 c 128,-1,21
 544 695 544 695 578 678 c 1,22,23
 578 662 578 662 577 640.5 c 128,-1,24
 576 619 576 619 574 595 c 128,-1,25
 572 571 572 571 569 548 c 128,-1,26
 566 525 566 525 563 506 c 1,27,-1
 537 506 l 1,28,-1
 485 650 l 1,29,30
 474 656 474 656 448.5 658 c 128,-1,31
 423 660 423 660 398 660 c 0,32,33
 350 660 350 660 307 642.5 c 128,-1,34
 264 625 264 625 230.5 590 c 128,-1,35
 197 555 197 555 176 501.5 c 128,-1,36
 155 448 155 448 152 375 c 1,37,-1
 480 389 l 1,38,39
 493 349 493 349 484 311 c 1,40,41
 449 314 449 314 406.5 316.5 c 128,-1,42
 364 319 364 319 319.5 321.5 c 128,-1,43
 275 324 275 324 232 325.5 c 128,-1,44
 189 327 189 327 152 327 c 1,45,46
 155 261 155 261 174.5 208 c 128,-1,47
 194 155 194 155 227.5 117.5 c 128,-1,48
 261 80 261 80 308.5 60 c 128,-1,49
 356 40 356 40 416 40 c 0,50,51
 449 40 449 40 471 45 c 128,-1,52
 493 50 493 50 500 58 c 1,53,-1
 547 182 l 1,0,-1
EndSplineSet
Position2: "'cpsp' Capital Spacing lookup 0 subtable" dx=40 dy=0 dh=80 dv=0
EndChar

StartChar: afii10056
Encoding: 1031 1031 321
Width: 352
Flags: W
LayerCount: 2
Fore
SplineSet
32 789 m 0,0,1
 32 813 32 813 47.5 825 c 128,-1,2
 63 837 63 837 88 837 c 0,3,4
 112 837 112 837 128 825 c 128,-1,5
 144 813 144 813 144 789 c 0,6,7
 144 766 144 766 128 754 c 128,-1,8
 112 742 112 742 88 742 c 0,9,10
 63 742 63 742 47.5 754 c 128,-1,11
 32 766 32 766 32 789 c 0,0,1
208 789 m 0,12,13
 208 813 208 813 224 825 c 128,-1,14
 240 837 240 837 264 837 c 0,15,16
 289 837 289 837 304.5 825 c 128,-1,17
 320 813 320 813 320 789 c 0,18,19
 320 766 320 766 304.5 754 c 128,-1,20
 289 742 289 742 264 742 c 0,21,22
 240 742 240 742 224 754 c 128,-1,23
 208 766 208 766 208 789 c 0,12,13
304 0 m 1,24,-1
 48 0 l 1,25,-1
 48 29 l 1,26,27
 87 47 87 47 128 53 c 1,28,-1
 128 646 l 1,29,30
 108 650 108 650 88 656.5 c 128,-1,31
 68 663 68 663 48 671 c 1,32,-1
 48 700 l 1,33,-1
 304 700 l 1,34,-1
 304 671 l 1,35,36
 286 663 286 663 265 656.5 c 128,-1,37
 244 650 244 650 224 646 c 1,38,-1
 224 53 l 1,39,40
 245 49 245 49 266 43 c 128,-1,41
 287 37 287 37 304 29 c 1,42,-1
 304 0 l 1,24,-1
EndSplineSet
Position2: "'cpsp' Capital Spacing lookup 0 subtable" dx=40 dy=0 dh=80 dv=0
EndChar

StartChar: afii10058
Encoding: 1033 1033 323
Width: 921
Flags: W
LayerCount: 2
Fore
SplineSet
372 0 m 1,0,-1
 372 29 l 1,1,2
 410 47 410 47 448 53 c 1,3,-1
 448 648 l 1,4,-1
 261 648 l 1,5,6
 257 491 257 491 246.5 387.5 c 128,-1,7
 236 284 236 284 220 216.5 c 128,-1,8
 204 149 204 149 183.5 109 c 128,-1,9
 163 69 163 69 139 38 c 0,10,11
 119 12 119 12 90 0 c 128,-1,12
 61 -12 61 -12 34 -12 c 1,13,14
 27 -4 27 -4 19.5 10.5 c 128,-1,15
 12 25 12 25 5.5 41.5 c 128,-1,16
 -1 58 -1 58 -5 74.5 c 128,-1,17
 -9 91 -9 91 -10 104 c 1,18,-1
 5 129 l 1,19,-1
 120 108 l 1,20,21
 135 133 135 133 149.5 174 c 128,-1,22
 164 215 164 215 175.5 278.5 c 128,-1,23
 187 342 187 342 194.5 431 c 128,-1,24
 202 520 202 520 202 641 c 1,25,26
 140 651 140 651 100 671 c 1,27,-1
 100 700 l 1,28,-1
 632 700 l 1,29,-1
 632 671 l 1,30,31
 613 663 613 663 591 656.5 c 128,-1,32
 569 650 569 650 544 646 c 1,33,-1
 544 417 l 1,34,35
 562 419 562 419 588 421.5 c 128,-1,36
 614 424 614 424 634 424 c 0,37,38
 683 424 683 424 728 415 c 128,-1,39
 773 406 773 406 807 383 c 128,-1,40
 841 360 841 360 861.5 320 c 128,-1,41
 882 280 882 280 882 218 c 0,42,43
 882 159 882 159 859 117.5 c 128,-1,44
 836 76 836 76 799 49 c 128,-1,45
 762 22 762 22 715 9.5 c 128,-1,46
 668 -3 668 -3 620 -3 c 0,47,48
 615 -3 615 -3 600.5 -2.5 c 128,-1,49
 586 -2 586 -2 568 -1.5 c 128,-1,50
 550 -1 550 -1 530 -0.5 c 128,-1,51
 510 0 510 0 495 0 c 2,52,-1
 372 0 l 1,0,-1
612 372 m 0,53,54
 588 372 588 372 573 371.5 c 128,-1,55
 558 371 558 371 544 367 c 1,56,-1
 544 53 l 1,57,58
 549 51 549 51 558.5 50.5 c 128,-1,59
 568 50 568 50 578.5 49.5 c 128,-1,60
 589 49 589 49 599 49 c 128,-1,61
 609 49 609 49 615 49 c 0,62,63
 685 49 685 49 730 91 c 128,-1,64
 775 133 775 133 775 219 c 0,65,66
 775 294 775 294 734.5 333 c 128,-1,67
 694 372 694 372 612 372 c 0,53,54
EndSplineSet
Position2: "'cpsp' Capital Spacing lookup 0 subtable" dx=40 dy=0 dh=80 dv=0
EndChar

StartChar: afii10059
Encoding: 1034 1034 324
Width: 994
Flags: W
LayerCount: 2
Fore
SplineSet
446 0 m 1,0,-1
 446 29 l 1,1,2
 466 38 466 38 483 44 c 128,-1,3
 500 50 500 50 521 53 c 1,4,-1
 521 346 l 1,5,-1
 207 346 l 1,6,-1
 207 53 l 1,7,8
 227 49 227 49 246 43 c 128,-1,9
 265 37 265 37 282 29 c 1,10,-1
 282 0 l 1,11,-1
 29 0 l 1,12,-1
 29 29 l 1,13,14
 69 45 69 45 111 53 c 1,15,-1
 111 646 l 1,16,17
 64 653 64 653 29 671 c 1,18,-1
 29 700 l 1,19,-1
 282 700 l 1,20,-1
 282 671 l 1,21,22
 265 662 265 662 246 656 c 128,-1,23
 227 650 227 650 207 646 c 1,24,-1
 207 398 l 1,25,-1
 521 398 l 1,26,-1
 521 646 l 1,27,28
 501 651 501 651 483.5 657 c 128,-1,29
 466 663 466 663 446 671 c 1,30,-1
 446 700 l 1,31,-1
 705 700 l 1,32,-1
 705 671 l 1,33,34
 686 663 686 663 664 656.5 c 128,-1,35
 642 650 642 650 617 646 c 1,36,-1
 617 397 l 1,37,38
 635 400 635 400 661 402 c 128,-1,39
 687 404 687 404 707 404 c 0,40,41
 756 404 756 404 801 395 c 128,-1,42
 846 386 846 386 880 363.5 c 128,-1,43
 914 341 914 341 934.5 302.5 c 128,-1,44
 955 264 955 264 955 205 c 0,45,46
 955 147 955 147 932.5 107.5 c 128,-1,47
 910 68 910 68 873 43.5 c 128,-1,48
 836 19 836 19 789 8 c 128,-1,49
 742 -3 742 -3 693 -3 c 0,50,51
 688 -3 688 -3 673.5 -2.5 c 128,-1,52
 659 -2 659 -2 641 -1.5 c 128,-1,53
 623 -1 623 -1 603 -0.5 c 128,-1,54
 583 0 583 0 568 0 c 2,55,-1
 446 0 l 1,0,-1
686 351 m 0,56,57
 662 351 662 351 646.5 350.5 c 128,-1,58
 631 350 631 350 617 346 c 1,59,-1
 617 53 l 1,60,61
 622 51 622 51 631.5 50.5 c 128,-1,62
 641 50 641 50 652 49.5 c 128,-1,63
 663 49 663 49 673 49 c 128,-1,64
 683 49 683 49 688 49 c 0,65,66
 723 49 723 49 752.5 58 c 128,-1,67
 782 67 782 67 803 86 c 128,-1,68
 824 105 824 105 836 134.5 c 128,-1,69
 848 164 848 164 848 205 c 0,70,71
 848 274 848 274 807.5 312.5 c 128,-1,72
 767 351 767 351 686 351 c 0,56,57
EndSplineSet
Position2: "'cpsp' Capital Spacing lookup 0 subtable" dx=40 dy=0 dh=80 dv=0
EndChar

StartChar: afii10060
Encoding: 1035 1035 325
Width: 775
Flags: W
LayerCount: 2
Fore
SplineSet
348 648 m 1,0,-1
 348 389 l 1,1,2
 375 404 375 404 415 419 c 128,-1,3
 455 434 455 434 512 434 c 0,4,5
 554 434 554 434 587.5 425.5 c 128,-1,6
 621 417 621 417 644.5 396 c 128,-1,7
 668 375 668 375 680.5 339 c 128,-1,8
 693 303 693 303 693 247 c 2,9,-1
 693 53 l 1,10,11
 729 47 729 47 765 29 c 1,12,-1
 765 0 l 1,13,-1
 597 0 l 1,14,-1
 597 229 l 2,15,16
 597 264 597 264 591.5 292 c 128,-1,17
 586 320 586 320 573.5 340 c 128,-1,18
 561 360 561 360 539 371 c 128,-1,19
 517 382 517 382 484 382 c 0,20,21
 442 382 442 382 409 369.5 c 128,-1,22
 376 357 376 357 348 340 c 1,23,-1
 348 53 l 1,24,25
 367 48 367 48 384.5 42 c 128,-1,26
 402 36 402 36 419 29 c 1,27,-1
 419 0 l 1,28,-1
 160 0 l 1,29,-1
 160 29 l 1,30,31
 181 37 181 37 203.5 43 c 128,-1,32
 226 49 226 49 252 53 c 1,33,-1
 252 648 l 1,34,-1
 99 648 l 1,35,-1
 47 505 l 1,36,-1
 21 505 l 1,37,38
 18 525 18 525 16.5 550.5 c 128,-1,39
 15 576 15 576 13.5 602.5 c 128,-1,40
 12 629 12 629 11 654.5 c 128,-1,41
 10 680 10 680 10 700 c 1,42,-1
 590 700 l 1,43,44
 590 680 590 680 589 655.5 c 128,-1,45
 588 631 588 631 586.5 605 c 128,-1,46
 585 579 585 579 583.5 554 c 128,-1,47
 582 529 582 529 579 509 c 1,48,-1
 553 509 l 1,49,-1
 501 648 l 1,50,-1
 348 648 l 1,0,-1
EndSplineSet
Position2: "'cpsp' Capital Spacing lookup 0 subtable" dx=40 dy=0 dh=80 dv=0
EndChar

StartChar: afii10145
Encoding: 1039 1039 328
Width: 718
Flags: W
LayerCount: 2
Fore
SplineSet
282 671 m 1,0,1
 248 656 248 656 207 646 c 1,2,-1
 207 52 l 1,3,-1
 511 52 l 1,4,-1
 511 646 l 1,5,6
 457 658 457 658 436 671 c 1,7,-1
 436 700 l 1,8,-1
 689 700 l 1,9,-1
 689 671 l 1,10,11
 668 661 668 661 647.5 654.5 c 128,-1,12
 627 648 627 648 607 646 c 1,13,-1
 607 53 l 1,14,15
 628 49 628 49 649 44 c 128,-1,16
 670 39 670 39 689 29 c 1,17,-1
 689 0 l 1,18,-1
 406 0 l 1,19,20
 400 -47 400 -47 391.5 -94.5 c 128,-1,21
 383 -142 383 -142 372 -191 c 1,22,-1
 346 -191 l 1,23,24
 336 -142 336 -142 328 -94.5 c 128,-1,25
 320 -47 320 -47 312 0 c 1,26,-1
 29 0 l 1,27,-1
 29 29 l 1,28,29
 69 45 69 45 111 53 c 1,30,-1
 111 646 l 1,31,32
 84 650 84 650 64 656.5 c 128,-1,33
 44 663 44 663 29 671 c 1,34,-1
 29 700 l 1,35,-1
 282 700 l 1,36,-1
 282 671 l 1,0,1
EndSplineSet
Position2: "'cpsp' Capital Spacing lookup 0 subtable" dx=40 dy=0 dh=80 dv=0
EndChar

StartChar: afii10018
Encoding: 1041 1041 330
Width: 600
Flags: W
LayerCount: 2
Fore
SplineSet
111 646 m 1,0,1
 88 650 88 650 68 656.5 c 128,-1,2
 48 663 48 663 29 671 c 1,3,-1
 29 700 l 1,4,-1
 508 700 l 1,5,6
 509 660 509 660 506 610.5 c 128,-1,7
 503 561 503 561 497 519 c 1,8,-1
 471 519 l 1,9,-1
 419 648 l 1,10,-1
 207 648 l 1,11,-1
 207 407 l 1,12,13
 225 409 225 409 251.5 411.5 c 128,-1,14
 278 414 278 414 298 414 c 0,15,16
 347 414 347 414 392 403.5 c 128,-1,17
 437 393 437 393 471.5 369 c 128,-1,18
 506 345 506 345 526.5 305.5 c 128,-1,19
 547 266 547 266 547 208 c 0,20,21
 547 153 547 153 525.5 113.5 c 128,-1,22
 504 74 504 74 468 48 c 128,-1,23
 432 22 432 22 384 9.5 c 128,-1,24
 336 -3 336 -3 283 -3 c 0,25,26
 278 -3 278 -3 263.5 -2.5 c 128,-1,27
 249 -2 249 -2 230 -1.5 c 128,-1,28
 211 -1 211 -1 191 -0.5 c 128,-1,29
 171 0 171 0 156 0 c 2,30,-1
 29 0 l 1,31,-1
 29 29 l 1,32,33
 68 47 68 47 111 53 c 1,34,-1
 111 646 l 1,0,1
276 362 m 0,35,36
 252 362 252 362 236.5 361 c 128,-1,37
 221 360 221 360 207 357 c 1,38,-1
 207 53 l 1,39,40
 212 51 212 51 221.5 50.5 c 128,-1,41
 231 50 231 50 242 49.5 c 128,-1,42
 253 49 253 49 263 49 c 128,-1,43
 273 49 273 49 279 49 c 0,44,45
 314 49 314 49 343.5 58.5 c 128,-1,46
 373 68 373 68 394.5 88 c 128,-1,47
 416 108 416 108 428 138 c 128,-1,48
 440 168 440 168 440 209 c 0,49,50
 440 283 440 283 399 322.5 c 128,-1,51
 358 362 358 362 276 362 c 0,35,36
EndSplineSet
Position2: "'cpsp' Capital Spacing lookup 0 subtable" dx=40 dy=0 dh=80 dv=0
EndChar

StartChar: afii10020
Encoding: 1043 1043 332
Width: 507
Flags: W
LayerCount: 2
Fore
SplineSet
207 53 m 1,0,1
 256 45 256 45 303 29 c 1,2,-1
 303 0 l 1,3,-1
 29 0 l 1,4,-1
 29 29 l 1,5,6
 69 45 69 45 111 53 c 1,7,-1
 111 646 l 1,8,9
 91 650 91 650 70 656.5 c 128,-1,10
 49 663 49 663 29 671 c 1,11,-1
 29 700 l 1,12,-1
 497 700 l 1,13,14
 497 680 497 680 496 654 c 128,-1,15
 495 628 495 628 494 600 c 128,-1,16
 493 572 493 572 491 545.5 c 128,-1,17
 489 519 489 519 486 498 c 1,18,-1
 460 498 l 1,19,-1
 408 648 l 1,20,-1
 207 648 l 1,21,-1
 207 53 l 1,0,1
EndSplineSet
Position2: "'cpsp' Capital Spacing lookup 0 subtable" dx=40 dy=0 dh=80 dv=0
EndChar

StartChar: afii10021
Encoding: 1044 1044 333
Width: 685
Flags: W
LayerCount: 2
Fore
SplineSet
669 52 m 1,0,1
 669 32 669 32 667 5.5 c 128,-1,2
 665 -21 665 -21 662 -49 c 128,-1,3
 659 -77 659 -77 655.5 -104 c 128,-1,4
 652 -131 652 -131 649 -151 c 1,5,-1
 623 -151 l 1,6,-1
 581 0 l 1,7,-1
 88 0 l 1,8,-1
 46 -151 l 1,9,-1
 21 -151 l 1,10,11
 16 -132 16 -132 12.5 -105 c 128,-1,12
 9 -78 9 -78 6.5 -49.5 c 128,-1,13
 4 -21 4 -21 2 5.5 c 128,-1,14
 0 32 0 32 0 52 c 1,15,-1
 83 52 l 1,16,17
 109 94 109 94 132 159.5 c 128,-1,18
 155 225 155 225 171.5 303.5 c 128,-1,19
 188 382 188 382 198 469 c 128,-1,20
 208 556 208 556 208 641 c 1,21,22
 182 646 182 646 156.5 653 c 128,-1,23
 131 660 131 660 106 671 c 1,24,-1
 106 700 l 1,25,-1
 637 700 l 1,26,-1
 637 671 l 1,27,28
 620 664 620 664 600 657.5 c 128,-1,29
 580 651 580 651 555 646 c 1,30,-1
 555 52 l 1,31,-1
 669 52 l 1,0,1
459 52 m 1,32,-1
 459 648 l 1,33,-1
 266 648 l 1,34,35
 260 525 260 525 246.5 428.5 c 128,-1,36
 233 332 233 332 215.5 258.5 c 128,-1,37
 198 185 198 185 179.5 134 c 128,-1,38
 161 83 161 83 146 52 c 1,39,-1
 459 52 l 1,32,-1
EndSplineSet
Position2: "'cpsp' Capital Spacing lookup 0 subtable" dx=40 dy=0 dh=80 dv=0
EndChar

StartChar: afii10024
Encoding: 1046 1046 335
Width: 947
Flags: W
LayerCount: 2
Fore
SplineSet
424 646 m 1,0,1
 403 652 403 652 385 658 c 128,-1,2
 367 664 367 664 353 671 c 1,3,-1
 353 700 l 1,4,-1
 585 700 l 1,5,-1
 585 671 l 1,6,7
 573 665 573 665 556.5 659 c 128,-1,8
 540 653 540 653 520 646 c 1,9,-1
 520 369 l 1,10,-1
 588 383 l 1,11,-1
 756 646 l 1,12,13
 736 652 736 652 718.5 658.5 c 128,-1,14
 701 665 701 665 684 671 c 1,15,-1
 684 700 l 1,16,-1
 904 700 l 1,17,-1
 904 671 l 1,18,19
 886 663 886 663 867 657 c 128,-1,20
 848 651 848 651 829 646 c 1,21,-1
 647 380 l 1,22,23
 673 347 673 347 702 306 c 128,-1,24
 731 265 731 265 762.5 221 c 128,-1,25
 794 177 794 177 828.5 133 c 128,-1,26
 863 89 863 89 900 49 c 1,27,-1
 947 25 l 1,28,-1
 947 0 l 1,29,-1
 822 0 l 1,30,-1
 788 25 l 1,31,32
 729 94 729 94 680.5 173.5 c 128,-1,33
 632 253 632 253 578 335 c 1,34,-1
 520 335 l 1,35,-1
 520 53 l 1,36,37
 537 48 537 48 553.5 42.5 c 128,-1,38
 570 37 570 37 585 29 c 1,39,-1
 585 0 l 1,40,-1
 352 0 l 1,41,-1
 352 29 l 1,42,43
 382 45 382 45 424 53 c 1,44,-1
 424 344 l 1,45,-1
 364 329 l 1,46,47
 310 247 310 247 264 170.5 c 128,-1,48
 218 94 218 94 159 25 c 1,49,-1
 125 0 l 1,50,-1
 0 0 l 1,51,-1
 0 25 l 1,52,-1
 47 49 l 1,53,54
 84 89 84 89 119 132 c 128,-1,55
 154 175 154 175 186 217 c 128,-1,56
 218 259 218 259 246 298.5 c 128,-1,57
 274 338 274 338 297 371 c 1,58,-1
 109 646 l 1,59,60
 68 658 68 658 38 671 c 1,61,-1
 38 700 l 1,62,-1
 259 700 l 1,63,-1
 259 671 l 1,64,65
 245 664 245 664 228 657.5 c 128,-1,66
 211 651 211 651 191 646 c 1,67,-1
 360 377 l 1,68,-1
 424 377 l 1,69,-1
 424 646 l 1,0,1
EndSplineSet
Position2: "'cpsp' Capital Spacing lookup 0 subtable" dx=40 dy=0 dh=80 dv=0
EndChar

StartChar: afii10025
Encoding: 1047 1047 336
Width: 554
Flags: W
LayerCount: 2
Fore
SplineSet
241 -12 m 0,0,1
 185 -12 185 -12 134.5 -1 c 128,-1,2
 84 10 84 10 50 27 c 1,3,4
 50 43 50 43 52 63.5 c 128,-1,5
 54 84 54 84 57.5 106.5 c 128,-1,6
 61 129 61 129 65.5 151.5 c 128,-1,7
 70 174 70 174 75 194 c 1,8,-1
 101 194 l 1,9,-1
 143 54 l 1,10,11
 149 51 149 51 160 48.5 c 128,-1,12
 171 46 171 46 184.5 44 c 128,-1,13
 198 42 198 42 212.5 41 c 128,-1,14
 227 40 227 40 240 40 c 0,15,16
 277 40 277 40 307.5 52 c 128,-1,17
 338 64 338 64 360 84.5 c 128,-1,18
 382 105 382 105 394 133 c 128,-1,19
 406 161 406 161 406 194 c 0,20,21
 406 234 406 234 393.5 261 c 128,-1,22
 381 288 381 288 360 304.5 c 128,-1,23
 339 321 339 321 311.5 328 c 128,-1,24
 284 335 284 335 254 335 c 1,25,-1
 177 324 l 1,26,27
 170 355 170 355 176 382 c 1,28,-1
 208 382 l 2,29,30
 225 382 225 382 249 383.5 c 128,-1,31
 273 385 273 385 289 387 c 1,32,33
 335 403 335 403 359.5 438.5 c 128,-1,34
 384 474 384 474 384 522 c 0,35,36
 384 588 384 588 346.5 624 c 128,-1,37
 309 660 309 660 243 660 c 0,38,39
 210 660 210 660 190.5 654.5 c 128,-1,40
 171 649 171 649 164 641 c 1,41,-1
 112 519 l 1,42,-1
 86 519 l 1,43,44
 81 546 81 546 77.5 588 c 128,-1,45
 74 630 74 630 75 671 c 1,46,47
 90 683 90 683 111.5 690.5 c 128,-1,48
 133 698 133 698 156 703 c 128,-1,49
 179 708 179 708 203.5 710 c 128,-1,50
 228 712 228 712 249 712 c 0,51,52
 289 712 289 712 330 705 c 128,-1,53
 371 698 371 698 404.5 678.5 c 128,-1,54
 438 659 438 659 459 625.5 c 128,-1,55
 480 592 480 592 480 540 c 0,56,57
 480 489 480 489 450.5 444.5 c 128,-1,58
 421 400 421 400 357 375 c 1,59,-1
 357 371 l 1,60,61
 387 366 387 366 413.5 353.5 c 128,-1,62
 440 341 440 341 459.5 320.5 c 128,-1,63
 479 300 479 300 490.5 270 c 128,-1,64
 502 240 502 240 502 199 c 0,65,66
 502 145 502 145 480.5 105 c 128,-1,67
 459 65 459 65 423 39 c 128,-1,68
 387 13 387 13 339.5 0.5 c 128,-1,69
 292 -12 292 -12 241 -12 c 0,0,1
EndSplineSet
Position2: "'cpsp' Capital Spacing lookup 0 subtable" dx=40 dy=0 dh=80 dv=0
EndChar

StartChar: afii10026
Encoding: 1048 1048 337
Width: 739
Flags: W
LayerCount: 2
Fore
SplineSet
282 0 m 1,0,-1
 29 0 l 1,1,-1
 29 29 l 1,2,3
 69 47 69 47 111 53 c 1,4,-1
 111 646 l 1,5,6
 91 651 91 651 70 657 c 128,-1,7
 49 663 49 663 29 671 c 1,8,-1
 29 700 l 1,9,-1
 282 700 l 1,10,-1
 282 671 l 1,11,12
 266 663 266 663 248 657 c 128,-1,13
 230 651 230 651 207 646 c 1,14,-1
 207 212 l 1,15,-1
 196 137 l 1,16,-1
 244 216 l 1,17,-1
 537 622 l 1,18,-1
 537 646 l 1,19,20
 514 651 514 651 493.5 657.5 c 128,-1,21
 473 664 473 664 456 671 c 1,22,-1
 456 700 l 1,23,-1
 710 700 l 1,24,-1
 710 671 l 1,25,26
 692 663 692 663 671 657 c 128,-1,27
 650 651 650 651 628 646 c 1,28,-1
 628 53 l 1,29,30
 675 45 675 45 710 29 c 1,31,-1
 710 0 l 1,32,-1
 456 0 l 1,33,-1
 456 29 l 1,34,35
 472 36 472 36 491 42.5 c 128,-1,36
 510 49 510 49 532 53 c 1,37,-1
 532 486 l 1,38,-1
 542 561 l 1,39,-1
 498 486 l 1,40,-1
 201 75 l 1,41,-1
 201 53 l 1,42,43
 224 49 224 49 244.5 43 c 128,-1,44
 265 37 265 37 282 29 c 1,45,-1
 282 0 l 1,0,-1
EndSplineSet
Position2: "'cpsp' Capital Spacing lookup 0 subtable" dx=40 dy=0 dh=80 dv=0
EndChar

StartChar: afii10029
Encoding: 1051 1051 340
Width: 655
Flags: W
LayerCount: 2
Fore
SplineSet
202 641 m 1,0,1
 140 651 140 651 100 671 c 1,2,-1
 100 700 l 1,3,-1
 626 700 l 1,4,-1
 626 671 l 1,5,6
 591 653 591 653 544 646 c 1,7,-1
 544 53 l 1,8,9
 591 45 591 45 626 29 c 1,10,-1
 626 0 l 1,11,-1
 372 0 l 1,12,-1
 372 29 l 1,13,14
 390 37 390 37 409 42.5 c 128,-1,15
 428 48 428 48 448 53 c 1,16,-1
 448 648 l 1,17,-1
 261 648 l 1,18,19
 257 491 257 491 246.5 387.5 c 128,-1,20
 236 284 236 284 220 216.5 c 128,-1,21
 204 149 204 149 183.5 109 c 128,-1,22
 163 69 163 69 139 38 c 0,23,24
 119 12 119 12 90 0 c 128,-1,25
 61 -12 61 -12 34 -12 c 1,26,27
 27 -4 27 -4 19.5 10.5 c 128,-1,28
 12 25 12 25 5.5 41.5 c 128,-1,29
 -1 58 -1 58 -5 74.5 c 128,-1,30
 -9 91 -9 91 -10 104 c 1,31,-1
 5 129 l 1,32,-1
 120 108 l 1,33,34
 135 133 135 133 149.5 174 c 128,-1,35
 164 215 164 215 175.5 278.5 c 128,-1,36
 187 342 187 342 194.5 431 c 128,-1,37
 202 520 202 520 202 641 c 1,0,1
EndSplineSet
Position2: "'cpsp' Capital Spacing lookup 0 subtable" dx=40 dy=0 dh=80 dv=0
EndChar

StartChar: afii10033
Encoding: 1055 1055 344
Width: 718
Flags: W
LayerCount: 2
Fore
SplineSet
282 0 m 1,0,-1
 29 0 l 1,1,-1
 29 29 l 1,2,3
 44 37 44 37 64 43 c 128,-1,4
 84 49 84 49 111 53 c 1,5,-1
 111 646 l 1,6,7
 91 650 91 650 70 656.5 c 128,-1,8
 49 663 49 663 29 671 c 1,9,-1
 29 700 l 1,10,-1
 689 700 l 1,11,-1
 689 671 l 1,12,13
 670 661 670 661 649 655.5 c 128,-1,14
 628 650 628 650 607 646 c 1,15,-1
 607 53 l 1,16,17
 647 48 647 48 689 29 c 1,18,-1
 689 0 l 1,19,-1
 436 0 l 1,20,-1
 436 29 l 1,21,22
 458 43 458 43 511 53 c 1,23,-1
 511 648 l 1,24,-1
 207 648 l 1,25,-1
 207 53 l 1,26,27
 246 45 246 45 282 29 c 1,28,-1
 282 0 l 1,0,-1
EndSplineSet
Position2: "'cpsp' Capital Spacing lookup 0 subtable" dx=40 dy=0 dh=80 dv=0
EndChar

StartChar: afii10037
Encoding: 1059 1059 348
Width: 660
Flags: W
LayerCount: 2
Fore
SplineSet
522 646 m 1,0,1
 472 655 472 655 437 671 c 1,2,-1
 437 700 l 1,3,-1
 660 700 l 1,4,-1
 660 671 l 1,5,6
 647 665 647 665 629 658.5 c 128,-1,7
 611 652 611 652 588 646 c 1,8,-1
 392 201 l 1,9,10
 371 147 371 147 350 105.5 c 128,-1,11
 329 64 329 64 307 38 c 128,-1,12
 285 12 285 12 260 0.5 c 128,-1,13
 235 -11 235 -11 206 -5 c 1,14,15
 200 4 200 4 194.5 18 c 128,-1,16
 189 32 189 32 185 47 c 128,-1,17
 181 62 181 62 178 76.5 c 128,-1,18
 175 91 175 91 174 103 c 1,19,-1
 189 128 l 1,20,-1
 292 101 l 1,21,22
 296 105 296 105 300.5 113 c 128,-1,23
 305 121 305 121 309.5 131 c 128,-1,24
 314 141 314 141 318 151 c 128,-1,25
 322 161 322 161 324 169 c 1,26,-1
 75 646 l 1,27,28
 56 651 56 651 37 657 c 128,-1,29
 18 663 18 663 0 671 c 1,30,-1
 0 700 l 1,31,-1
 263 700 l 1,32,-1
 263 671 l 1,33,34
 246 664 246 664 225.5 657.5 c 128,-1,35
 205 651 205 651 182 646 c 1,36,-1
 348 315 l 1,37,-1
 369 251 l 1,38,-1
 371 251 l 1,39,-1
 391 317 l 1,40,-1
 522 646 l 1,0,1
EndSplineSet
Position2: "'cpsp' Capital Spacing lookup 0 subtable" dx=40 dy=0 dh=80 dv=0
EndChar

StartChar: afii10038
Encoding: 1060 1060 349
Width: 786
Flags: W
LayerCount: 2
Fore
SplineSet
278 700 m 1,0,-1
 503 700 l 1,1,-1
 503 671 l 1,2,3
 492 665 492 665 476 659 c 128,-1,4
 460 653 460 653 437 647 c 1,5,-1
 437 596 l 1,6,7
 456 601 456 601 480.5 602 c 128,-1,8
 505 603 505 603 521 603 c 0,9,10
 569 603 569 603 610.5 586.5 c 128,-1,11
 652 570 652 570 682.5 538.5 c 128,-1,12
 713 507 713 507 730 462 c 128,-1,13
 747 417 747 417 747 360 c 0,14,15
 747 296 747 296 726 249 c 128,-1,16
 705 202 705 202 670.5 170.5 c 128,-1,17
 636 139 636 139 592.5 123.5 c 128,-1,18
 549 108 549 108 504 108 c 0,19,20
 499 108 499 108 490 108.5 c 128,-1,21
 481 109 481 109 471 109.5 c 128,-1,22
 461 110 461 110 452 111.5 c 128,-1,23
 443 113 443 113 437 115 c 1,24,-1
 437 53 l 1,25,26
 457 48 457 48 473 42.5 c 128,-1,27
 489 37 489 37 503 29 c 1,28,-1
 503 0 l 1,29,-1
 278 0 l 1,30,-1
 278 29 l 1,31,32
 293 37 293 37 311 42.5 c 128,-1,33
 329 48 329 48 349 52 c 1,34,-1
 349 113 l 1,35,36
 330 110 330 110 307.5 109 c 128,-1,37
 285 108 285 108 265 108 c 0,38,39
 224 108 224 108 184 121.5 c 128,-1,40
 144 135 144 135 111.5 164 c 128,-1,41
 79 193 79 193 59 239 c 128,-1,42
 39 285 39 285 39 350 c 0,43,44
 39 410 39 410 59 457.5 c 128,-1,45
 79 505 79 505 113 537 c 128,-1,46
 147 569 147 569 191.5 586 c 128,-1,47
 236 603 236 603 285 603 c 0,48,49
 298 603 298 603 317.5 602 c 128,-1,50
 337 601 337 601 349 599 c 1,51,-1
 349 647 l 1,52,53
 304 657 304 657 278 671 c 1,54,-1
 278 700 l 1,0,-1
491 556 m 0,55,56
 477 556 477 556 463.5 555 c 128,-1,57
 450 554 450 554 436 550 c 1,58,-1
 436 158 l 1,59,60
 446 156 446 156 461 155.5 c 128,-1,61
 476 155 476 155 484 155 c 0,62,63
 517 155 517 155 547.5 167 c 128,-1,64
 578 179 578 179 601.5 203.5 c 128,-1,65
 625 228 625 228 639 267 c 128,-1,66
 653 306 653 306 653 360 c 0,67,68
 653 452 653 452 610.5 504 c 128,-1,69
 568 556 568 556 491 556 c 0,55,56
302 155 m 0,70,71
 313 155 313 155 324.5 155.5 c 128,-1,72
 336 156 336 156 350 160 c 1,73,-1
 350 553 l 1,74,75
 326 556 326 556 302 556 c 0,76,77
 270 556 270 556 240 544 c 128,-1,78
 210 532 210 532 186 506.5 c 128,-1,79
 162 481 162 481 147.5 442.5 c 128,-1,80
 133 404 133 404 133 350 c 0,81,82
 133 303 133 303 146 266.5 c 128,-1,83
 159 230 159 230 181.5 205.5 c 128,-1,84
 204 181 204 181 235 168 c 128,-1,85
 266 155 266 155 302 155 c 0,70,71
EndSplineSet
Position2: "'cpsp' Capital Spacing lookup 0 subtable" dx=40 dy=0 dh=80 dv=0
EndChar

StartChar: afii10040
Encoding: 1062 1062 351
Width: 732
Flags: W
LayerCount: 2
Fore
SplineSet
29 0 m 1,0,-1
 29 29 l 1,1,2
 57 42 57 42 111 53 c 1,3,-1
 111 646 l 1,4,5
 72 652 72 652 29 671 c 1,6,-1
 29 700 l 1,7,-1
 282 700 l 1,8,-1
 282 671 l 1,9,10
 253 658 253 658 207 646 c 1,11,-1
 207 52 l 1,12,-1
 506 52 l 1,13,-1
 506 646 l 1,14,15
 488 650 488 650 469 656 c 128,-1,16
 450 662 450 662 431 671 c 1,17,-1
 431 700 l 1,18,-1
 684 700 l 1,19,-1
 684 671 l 1,20,21
 644 654 644 654 602 646 c 1,22,-1
 602 52 l 1,23,-1
 717 52 l 1,24,25
 717 32 717 32 715 5.5 c 128,-1,26
 713 -21 713 -21 710 -49.5 c 128,-1,27
 707 -78 707 -78 703.5 -104.5 c 128,-1,28
 700 -131 700 -131 696 -151 c 1,29,-1
 671 -151 l 1,30,-1
 628 0 l 1,31,-1
 29 0 l 1,0,-1
EndSplineSet
Position2: "'cpsp' Capital Spacing lookup 0 subtable" dx=40 dy=0 dh=80 dv=0
EndChar

StartChar: afii10041
Encoding: 1063 1063 352
Width: 636
Flags: W
LayerCount: 2
Fore
SplineSet
607 0 m 1,0,-1
 353 0 l 1,1,-1
 353 29 l 1,2,3
 377 40 377 40 399.5 45.5 c 128,-1,4
 422 51 422 51 445 53 c 1,5,-1
 445 310 l 1,6,7
 418 295 418 295 373.5 280 c 128,-1,8
 329 265 329 265 272 265 c 0,9,10
 230 265 230 265 195 273 c 128,-1,11
 160 281 160 281 134.5 302 c 128,-1,12
 109 323 109 323 95 359 c 128,-1,13
 81 395 81 395 81 451 c 2,14,-1
 81 646 l 1,15,16
 63 649 63 649 45 655.5 c 128,-1,17
 27 662 27 662 9 671 c 1,18,-1
 9 700 l 1,19,-1
 243 700 l 1,20,-1
 243 671 l 1,21,22
 229 664 229 664 213 657.5 c 128,-1,23
 197 651 197 651 177 646 c 1,24,-1
 177 470 l 2,25,26
 177 400 177 400 205.5 358.5 c 128,-1,27
 234 317 234 317 300 317 c 0,28,29
 342 317 342 317 380 329 c 128,-1,30
 418 341 418 341 445 358 c 1,31,-1
 445 646 l 1,32,33
 427 651 427 651 409 657.5 c 128,-1,34
 391 664 391 664 374 671 c 1,35,-1
 374 700 l 1,36,-1
 607 700 l 1,37,-1
 607 671 l 1,38,39
 593 664 593 664 576.5 657.5 c 128,-1,40
 560 651 560 651 541 646 c 1,41,-1
 541 53 l 1,42,43
 561 49 561 49 577.5 43 c 128,-1,44
 594 37 594 37 607 29 c 1,45,-1
 607 0 l 1,0,-1
EndSplineSet
Position2: "'cpsp' Capital Spacing lookup 0 subtable" dx=40 dy=0 dh=80 dv=0
EndChar

StartChar: afii10042
Encoding: 1064 1064 353
Width: 930
Flags: W
LayerCount: 2
Fore
SplineSet
353 700 m 1,0,-1
 579 700 l 1,1,-1
 579 671 l 1,2,3
 563 663 563 663 547 657 c 128,-1,4
 531 651 531 651 514 646 c 1,5,-1
 514 52 l 1,6,-1
 735 52 l 1,7,-1
 735 646 l 1,8,9
 700 656 700 656 669 671 c 1,10,-1
 669 700 l 1,11,-1
 901 700 l 1,12,-1
 901 671 l 1,13,14
 886 664 886 664 868.5 657.5 c 128,-1,15
 851 651 851 651 831 646 c 1,16,-1
 831 53 l 1,17,18
 872 45 872 45 901 29 c 1,19,-1
 901 0 l 1,20,-1
 29 0 l 1,21,-1
 29 29 l 1,22,23
 66 47 66 47 101 53 c 1,24,-1
 101 646 l 1,25,26
 82 651 82 651 64 657 c 128,-1,27
 46 663 46 663 29 671 c 1,28,-1
 29 700 l 1,29,-1
 262 700 l 1,30,-1
 262 671 l 1,31,32
 236 658 236 658 197 646 c 1,33,-1
 197 52 l 1,34,-1
 418 52 l 1,35,-1
 418 646 l 1,36,37
 398 652 398 652 382 658.5 c 128,-1,38
 366 665 366 665 353 671 c 1,39,-1
 353 700 l 1,0,-1
EndSplineSet
Position2: "'cpsp' Capital Spacing lookup 0 subtable" dx=40 dy=0 dh=80 dv=0
EndChar

StartChar: afii10043
Encoding: 1065 1065 354
Width: 961
Flags: W
LayerCount: 2
Fore
SplineSet
29 0 m 1,0,-1
 29 29 l 1,1,2
 45 37 45 37 62 43 c 128,-1,3
 79 49 79 49 101 53 c 1,4,-1
 101 646 l 1,5,6
 66 652 66 652 29 671 c 1,7,-1
 29 700 l 1,8,-1
 262 700 l 1,9,-1
 262 671 l 1,10,11
 248 664 248 664 232.5 657.5 c 128,-1,12
 217 651 217 651 197 646 c 1,13,-1
 197 52 l 1,14,-1
 418 52 l 1,15,-1
 418 646 l 1,16,17
 400 652 400 652 383.5 657.5 c 128,-1,18
 367 663 367 663 353 671 c 1,19,-1
 353 700 l 1,20,-1
 579 700 l 1,21,-1
 579 671 l 1,22,23
 567 663 567 663 550.5 657 c 128,-1,24
 534 651 534 651 514 646 c 1,25,-1
 514 52 l 1,26,-1
 735 52 l 1,27,-1
 735 646 l 1,28,29
 699 655 699 655 669 671 c 1,30,-1
 669 700 l 1,31,-1
 901 700 l 1,32,-1
 901 671 l 1,33,34
 872 653 872 653 831 646 c 1,35,-1
 831 51 l 1,36,-1
 946 51 l 1,37,38
 946 31 946 31 944 5 c 128,-1,39
 942 -21 942 -21 939 -49 c 128,-1,40
 936 -77 936 -77 932.5 -104 c 128,-1,41
 929 -131 929 -131 925 -151 c 1,42,-1
 900 -151 l 1,43,-1
 857 0 l 1,44,-1
 29 0 l 1,0,-1
EndSplineSet
Position2: "'cpsp' Capital Spacing lookup 0 subtable" dx=40 dy=0 dh=80 dv=0
EndChar
